G04 #@! TF.GenerationSoftware,KiCad,Pcbnew,(5.1.4-0-10_14)*
G04 #@! TF.CreationDate,2020-04-04T17:45:35+02:00*
G04 #@! TF.ProjectId,Untitled,556e7469-746c-4656-942e-6b696361645f,rev?*
G04 #@! TF.SameCoordinates,Original*
G04 #@! TF.FileFunction,Legend,Bot*
G04 #@! TF.FilePolarity,Positive*
%FSLAX46Y46*%
G04 Gerber Fmt 4.6, Leading zero omitted, Abs format (unit mm)*
G04 Created by KiCad (PCBNEW (5.1.4-0-10_14)) date 2020-04-04 17:45:35*
%MOMM*%
%LPD*%
G04 APERTURE LIST*
%ADD10C,0.100000*%
%ADD11C,0.120000*%
%ADD12C,0.150000*%
G04 APERTURE END LIST*
D10*
G36*
X154975560Y-28011120D02*
G01*
X155483560Y-28011120D01*
X155483560Y-28519120D01*
X154975560Y-28519120D01*
X154975560Y-28011120D01*
G37*
X154975560Y-28011120D02*
X155483560Y-28011120D01*
X155483560Y-28519120D01*
X154975560Y-28519120D01*
X154975560Y-28011120D01*
G36*
X154975560Y-25471120D02*
G01*
X155483560Y-25471120D01*
X155483560Y-25979120D01*
X154975560Y-25979120D01*
X154975560Y-25471120D01*
G37*
X154975560Y-25471120D02*
X155483560Y-25471120D01*
X155483560Y-25979120D01*
X154975560Y-25979120D01*
X154975560Y-25471120D01*
G36*
X154975560Y-22931120D02*
G01*
X155483560Y-22931120D01*
X155483560Y-23439120D01*
X154975560Y-23439120D01*
X154975560Y-22931120D01*
G37*
X154975560Y-22931120D02*
X155483560Y-22931120D01*
X155483560Y-23439120D01*
X154975560Y-23439120D01*
X154975560Y-22931120D01*
G36*
X154975560Y-20391120D02*
G01*
X155483560Y-20391120D01*
X155483560Y-20899120D01*
X154975560Y-20899120D01*
X154975560Y-20391120D01*
G37*
X154975560Y-20391120D02*
X155483560Y-20391120D01*
X155483560Y-20899120D01*
X154975560Y-20899120D01*
X154975560Y-20391120D01*
D11*
X153959560Y-29535120D02*
X153959560Y-19375120D01*
X156499560Y-29535120D02*
X153959560Y-29535120D01*
X156499560Y-19375120D02*
X156499560Y-29535120D01*
X153959560Y-19375120D02*
X156499560Y-19375120D01*
D10*
G36*
X108400500Y-20942500D02*
G01*
X113480500Y-20942500D01*
X113480500Y-27927500D01*
X108400500Y-27927500D01*
X108400500Y-20942500D01*
G37*
X108400500Y-20942500D02*
X113480500Y-20942500D01*
X113480500Y-27927500D01*
X108400500Y-27927500D01*
X108400500Y-20942500D01*
D11*
X112684560Y-20962620D02*
X112684560Y-27947620D01*
X161930500Y-13227500D02*
X108280500Y-13227500D01*
X161880500Y-35827500D02*
X161930500Y-13227500D01*
X108280500Y-35827500D02*
X161880500Y-35827500D01*
X108280500Y-13227500D02*
X108280500Y-35827500D01*
D12*
X106870404Y-13422380D02*
X106870404Y-14231904D01*
X106822785Y-14327142D01*
X106775166Y-14374761D01*
X106679928Y-14422380D01*
X106489452Y-14422380D01*
X106394214Y-14374761D01*
X106346595Y-14327142D01*
X106298976Y-14231904D01*
X106298976Y-13422380D01*
X105298976Y-14422380D02*
X105870404Y-14422380D01*
X105584690Y-14422380D02*
X105584690Y-13422380D01*
X105679928Y-13565238D01*
X105775166Y-13660476D01*
X105870404Y-13708095D01*
X148470976Y-35313880D02*
X148804309Y-34837690D01*
X149042404Y-35313880D02*
X149042404Y-34313880D01*
X148661452Y-34313880D01*
X148566214Y-34361500D01*
X148518595Y-34409119D01*
X148470976Y-34504357D01*
X148470976Y-34647214D01*
X148518595Y-34742452D01*
X148566214Y-34790071D01*
X148661452Y-34837690D01*
X149042404Y-34837690D01*
X156138595Y-13533500D02*
X156233833Y-13485880D01*
X156376690Y-13485880D01*
X156519547Y-13533500D01*
X156614785Y-13628738D01*
X156662404Y-13723976D01*
X156710023Y-13914452D01*
X156710023Y-14057309D01*
X156662404Y-14247785D01*
X156614785Y-14343023D01*
X156519547Y-14438261D01*
X156376690Y-14485880D01*
X156281452Y-14485880D01*
X156138595Y-14438261D01*
X156090976Y-14390642D01*
X156090976Y-14057309D01*
X156281452Y-14057309D01*
X159738785Y-13485880D02*
X159267071Y-13485880D01*
X159521071Y-13866833D01*
X159412214Y-13866833D01*
X159339642Y-13914452D01*
X159303357Y-13962071D01*
X159267071Y-14057309D01*
X159267071Y-14295404D01*
X159303357Y-14390642D01*
X159339642Y-14438261D01*
X159412214Y-14485880D01*
X159629928Y-14485880D01*
X159702500Y-14438261D01*
X159738785Y-14390642D01*
X158940500Y-14390642D02*
X158904214Y-14438261D01*
X158940500Y-14485880D01*
X158976785Y-14438261D01*
X158940500Y-14390642D01*
X158940500Y-14485880D01*
X158650214Y-13485880D02*
X158178500Y-13485880D01*
X158432500Y-13866833D01*
X158323642Y-13866833D01*
X158251071Y-13914452D01*
X158214785Y-13962071D01*
X158178500Y-14057309D01*
X158178500Y-14295404D01*
X158214785Y-14390642D01*
X158251071Y-14438261D01*
X158323642Y-14485880D01*
X158541357Y-14485880D01*
X158613928Y-14438261D01*
X158650214Y-14390642D01*
X154050976Y-13485880D02*
X154527166Y-13485880D01*
X154574785Y-13962071D01*
X154527166Y-13914452D01*
X154431928Y-13866833D01*
X154193833Y-13866833D01*
X154098595Y-13914452D01*
X154050976Y-13962071D01*
X154003357Y-14057309D01*
X154003357Y-14295404D01*
X154050976Y-14390642D01*
X154098595Y-14438261D01*
X154193833Y-14485880D01*
X154431928Y-14485880D01*
X154527166Y-14438261D01*
X154574785Y-14390642D01*
X153717642Y-13485880D02*
X153384309Y-14485880D01*
X153050976Y-13485880D01*
X151725261Y-13962071D02*
X151582404Y-14009690D01*
X151534785Y-14057309D01*
X151487166Y-14152547D01*
X151487166Y-14295404D01*
X151534785Y-14390642D01*
X151582404Y-14438261D01*
X151677642Y-14485880D01*
X152058595Y-14485880D01*
X152058595Y-13485880D01*
X151725261Y-13485880D01*
X151630023Y-13533500D01*
X151582404Y-13581119D01*
X151534785Y-13676357D01*
X151534785Y-13771595D01*
X151582404Y-13866833D01*
X151630023Y-13914452D01*
X151725261Y-13962071D01*
X152058595Y-13962071D01*
X151010976Y-14485880D02*
X150820500Y-14485880D01*
X150725261Y-14438261D01*
X150677642Y-14390642D01*
X150582404Y-14247785D01*
X150534785Y-14057309D01*
X150534785Y-13676357D01*
X150582404Y-13581119D01*
X150630023Y-13533500D01*
X150725261Y-13485880D01*
X150915738Y-13485880D01*
X151010976Y-13533500D01*
X151058595Y-13581119D01*
X151106214Y-13676357D01*
X151106214Y-13914452D01*
X151058595Y-14009690D01*
X151010976Y-14057309D01*
X150915738Y-14104928D01*
X150725261Y-14104928D01*
X150630023Y-14057309D01*
X150582404Y-14009690D01*
X150534785Y-13914452D01*
X149185261Y-13962071D02*
X149042404Y-14009690D01*
X148994785Y-14057309D01*
X148947166Y-14152547D01*
X148947166Y-14295404D01*
X148994785Y-14390642D01*
X149042404Y-14438261D01*
X149137642Y-14485880D01*
X149518595Y-14485880D01*
X149518595Y-13485880D01*
X149185261Y-13485880D01*
X149090023Y-13533500D01*
X149042404Y-13581119D01*
X148994785Y-13676357D01*
X148994785Y-13771595D01*
X149042404Y-13866833D01*
X149090023Y-13914452D01*
X149185261Y-13962071D01*
X149518595Y-13962071D01*
X148375738Y-13914452D02*
X148470976Y-13866833D01*
X148518595Y-13819214D01*
X148566214Y-13723976D01*
X148566214Y-13676357D01*
X148518595Y-13581119D01*
X148470976Y-13533500D01*
X148375738Y-13485880D01*
X148185261Y-13485880D01*
X148090023Y-13533500D01*
X148042404Y-13581119D01*
X147994785Y-13676357D01*
X147994785Y-13723976D01*
X148042404Y-13819214D01*
X148090023Y-13866833D01*
X148185261Y-13914452D01*
X148375738Y-13914452D01*
X148470976Y-13962071D01*
X148518595Y-14009690D01*
X148566214Y-14104928D01*
X148566214Y-14295404D01*
X148518595Y-14390642D01*
X148470976Y-14438261D01*
X148375738Y-14485880D01*
X148185261Y-14485880D01*
X148090023Y-14438261D01*
X148042404Y-14390642D01*
X147994785Y-14295404D01*
X147994785Y-14104928D01*
X148042404Y-14009690D01*
X148090023Y-13962071D01*
X148185261Y-13914452D01*
X146645261Y-13962071D02*
X146502404Y-14009690D01*
X146454785Y-14057309D01*
X146407166Y-14152547D01*
X146407166Y-14295404D01*
X146454785Y-14390642D01*
X146502404Y-14438261D01*
X146597642Y-14485880D01*
X146978595Y-14485880D01*
X146978595Y-13485880D01*
X146645261Y-13485880D01*
X146550023Y-13533500D01*
X146502404Y-13581119D01*
X146454785Y-13676357D01*
X146454785Y-13771595D01*
X146502404Y-13866833D01*
X146550023Y-13914452D01*
X146645261Y-13962071D01*
X146978595Y-13962071D01*
X146073833Y-13485880D02*
X145407166Y-13485880D01*
X145835738Y-14485880D01*
X144105261Y-13962071D02*
X143962404Y-14009690D01*
X143914785Y-14057309D01*
X143867166Y-14152547D01*
X143867166Y-14295404D01*
X143914785Y-14390642D01*
X143962404Y-14438261D01*
X144057642Y-14485880D01*
X144438595Y-14485880D01*
X144438595Y-13485880D01*
X144105261Y-13485880D01*
X144010023Y-13533500D01*
X143962404Y-13581119D01*
X143914785Y-13676357D01*
X143914785Y-13771595D01*
X143962404Y-13866833D01*
X144010023Y-13914452D01*
X144105261Y-13962071D01*
X144438595Y-13962071D01*
X143010023Y-13485880D02*
X143200500Y-13485880D01*
X143295738Y-13533500D01*
X143343357Y-13581119D01*
X143438595Y-13723976D01*
X143486214Y-13914452D01*
X143486214Y-14295404D01*
X143438595Y-14390642D01*
X143390976Y-14438261D01*
X143295738Y-14485880D01*
X143105261Y-14485880D01*
X143010023Y-14438261D01*
X142962404Y-14390642D01*
X142914785Y-14295404D01*
X142914785Y-14057309D01*
X142962404Y-13962071D01*
X143010023Y-13914452D01*
X143105261Y-13866833D01*
X143295738Y-13866833D01*
X143390976Y-13914452D01*
X143438595Y-13962071D01*
X143486214Y-14057309D01*
X141565261Y-13962071D02*
X141422404Y-14009690D01*
X141374785Y-14057309D01*
X141327166Y-14152547D01*
X141327166Y-14295404D01*
X141374785Y-14390642D01*
X141422404Y-14438261D01*
X141517642Y-14485880D01*
X141898595Y-14485880D01*
X141898595Y-13485880D01*
X141565261Y-13485880D01*
X141470023Y-13533500D01*
X141422404Y-13581119D01*
X141374785Y-13676357D01*
X141374785Y-13771595D01*
X141422404Y-13866833D01*
X141470023Y-13914452D01*
X141565261Y-13962071D01*
X141898595Y-13962071D01*
X140422404Y-13485880D02*
X140898595Y-13485880D01*
X140946214Y-13962071D01*
X140898595Y-13914452D01*
X140803357Y-13866833D01*
X140565261Y-13866833D01*
X140470023Y-13914452D01*
X140422404Y-13962071D01*
X140374785Y-14057309D01*
X140374785Y-14295404D01*
X140422404Y-14390642D01*
X140470023Y-14438261D01*
X140565261Y-14485880D01*
X140803357Y-14485880D01*
X140898595Y-14438261D01*
X140946214Y-14390642D01*
X139025261Y-13962071D02*
X138882404Y-14009690D01*
X138834785Y-14057309D01*
X138787166Y-14152547D01*
X138787166Y-14295404D01*
X138834785Y-14390642D01*
X138882404Y-14438261D01*
X138977642Y-14485880D01*
X139358595Y-14485880D01*
X139358595Y-13485880D01*
X139025261Y-13485880D01*
X138930023Y-13533500D01*
X138882404Y-13581119D01*
X138834785Y-13676357D01*
X138834785Y-13771595D01*
X138882404Y-13866833D01*
X138930023Y-13914452D01*
X139025261Y-13962071D01*
X139358595Y-13962071D01*
X137930023Y-13819214D02*
X137930023Y-14485880D01*
X138168119Y-13438261D02*
X138406214Y-14152547D01*
X137787166Y-14152547D01*
X136485261Y-13962071D02*
X136342404Y-14009690D01*
X136294785Y-14057309D01*
X136247166Y-14152547D01*
X136247166Y-14295404D01*
X136294785Y-14390642D01*
X136342404Y-14438261D01*
X136437642Y-14485880D01*
X136818595Y-14485880D01*
X136818595Y-13485880D01*
X136485261Y-13485880D01*
X136390023Y-13533500D01*
X136342404Y-13581119D01*
X136294785Y-13676357D01*
X136294785Y-13771595D01*
X136342404Y-13866833D01*
X136390023Y-13914452D01*
X136485261Y-13962071D01*
X136818595Y-13962071D01*
X135913833Y-13485880D02*
X135294785Y-13485880D01*
X135628119Y-13866833D01*
X135485261Y-13866833D01*
X135390023Y-13914452D01*
X135342404Y-13962071D01*
X135294785Y-14057309D01*
X135294785Y-14295404D01*
X135342404Y-14390642D01*
X135390023Y-14438261D01*
X135485261Y-14485880D01*
X135770976Y-14485880D01*
X135866214Y-14438261D01*
X135913833Y-14390642D01*
X134447642Y-14200166D02*
X134084785Y-14200166D01*
X134520214Y-14485880D02*
X134266214Y-13485880D01*
X134012214Y-14485880D01*
X133359071Y-14485880D02*
X133794500Y-14485880D01*
X133576785Y-14485880D02*
X133576785Y-13485880D01*
X133649357Y-13628738D01*
X133721928Y-13723976D01*
X133794500Y-13771595D01*
X132669642Y-13485880D02*
X133032500Y-13485880D01*
X133068785Y-13962071D01*
X133032500Y-13914452D01*
X132959928Y-13866833D01*
X132778500Y-13866833D01*
X132705928Y-13914452D01*
X132669642Y-13962071D01*
X132633357Y-14057309D01*
X132633357Y-14295404D01*
X132669642Y-14390642D01*
X132705928Y-14438261D01*
X132778500Y-14485880D01*
X132959928Y-14485880D01*
X133032500Y-14438261D01*
X133068785Y-14390642D01*
X131907642Y-14200166D02*
X131544785Y-14200166D01*
X131980214Y-14485880D02*
X131726214Y-13485880D01*
X131472214Y-14485880D01*
X130819071Y-14485880D02*
X131254500Y-14485880D01*
X131036785Y-14485880D02*
X131036785Y-13485880D01*
X131109357Y-13628738D01*
X131181928Y-13723976D01*
X131254500Y-13771595D01*
X130528785Y-13581119D02*
X130492500Y-13533500D01*
X130419928Y-13485880D01*
X130238500Y-13485880D01*
X130165928Y-13533500D01*
X130129642Y-13581119D01*
X130093357Y-13676357D01*
X130093357Y-13771595D01*
X130129642Y-13914452D01*
X130565071Y-14485880D01*
X130093357Y-14485880D01*
X129367642Y-14200166D02*
X129004785Y-14200166D01*
X129440214Y-14485880D02*
X129186214Y-13485880D01*
X128932214Y-14485880D01*
X128279071Y-14485880D02*
X128714500Y-14485880D01*
X128496785Y-14485880D02*
X128496785Y-13485880D01*
X128569357Y-13628738D01*
X128641928Y-13723976D01*
X128714500Y-13771595D01*
X127553357Y-14485880D02*
X127988785Y-14485880D01*
X127771071Y-14485880D02*
X127771071Y-13485880D01*
X127843642Y-13628738D01*
X127916214Y-13723976D01*
X127988785Y-13771595D01*
X126827642Y-14200166D02*
X126464785Y-14200166D01*
X126900214Y-14485880D02*
X126646214Y-13485880D01*
X126392214Y-14485880D01*
X125739071Y-14485880D02*
X126174500Y-14485880D01*
X125956785Y-14485880D02*
X125956785Y-13485880D01*
X126029357Y-13628738D01*
X126101928Y-13723976D01*
X126174500Y-13771595D01*
X125267357Y-13485880D02*
X125194785Y-13485880D01*
X125122214Y-13533500D01*
X125085928Y-13581119D01*
X125049642Y-13676357D01*
X125013357Y-13866833D01*
X125013357Y-14104928D01*
X125049642Y-14295404D01*
X125085928Y-14390642D01*
X125122214Y-14438261D01*
X125194785Y-14485880D01*
X125267357Y-14485880D01*
X125339928Y-14438261D01*
X125376214Y-14390642D01*
X125412500Y-14295404D01*
X125448785Y-14104928D01*
X125448785Y-13866833D01*
X125412500Y-13676357D01*
X125376214Y-13581119D01*
X125339928Y-13533500D01*
X125267357Y-13485880D01*
X124094785Y-14200166D02*
X123618595Y-14200166D01*
X124190023Y-14485880D02*
X123856690Y-13485880D01*
X123523357Y-14485880D01*
X123142404Y-14485880D02*
X122951928Y-14485880D01*
X122856690Y-14438261D01*
X122809071Y-14390642D01*
X122713833Y-14247785D01*
X122666214Y-14057309D01*
X122666214Y-13676357D01*
X122713833Y-13581119D01*
X122761452Y-13533500D01*
X122856690Y-13485880D01*
X123047166Y-13485880D01*
X123142404Y-13533500D01*
X123190023Y-13581119D01*
X123237642Y-13676357D01*
X123237642Y-13914452D01*
X123190023Y-14009690D01*
X123142404Y-14057309D01*
X123047166Y-14104928D01*
X122856690Y-14104928D01*
X122761452Y-14057309D01*
X122713833Y-14009690D01*
X122666214Y-13914452D01*
X121554785Y-14200166D02*
X121078595Y-14200166D01*
X121650023Y-14485880D02*
X121316690Y-13485880D01*
X120983357Y-14485880D01*
X120507166Y-13914452D02*
X120602404Y-13866833D01*
X120650023Y-13819214D01*
X120697642Y-13723976D01*
X120697642Y-13676357D01*
X120650023Y-13581119D01*
X120602404Y-13533500D01*
X120507166Y-13485880D01*
X120316690Y-13485880D01*
X120221452Y-13533500D01*
X120173833Y-13581119D01*
X120126214Y-13676357D01*
X120126214Y-13723976D01*
X120173833Y-13819214D01*
X120221452Y-13866833D01*
X120316690Y-13914452D01*
X120507166Y-13914452D01*
X120602404Y-13962071D01*
X120650023Y-14009690D01*
X120697642Y-14104928D01*
X120697642Y-14295404D01*
X120650023Y-14390642D01*
X120602404Y-14438261D01*
X120507166Y-14485880D01*
X120316690Y-14485880D01*
X120221452Y-14438261D01*
X120173833Y-14390642D01*
X120126214Y-14295404D01*
X120126214Y-14104928D01*
X120173833Y-14009690D01*
X120221452Y-13962071D01*
X120316690Y-13914452D01*
X118971785Y-13962071D02*
X118862928Y-14009690D01*
X118826642Y-14057309D01*
X118790357Y-14152547D01*
X118790357Y-14295404D01*
X118826642Y-14390642D01*
X118862928Y-14438261D01*
X118935500Y-14485880D01*
X119225785Y-14485880D01*
X119225785Y-13485880D01*
X118971785Y-13485880D01*
X118899214Y-13533500D01*
X118862928Y-13581119D01*
X118826642Y-13676357D01*
X118826642Y-13771595D01*
X118862928Y-13866833D01*
X118899214Y-13914452D01*
X118971785Y-13962071D01*
X119225785Y-13962071D01*
X118064642Y-14485880D02*
X118500071Y-14485880D01*
X118282357Y-14485880D02*
X118282357Y-13485880D01*
X118354928Y-13628738D01*
X118427500Y-13723976D01*
X118500071Y-13771595D01*
X117375214Y-13485880D02*
X117738071Y-13485880D01*
X117774357Y-13962071D01*
X117738071Y-13914452D01*
X117665500Y-13866833D01*
X117484071Y-13866833D01*
X117411500Y-13914452D01*
X117375214Y-13962071D01*
X117338928Y-14057309D01*
X117338928Y-14295404D01*
X117375214Y-14390642D01*
X117411500Y-14438261D01*
X117484071Y-14485880D01*
X117665500Y-14485880D01*
X117738071Y-14438261D01*
X117774357Y-14390642D01*
X116431785Y-13962071D02*
X116322928Y-14009690D01*
X116286642Y-14057309D01*
X116250357Y-14152547D01*
X116250357Y-14295404D01*
X116286642Y-14390642D01*
X116322928Y-14438261D01*
X116395500Y-14485880D01*
X116685785Y-14485880D01*
X116685785Y-13485880D01*
X116431785Y-13485880D01*
X116359214Y-13533500D01*
X116322928Y-13581119D01*
X116286642Y-13676357D01*
X116286642Y-13771595D01*
X116322928Y-13866833D01*
X116359214Y-13914452D01*
X116431785Y-13962071D01*
X116685785Y-13962071D01*
X115524642Y-14485880D02*
X115960071Y-14485880D01*
X115742357Y-14485880D02*
X115742357Y-13485880D01*
X115814928Y-13628738D01*
X115887500Y-13723976D01*
X115960071Y-13771595D01*
X114871500Y-13819214D02*
X114871500Y-14485880D01*
X115052928Y-13438261D02*
X115234357Y-14152547D01*
X114762642Y-14152547D01*
X113891785Y-13962071D02*
X113782928Y-14009690D01*
X113746642Y-14057309D01*
X113710357Y-14152547D01*
X113710357Y-14295404D01*
X113746642Y-14390642D01*
X113782928Y-14438261D01*
X113855500Y-14485880D01*
X114145785Y-14485880D01*
X114145785Y-13485880D01*
X113891785Y-13485880D01*
X113819214Y-13533500D01*
X113782928Y-13581119D01*
X113746642Y-13676357D01*
X113746642Y-13771595D01*
X113782928Y-13866833D01*
X113819214Y-13914452D01*
X113891785Y-13962071D01*
X114145785Y-13962071D01*
X112984642Y-14485880D02*
X113420071Y-14485880D01*
X113202357Y-14485880D02*
X113202357Y-13485880D01*
X113274928Y-13628738D01*
X113347500Y-13723976D01*
X113420071Y-13771595D01*
X112730642Y-13485880D02*
X112258928Y-13485880D01*
X112512928Y-13866833D01*
X112404071Y-13866833D01*
X112331500Y-13914452D01*
X112295214Y-13962071D01*
X112258928Y-14057309D01*
X112258928Y-14295404D01*
X112295214Y-14390642D01*
X112331500Y-14438261D01*
X112404071Y-14485880D01*
X112621785Y-14485880D01*
X112694357Y-14438261D01*
X112730642Y-14390642D01*
X111351785Y-13962071D02*
X111242928Y-14009690D01*
X111206642Y-14057309D01*
X111170357Y-14152547D01*
X111170357Y-14295404D01*
X111206642Y-14390642D01*
X111242928Y-14438261D01*
X111315500Y-14485880D01*
X111605785Y-14485880D01*
X111605785Y-13485880D01*
X111351785Y-13485880D01*
X111279214Y-13533500D01*
X111242928Y-13581119D01*
X111206642Y-13676357D01*
X111206642Y-13771595D01*
X111242928Y-13866833D01*
X111279214Y-13914452D01*
X111351785Y-13962071D01*
X111605785Y-13962071D01*
X110444642Y-14485880D02*
X110880071Y-14485880D01*
X110662357Y-14485880D02*
X110662357Y-13485880D01*
X110734928Y-13628738D01*
X110807500Y-13723976D01*
X110880071Y-13771595D01*
X110154357Y-13581119D02*
X110118071Y-13533500D01*
X110045500Y-13485880D01*
X109864071Y-13485880D01*
X109791500Y-13533500D01*
X109755214Y-13581119D01*
X109718928Y-13676357D01*
X109718928Y-13771595D01*
X109755214Y-13914452D01*
X110190642Y-14485880D01*
X109718928Y-14485880D01*
X159773833Y-34313880D02*
X159440500Y-35313880D01*
X159107166Y-34313880D01*
X158440500Y-34790071D02*
X158297642Y-34837690D01*
X158250023Y-34885309D01*
X158202404Y-34980547D01*
X158202404Y-35123404D01*
X158250023Y-35218642D01*
X158297642Y-35266261D01*
X158392880Y-35313880D01*
X158773833Y-35313880D01*
X158773833Y-34313880D01*
X158440500Y-34313880D01*
X158345261Y-34361500D01*
X158297642Y-34409119D01*
X158250023Y-34504357D01*
X158250023Y-34599595D01*
X158297642Y-34694833D01*
X158345261Y-34742452D01*
X158440500Y-34790071D01*
X158773833Y-34790071D01*
X156890357Y-35218642D02*
X156926642Y-35266261D01*
X157035500Y-35313880D01*
X157108071Y-35313880D01*
X157216928Y-35266261D01*
X157289500Y-35171023D01*
X157325785Y-35075785D01*
X157362071Y-34885309D01*
X157362071Y-34742452D01*
X157325785Y-34551976D01*
X157289500Y-34456738D01*
X157216928Y-34361500D01*
X157108071Y-34313880D01*
X157035500Y-34313880D01*
X156926642Y-34361500D01*
X156890357Y-34409119D01*
X156164642Y-35313880D02*
X156600071Y-35313880D01*
X156382357Y-35313880D02*
X156382357Y-34313880D01*
X156454928Y-34456738D01*
X156527500Y-34551976D01*
X156600071Y-34599595D01*
X155910642Y-34313880D02*
X155438928Y-34313880D01*
X155692928Y-34694833D01*
X155584071Y-34694833D01*
X155511500Y-34742452D01*
X155475214Y-34790071D01*
X155438928Y-34885309D01*
X155438928Y-35123404D01*
X155475214Y-35218642D01*
X155511500Y-35266261D01*
X155584071Y-35313880D01*
X155801785Y-35313880D01*
X155874357Y-35266261D01*
X155910642Y-35218642D01*
X154350357Y-35218642D02*
X154386642Y-35266261D01*
X154495500Y-35313880D01*
X154568071Y-35313880D01*
X154676928Y-35266261D01*
X154749500Y-35171023D01*
X154785785Y-35075785D01*
X154822071Y-34885309D01*
X154822071Y-34742452D01*
X154785785Y-34551976D01*
X154749500Y-34456738D01*
X154676928Y-34361500D01*
X154568071Y-34313880D01*
X154495500Y-34313880D01*
X154386642Y-34361500D01*
X154350357Y-34409119D01*
X153624642Y-35313880D02*
X154060071Y-35313880D01*
X153842357Y-35313880D02*
X153842357Y-34313880D01*
X153914928Y-34456738D01*
X153987500Y-34551976D01*
X154060071Y-34599595D01*
X152971500Y-34647214D02*
X152971500Y-35313880D01*
X153152928Y-34266261D02*
X153334357Y-34980547D01*
X152862642Y-34980547D01*
X151810357Y-35218642D02*
X151846642Y-35266261D01*
X151955500Y-35313880D01*
X152028071Y-35313880D01*
X152136928Y-35266261D01*
X152209500Y-35171023D01*
X152245785Y-35075785D01*
X152282071Y-34885309D01*
X152282071Y-34742452D01*
X152245785Y-34551976D01*
X152209500Y-34456738D01*
X152136928Y-34361500D01*
X152028071Y-34313880D01*
X151955500Y-34313880D01*
X151846642Y-34361500D01*
X151810357Y-34409119D01*
X151084642Y-35313880D02*
X151520071Y-35313880D01*
X151302357Y-35313880D02*
X151302357Y-34313880D01*
X151374928Y-34456738D01*
X151447500Y-34551976D01*
X151520071Y-34599595D01*
X150395214Y-34313880D02*
X150758071Y-34313880D01*
X150794357Y-34790071D01*
X150758071Y-34742452D01*
X150685500Y-34694833D01*
X150504071Y-34694833D01*
X150431500Y-34742452D01*
X150395214Y-34790071D01*
X150358928Y-34885309D01*
X150358928Y-35123404D01*
X150395214Y-35218642D01*
X150431500Y-35266261D01*
X150504071Y-35313880D01*
X150685500Y-35313880D01*
X150758071Y-35266261D01*
X150794357Y-35218642D01*
X146954785Y-35028166D02*
X146478595Y-35028166D01*
X147050023Y-35313880D02*
X146716690Y-34313880D01*
X146383357Y-35313880D01*
X145859547Y-34313880D02*
X145764309Y-34313880D01*
X145669071Y-34361500D01*
X145621452Y-34409119D01*
X145573833Y-34504357D01*
X145526214Y-34694833D01*
X145526214Y-34932928D01*
X145573833Y-35123404D01*
X145621452Y-35218642D01*
X145669071Y-35266261D01*
X145764309Y-35313880D01*
X145859547Y-35313880D01*
X145954785Y-35266261D01*
X146002404Y-35218642D01*
X146050023Y-35123404D01*
X146097642Y-34932928D01*
X146097642Y-34694833D01*
X146050023Y-34504357D01*
X146002404Y-34409119D01*
X145954785Y-34361500D01*
X145859547Y-34313880D01*
X144414785Y-35028166D02*
X143938595Y-35028166D01*
X144510023Y-35313880D02*
X144176690Y-34313880D01*
X143843357Y-35313880D01*
X142986214Y-35313880D02*
X143557642Y-35313880D01*
X143271928Y-35313880D02*
X143271928Y-34313880D01*
X143367166Y-34456738D01*
X143462404Y-34551976D01*
X143557642Y-34599595D01*
X141874785Y-35028166D02*
X141398595Y-35028166D01*
X141970023Y-35313880D02*
X141636690Y-34313880D01*
X141303357Y-35313880D01*
X141017642Y-34409119D02*
X140970023Y-34361500D01*
X140874785Y-34313880D01*
X140636690Y-34313880D01*
X140541452Y-34361500D01*
X140493833Y-34409119D01*
X140446214Y-34504357D01*
X140446214Y-34599595D01*
X140493833Y-34742452D01*
X141065261Y-35313880D01*
X140446214Y-35313880D01*
X139334785Y-35028166D02*
X138858595Y-35028166D01*
X139430023Y-35313880D02*
X139096690Y-34313880D01*
X138763357Y-35313880D01*
X138525261Y-34313880D02*
X137906214Y-34313880D01*
X138239547Y-34694833D01*
X138096690Y-34694833D01*
X138001452Y-34742452D01*
X137953833Y-34790071D01*
X137906214Y-34885309D01*
X137906214Y-35123404D01*
X137953833Y-35218642D01*
X138001452Y-35266261D01*
X138096690Y-35313880D01*
X138382404Y-35313880D01*
X138477642Y-35266261D01*
X138525261Y-35218642D01*
X136794785Y-35028166D02*
X136318595Y-35028166D01*
X136890023Y-35313880D02*
X136556690Y-34313880D01*
X136223357Y-35313880D01*
X135461452Y-34647214D02*
X135461452Y-35313880D01*
X135699547Y-34266261D02*
X135937642Y-34980547D01*
X135318595Y-34980547D01*
X134254785Y-35028166D02*
X133778595Y-35028166D01*
X134350023Y-35313880D02*
X134016690Y-34313880D01*
X133683357Y-35313880D01*
X132873833Y-34313880D02*
X133350023Y-34313880D01*
X133397642Y-34790071D01*
X133350023Y-34742452D01*
X133254785Y-34694833D01*
X133016690Y-34694833D01*
X132921452Y-34742452D01*
X132873833Y-34790071D01*
X132826214Y-34885309D01*
X132826214Y-35123404D01*
X132873833Y-35218642D01*
X132921452Y-35266261D01*
X133016690Y-35313880D01*
X133254785Y-35313880D01*
X133350023Y-35266261D01*
X133397642Y-35218642D01*
X131714785Y-35028166D02*
X131238595Y-35028166D01*
X131810023Y-35313880D02*
X131476690Y-34313880D01*
X131143357Y-35313880D01*
X130381452Y-34313880D02*
X130571928Y-34313880D01*
X130667166Y-34361500D01*
X130714785Y-34409119D01*
X130810023Y-34551976D01*
X130857642Y-34742452D01*
X130857642Y-35123404D01*
X130810023Y-35218642D01*
X130762404Y-35266261D01*
X130667166Y-35313880D01*
X130476690Y-35313880D01*
X130381452Y-35266261D01*
X130333833Y-35218642D01*
X130286214Y-35123404D01*
X130286214Y-34885309D01*
X130333833Y-34790071D01*
X130381452Y-34742452D01*
X130476690Y-34694833D01*
X130667166Y-34694833D01*
X130762404Y-34742452D01*
X130810023Y-34790071D01*
X130857642Y-34885309D01*
X129174785Y-35028166D02*
X128698595Y-35028166D01*
X129270023Y-35313880D02*
X128936690Y-34313880D01*
X128603357Y-35313880D01*
X128365261Y-34313880D02*
X127698595Y-34313880D01*
X128127166Y-35313880D01*
X126325261Y-34790071D02*
X126182404Y-34837690D01*
X126134785Y-34885309D01*
X126087166Y-34980547D01*
X126087166Y-35123404D01*
X126134785Y-35218642D01*
X126182404Y-35266261D01*
X126277642Y-35313880D01*
X126658595Y-35313880D01*
X126658595Y-34313880D01*
X126325261Y-34313880D01*
X126230023Y-34361500D01*
X126182404Y-34409119D01*
X126134785Y-34504357D01*
X126134785Y-34599595D01*
X126182404Y-34694833D01*
X126230023Y-34742452D01*
X126325261Y-34790071D01*
X126658595Y-34790071D01*
X125468119Y-34313880D02*
X125372880Y-34313880D01*
X125277642Y-34361500D01*
X125230023Y-34409119D01*
X125182404Y-34504357D01*
X125134785Y-34694833D01*
X125134785Y-34932928D01*
X125182404Y-35123404D01*
X125230023Y-35218642D01*
X125277642Y-35266261D01*
X125372880Y-35313880D01*
X125468119Y-35313880D01*
X125563357Y-35266261D01*
X125610976Y-35218642D01*
X125658595Y-35123404D01*
X125706214Y-34932928D01*
X125706214Y-34694833D01*
X125658595Y-34504357D01*
X125610976Y-34409119D01*
X125563357Y-34361500D01*
X125468119Y-34313880D01*
X123688928Y-34790071D02*
X123580071Y-34837690D01*
X123543785Y-34885309D01*
X123507500Y-34980547D01*
X123507500Y-35123404D01*
X123543785Y-35218642D01*
X123580071Y-35266261D01*
X123652642Y-35313880D01*
X123942928Y-35313880D01*
X123942928Y-34313880D01*
X123688928Y-34313880D01*
X123616357Y-34361500D01*
X123580071Y-34409119D01*
X123543785Y-34504357D01*
X123543785Y-34599595D01*
X123580071Y-34694833D01*
X123616357Y-34742452D01*
X123688928Y-34790071D01*
X123942928Y-34790071D01*
X122781785Y-35313880D02*
X123217214Y-35313880D01*
X122999500Y-35313880D02*
X122999500Y-34313880D01*
X123072071Y-34456738D01*
X123144642Y-34551976D01*
X123217214Y-34599595D01*
X121148928Y-34790071D02*
X121040071Y-34837690D01*
X121003785Y-34885309D01*
X120967500Y-34980547D01*
X120967500Y-35123404D01*
X121003785Y-35218642D01*
X121040071Y-35266261D01*
X121112642Y-35313880D01*
X121402928Y-35313880D01*
X121402928Y-34313880D01*
X121148928Y-34313880D01*
X121076357Y-34361500D01*
X121040071Y-34409119D01*
X121003785Y-34504357D01*
X121003785Y-34599595D01*
X121040071Y-34694833D01*
X121076357Y-34742452D01*
X121148928Y-34790071D01*
X121402928Y-34790071D01*
X120677214Y-34409119D02*
X120640928Y-34361500D01*
X120568357Y-34313880D01*
X120386928Y-34313880D01*
X120314357Y-34361500D01*
X120278071Y-34409119D01*
X120241785Y-34504357D01*
X120241785Y-34599595D01*
X120278071Y-34742452D01*
X120713500Y-35313880D01*
X120241785Y-35313880D01*
X118971785Y-34790071D02*
X118862928Y-34837690D01*
X118826642Y-34885309D01*
X118790357Y-34980547D01*
X118790357Y-35123404D01*
X118826642Y-35218642D01*
X118862928Y-35266261D01*
X118935500Y-35313880D01*
X119225785Y-35313880D01*
X119225785Y-34313880D01*
X118971785Y-34313880D01*
X118899214Y-34361500D01*
X118862928Y-34409119D01*
X118826642Y-34504357D01*
X118826642Y-34599595D01*
X118862928Y-34694833D01*
X118899214Y-34742452D01*
X118971785Y-34790071D01*
X119225785Y-34790071D01*
X118064642Y-35313880D02*
X118500071Y-35313880D01*
X118282357Y-35313880D02*
X118282357Y-34313880D01*
X118354928Y-34456738D01*
X118427500Y-34551976D01*
X118500071Y-34599595D01*
X117592928Y-34313880D02*
X117520357Y-34313880D01*
X117447785Y-34361500D01*
X117411500Y-34409119D01*
X117375214Y-34504357D01*
X117338928Y-34694833D01*
X117338928Y-34932928D01*
X117375214Y-35123404D01*
X117411500Y-35218642D01*
X117447785Y-35266261D01*
X117520357Y-35313880D01*
X117592928Y-35313880D01*
X117665500Y-35266261D01*
X117701785Y-35218642D01*
X117738071Y-35123404D01*
X117774357Y-34932928D01*
X117774357Y-34694833D01*
X117738071Y-34504357D01*
X117701785Y-34409119D01*
X117665500Y-34361500D01*
X117592928Y-34313880D01*
X116808119Y-34313880D02*
X116189071Y-34313880D01*
X116522404Y-34694833D01*
X116379547Y-34694833D01*
X116284309Y-34742452D01*
X116236690Y-34790071D01*
X116189071Y-34885309D01*
X116189071Y-35123404D01*
X116236690Y-35218642D01*
X116284309Y-35266261D01*
X116379547Y-35313880D01*
X116665261Y-35313880D01*
X116760500Y-35266261D01*
X116808119Y-35218642D01*
X115760500Y-35218642D02*
X115712880Y-35266261D01*
X115760500Y-35313880D01*
X115808119Y-35266261D01*
X115760500Y-35218642D01*
X115760500Y-35313880D01*
X115379547Y-34313880D02*
X114760500Y-34313880D01*
X115093833Y-34694833D01*
X114950976Y-34694833D01*
X114855738Y-34742452D01*
X114808119Y-34790071D01*
X114760500Y-34885309D01*
X114760500Y-35123404D01*
X114808119Y-35218642D01*
X114855738Y-35266261D01*
X114950976Y-35313880D01*
X115236690Y-35313880D01*
X115331928Y-35266261D01*
X115379547Y-35218642D01*
X112958595Y-34361500D02*
X113053833Y-34313880D01*
X113196690Y-34313880D01*
X113339547Y-34361500D01*
X113434785Y-34456738D01*
X113482404Y-34551976D01*
X113530023Y-34742452D01*
X113530023Y-34885309D01*
X113482404Y-35075785D01*
X113434785Y-35171023D01*
X113339547Y-35266261D01*
X113196690Y-35313880D01*
X113101452Y-35313880D01*
X112958595Y-35266261D01*
X112910976Y-35218642D01*
X112910976Y-34885309D01*
X113101452Y-34885309D01*
X110870976Y-34313880D02*
X111347166Y-34313880D01*
X111394785Y-34790071D01*
X111347166Y-34742452D01*
X111251928Y-34694833D01*
X111013833Y-34694833D01*
X110918595Y-34742452D01*
X110870976Y-34790071D01*
X110823357Y-34885309D01*
X110823357Y-35123404D01*
X110870976Y-35218642D01*
X110918595Y-35266261D01*
X111013833Y-35313880D01*
X111251928Y-35313880D01*
X111347166Y-35266261D01*
X111394785Y-35218642D01*
X110537642Y-34313880D02*
X110204309Y-35313880D01*
X109870976Y-34313880D01*
M02*
