G04 #@! TF.GenerationSoftware,KiCad,Pcbnew,(5.1.4-0-10_14)*
G04 #@! TF.CreationDate,2020-04-04T17:45:35+02:00*
G04 #@! TF.ProjectId,Untitled,556e7469-746c-4656-942e-6b696361645f,rev?*
G04 #@! TF.SameCoordinates,Original*
G04 #@! TF.FileFunction,Soldermask,Bot*
G04 #@! TF.FilePolarity,Negative*
%FSLAX46Y46*%
G04 Gerber Fmt 4.6, Leading zero omitted, Abs format (unit mm)*
G04 Created by KiCad (PCBNEW (5.1.4-0-10_14)) date 2020-04-04 17:45:35*
%MOMM*%
%LPD*%
G04 APERTURE LIST*
%ADD10C,0.100000*%
G04 APERTURE END LIST*
D10*
G36*
X178002500Y-39826500D02*
G01*
X176200500Y-39826500D01*
X176200500Y-38024500D01*
X178002500Y-38024500D01*
X178002500Y-39826500D01*
X178002500Y-39826500D01*
G37*
G36*
X174671942Y-38031018D02*
G01*
X174738127Y-38037537D01*
X174907966Y-38089057D01*
X175064491Y-38172722D01*
X175100229Y-38202052D01*
X175201686Y-38285314D01*
X175284948Y-38386771D01*
X175314278Y-38422509D01*
X175397943Y-38579034D01*
X175449463Y-38748873D01*
X175466859Y-38925500D01*
X175449463Y-39102127D01*
X175397943Y-39271966D01*
X175314278Y-39428491D01*
X175284948Y-39464229D01*
X175201686Y-39565686D01*
X175129699Y-39624763D01*
X175064491Y-39678278D01*
X174907966Y-39761943D01*
X174738127Y-39813463D01*
X174671942Y-39819982D01*
X174605760Y-39826500D01*
X174517240Y-39826500D01*
X174451058Y-39819982D01*
X174384873Y-39813463D01*
X174215034Y-39761943D01*
X174058509Y-39678278D01*
X173993301Y-39624763D01*
X173921314Y-39565686D01*
X173838052Y-39464229D01*
X173808722Y-39428491D01*
X173725057Y-39271966D01*
X173673537Y-39102127D01*
X173656141Y-38925500D01*
X173673537Y-38748873D01*
X173725057Y-38579034D01*
X173808722Y-38422509D01*
X173838052Y-38386771D01*
X173921314Y-38285314D01*
X174022771Y-38202052D01*
X174058509Y-38172722D01*
X174215034Y-38089057D01*
X174384873Y-38037537D01*
X174451057Y-38031019D01*
X174517240Y-38024500D01*
X174605760Y-38024500D01*
X174671942Y-38031018D01*
X174671942Y-38031018D01*
G37*
G36*
X172131942Y-38031018D02*
G01*
X172198127Y-38037537D01*
X172367966Y-38089057D01*
X172524491Y-38172722D01*
X172560229Y-38202052D01*
X172661686Y-38285314D01*
X172744948Y-38386771D01*
X172774278Y-38422509D01*
X172857943Y-38579034D01*
X172909463Y-38748873D01*
X172926859Y-38925500D01*
X172909463Y-39102127D01*
X172857943Y-39271966D01*
X172774278Y-39428491D01*
X172744948Y-39464229D01*
X172661686Y-39565686D01*
X172589699Y-39624763D01*
X172524491Y-39678278D01*
X172367966Y-39761943D01*
X172198127Y-39813463D01*
X172131942Y-39819982D01*
X172065760Y-39826500D01*
X171977240Y-39826500D01*
X171911058Y-39819982D01*
X171844873Y-39813463D01*
X171675034Y-39761943D01*
X171518509Y-39678278D01*
X171453301Y-39624763D01*
X171381314Y-39565686D01*
X171298052Y-39464229D01*
X171268722Y-39428491D01*
X171185057Y-39271966D01*
X171133537Y-39102127D01*
X171116141Y-38925500D01*
X171133537Y-38748873D01*
X171185057Y-38579034D01*
X171268722Y-38422509D01*
X171298052Y-38386771D01*
X171381314Y-38285314D01*
X171482771Y-38202052D01*
X171518509Y-38172722D01*
X171675034Y-38089057D01*
X171844873Y-38037537D01*
X171911057Y-38031019D01*
X171977240Y-38024500D01*
X172065760Y-38024500D01*
X172131942Y-38031018D01*
X172131942Y-38031018D01*
G37*
G36*
X169591942Y-38031018D02*
G01*
X169658127Y-38037537D01*
X169827966Y-38089057D01*
X169984491Y-38172722D01*
X170020229Y-38202052D01*
X170121686Y-38285314D01*
X170204948Y-38386771D01*
X170234278Y-38422509D01*
X170317943Y-38579034D01*
X170369463Y-38748873D01*
X170386859Y-38925500D01*
X170369463Y-39102127D01*
X170317943Y-39271966D01*
X170234278Y-39428491D01*
X170204948Y-39464229D01*
X170121686Y-39565686D01*
X170049699Y-39624763D01*
X169984491Y-39678278D01*
X169827966Y-39761943D01*
X169658127Y-39813463D01*
X169591942Y-39819982D01*
X169525760Y-39826500D01*
X169437240Y-39826500D01*
X169371058Y-39819982D01*
X169304873Y-39813463D01*
X169135034Y-39761943D01*
X168978509Y-39678278D01*
X168913301Y-39624763D01*
X168841314Y-39565686D01*
X168758052Y-39464229D01*
X168728722Y-39428491D01*
X168645057Y-39271966D01*
X168593537Y-39102127D01*
X168576141Y-38925500D01*
X168593537Y-38748873D01*
X168645057Y-38579034D01*
X168728722Y-38422509D01*
X168758052Y-38386771D01*
X168841314Y-38285314D01*
X168942771Y-38202052D01*
X168978509Y-38172722D01*
X169135034Y-38089057D01*
X169304873Y-38037537D01*
X169371057Y-38031019D01*
X169437240Y-38024500D01*
X169525760Y-38024500D01*
X169591942Y-38031018D01*
X169591942Y-38031018D01*
G37*
G36*
X167051942Y-38031018D02*
G01*
X167118127Y-38037537D01*
X167287966Y-38089057D01*
X167444491Y-38172722D01*
X167480229Y-38202052D01*
X167581686Y-38285314D01*
X167664948Y-38386771D01*
X167694278Y-38422509D01*
X167777943Y-38579034D01*
X167829463Y-38748873D01*
X167846859Y-38925500D01*
X167829463Y-39102127D01*
X167777943Y-39271966D01*
X167694278Y-39428491D01*
X167664948Y-39464229D01*
X167581686Y-39565686D01*
X167509699Y-39624763D01*
X167444491Y-39678278D01*
X167287966Y-39761943D01*
X167118127Y-39813463D01*
X167051942Y-39819982D01*
X166985760Y-39826500D01*
X166897240Y-39826500D01*
X166831058Y-39819982D01*
X166764873Y-39813463D01*
X166595034Y-39761943D01*
X166438509Y-39678278D01*
X166373301Y-39624763D01*
X166301314Y-39565686D01*
X166218052Y-39464229D01*
X166188722Y-39428491D01*
X166105057Y-39271966D01*
X166053537Y-39102127D01*
X166036141Y-38925500D01*
X166053537Y-38748873D01*
X166105057Y-38579034D01*
X166188722Y-38422509D01*
X166218052Y-38386771D01*
X166301314Y-38285314D01*
X166402771Y-38202052D01*
X166438509Y-38172722D01*
X166595034Y-38089057D01*
X166764873Y-38037537D01*
X166831057Y-38031019D01*
X166897240Y-38024500D01*
X166985760Y-38024500D01*
X167051942Y-38031018D01*
X167051942Y-38031018D01*
G37*
G36*
X164511942Y-38031018D02*
G01*
X164578127Y-38037537D01*
X164747966Y-38089057D01*
X164904491Y-38172722D01*
X164940229Y-38202052D01*
X165041686Y-38285314D01*
X165124948Y-38386771D01*
X165154278Y-38422509D01*
X165237943Y-38579034D01*
X165289463Y-38748873D01*
X165306859Y-38925500D01*
X165289463Y-39102127D01*
X165237943Y-39271966D01*
X165154278Y-39428491D01*
X165124948Y-39464229D01*
X165041686Y-39565686D01*
X164969699Y-39624763D01*
X164904491Y-39678278D01*
X164747966Y-39761943D01*
X164578127Y-39813463D01*
X164511942Y-39819982D01*
X164445760Y-39826500D01*
X164357240Y-39826500D01*
X164291058Y-39819982D01*
X164224873Y-39813463D01*
X164055034Y-39761943D01*
X163898509Y-39678278D01*
X163833301Y-39624763D01*
X163761314Y-39565686D01*
X163678052Y-39464229D01*
X163648722Y-39428491D01*
X163565057Y-39271966D01*
X163513537Y-39102127D01*
X163496141Y-38925500D01*
X163513537Y-38748873D01*
X163565057Y-38579034D01*
X163648722Y-38422509D01*
X163678052Y-38386771D01*
X163761314Y-38285314D01*
X163862771Y-38202052D01*
X163898509Y-38172722D01*
X164055034Y-38089057D01*
X164224873Y-38037537D01*
X164291057Y-38031019D01*
X164357240Y-38024500D01*
X164445760Y-38024500D01*
X164511942Y-38031018D01*
X164511942Y-38031018D01*
G37*
G36*
X161971942Y-38031018D02*
G01*
X162038127Y-38037537D01*
X162207966Y-38089057D01*
X162364491Y-38172722D01*
X162400229Y-38202052D01*
X162501686Y-38285314D01*
X162584948Y-38386771D01*
X162614278Y-38422509D01*
X162697943Y-38579034D01*
X162749463Y-38748873D01*
X162766859Y-38925500D01*
X162749463Y-39102127D01*
X162697943Y-39271966D01*
X162614278Y-39428491D01*
X162584948Y-39464229D01*
X162501686Y-39565686D01*
X162429699Y-39624763D01*
X162364491Y-39678278D01*
X162207966Y-39761943D01*
X162038127Y-39813463D01*
X161971942Y-39819982D01*
X161905760Y-39826500D01*
X161817240Y-39826500D01*
X161751058Y-39819982D01*
X161684873Y-39813463D01*
X161515034Y-39761943D01*
X161358509Y-39678278D01*
X161293301Y-39624763D01*
X161221314Y-39565686D01*
X161138052Y-39464229D01*
X161108722Y-39428491D01*
X161025057Y-39271966D01*
X160973537Y-39102127D01*
X160956141Y-38925500D01*
X160973537Y-38748873D01*
X161025057Y-38579034D01*
X161108722Y-38422509D01*
X161138052Y-38386771D01*
X161221314Y-38285314D01*
X161322771Y-38202052D01*
X161358509Y-38172722D01*
X161515034Y-38089057D01*
X161684873Y-38037537D01*
X161751057Y-38031019D01*
X161817240Y-38024500D01*
X161905760Y-38024500D01*
X161971942Y-38031018D01*
X161971942Y-38031018D01*
G37*
G36*
X251198525Y-39689321D02*
G01*
X249396525Y-39689321D01*
X249396525Y-37887321D01*
X251198525Y-37887321D01*
X251198525Y-39689321D01*
X251198525Y-39689321D01*
G37*
G36*
X247867968Y-37893840D02*
G01*
X247934152Y-37900358D01*
X248103991Y-37951878D01*
X248260516Y-38035543D01*
X248296254Y-38064873D01*
X248397711Y-38148135D01*
X248480973Y-38249592D01*
X248510303Y-38285330D01*
X248593968Y-38441855D01*
X248645488Y-38611694D01*
X248662884Y-38788321D01*
X248645488Y-38964948D01*
X248593968Y-39134787D01*
X248510303Y-39291312D01*
X248480973Y-39327050D01*
X248397711Y-39428507D01*
X248296254Y-39511769D01*
X248260516Y-39541099D01*
X248103991Y-39624764D01*
X247934152Y-39676284D01*
X247867968Y-39682802D01*
X247801785Y-39689321D01*
X247713265Y-39689321D01*
X247647082Y-39682802D01*
X247580898Y-39676284D01*
X247411059Y-39624764D01*
X247254534Y-39541099D01*
X247218796Y-39511769D01*
X247117339Y-39428507D01*
X247034077Y-39327050D01*
X247004747Y-39291312D01*
X246921082Y-39134787D01*
X246869562Y-38964948D01*
X246852166Y-38788321D01*
X246869562Y-38611694D01*
X246921082Y-38441855D01*
X247004747Y-38285330D01*
X247034077Y-38249592D01*
X247117339Y-38148135D01*
X247218796Y-38064873D01*
X247254534Y-38035543D01*
X247411059Y-37951878D01*
X247580898Y-37900358D01*
X247647082Y-37893840D01*
X247713265Y-37887321D01*
X247801785Y-37887321D01*
X247867968Y-37893840D01*
X247867968Y-37893840D01*
G37*
G36*
X245327968Y-37893840D02*
G01*
X245394152Y-37900358D01*
X245563991Y-37951878D01*
X245720516Y-38035543D01*
X245756254Y-38064873D01*
X245857711Y-38148135D01*
X245940973Y-38249592D01*
X245970303Y-38285330D01*
X246053968Y-38441855D01*
X246105488Y-38611694D01*
X246122884Y-38788321D01*
X246105488Y-38964948D01*
X246053968Y-39134787D01*
X245970303Y-39291312D01*
X245940973Y-39327050D01*
X245857711Y-39428507D01*
X245756254Y-39511769D01*
X245720516Y-39541099D01*
X245563991Y-39624764D01*
X245394152Y-39676284D01*
X245327968Y-39682802D01*
X245261785Y-39689321D01*
X245173265Y-39689321D01*
X245107082Y-39682802D01*
X245040898Y-39676284D01*
X244871059Y-39624764D01*
X244714534Y-39541099D01*
X244678796Y-39511769D01*
X244577339Y-39428507D01*
X244494077Y-39327050D01*
X244464747Y-39291312D01*
X244381082Y-39134787D01*
X244329562Y-38964948D01*
X244312166Y-38788321D01*
X244329562Y-38611694D01*
X244381082Y-38441855D01*
X244464747Y-38285330D01*
X244494077Y-38249592D01*
X244577339Y-38148135D01*
X244678796Y-38064873D01*
X244714534Y-38035543D01*
X244871059Y-37951878D01*
X245040898Y-37900358D01*
X245107082Y-37893840D01*
X245173265Y-37887321D01*
X245261785Y-37887321D01*
X245327968Y-37893840D01*
X245327968Y-37893840D01*
G37*
G36*
X242787968Y-37893840D02*
G01*
X242854152Y-37900358D01*
X243023991Y-37951878D01*
X243180516Y-38035543D01*
X243216254Y-38064873D01*
X243317711Y-38148135D01*
X243400973Y-38249592D01*
X243430303Y-38285330D01*
X243513968Y-38441855D01*
X243565488Y-38611694D01*
X243582884Y-38788321D01*
X243565488Y-38964948D01*
X243513968Y-39134787D01*
X243430303Y-39291312D01*
X243400973Y-39327050D01*
X243317711Y-39428507D01*
X243216254Y-39511769D01*
X243180516Y-39541099D01*
X243023991Y-39624764D01*
X242854152Y-39676284D01*
X242787968Y-39682802D01*
X242721785Y-39689321D01*
X242633265Y-39689321D01*
X242567082Y-39682802D01*
X242500898Y-39676284D01*
X242331059Y-39624764D01*
X242174534Y-39541099D01*
X242138796Y-39511769D01*
X242037339Y-39428507D01*
X241954077Y-39327050D01*
X241924747Y-39291312D01*
X241841082Y-39134787D01*
X241789562Y-38964948D01*
X241772166Y-38788321D01*
X241789562Y-38611694D01*
X241841082Y-38441855D01*
X241924747Y-38285330D01*
X241954077Y-38249592D01*
X242037339Y-38148135D01*
X242138796Y-38064873D01*
X242174534Y-38035543D01*
X242331059Y-37951878D01*
X242500898Y-37900358D01*
X242567082Y-37893840D01*
X242633265Y-37887321D01*
X242721785Y-37887321D01*
X242787968Y-37893840D01*
X242787968Y-37893840D01*
G37*
G36*
X240247968Y-37893840D02*
G01*
X240314152Y-37900358D01*
X240483991Y-37951878D01*
X240640516Y-38035543D01*
X240676254Y-38064873D01*
X240777711Y-38148135D01*
X240860973Y-38249592D01*
X240890303Y-38285330D01*
X240973968Y-38441855D01*
X241025488Y-38611694D01*
X241042884Y-38788321D01*
X241025488Y-38964948D01*
X240973968Y-39134787D01*
X240890303Y-39291312D01*
X240860973Y-39327050D01*
X240777711Y-39428507D01*
X240676254Y-39511769D01*
X240640516Y-39541099D01*
X240483991Y-39624764D01*
X240314152Y-39676284D01*
X240247968Y-39682802D01*
X240181785Y-39689321D01*
X240093265Y-39689321D01*
X240027082Y-39682802D01*
X239960898Y-39676284D01*
X239791059Y-39624764D01*
X239634534Y-39541099D01*
X239598796Y-39511769D01*
X239497339Y-39428507D01*
X239414077Y-39327050D01*
X239384747Y-39291312D01*
X239301082Y-39134787D01*
X239249562Y-38964948D01*
X239232166Y-38788321D01*
X239249562Y-38611694D01*
X239301082Y-38441855D01*
X239384747Y-38285330D01*
X239414077Y-38249592D01*
X239497339Y-38148135D01*
X239598796Y-38064873D01*
X239634534Y-38035543D01*
X239791059Y-37951878D01*
X239960898Y-37900358D01*
X240027082Y-37893840D01*
X240093265Y-37887321D01*
X240181785Y-37887321D01*
X240247968Y-37893840D01*
X240247968Y-37893840D01*
G37*
G36*
X237707968Y-37893840D02*
G01*
X237774152Y-37900358D01*
X237943991Y-37951878D01*
X238100516Y-38035543D01*
X238136254Y-38064873D01*
X238237711Y-38148135D01*
X238320973Y-38249592D01*
X238350303Y-38285330D01*
X238433968Y-38441855D01*
X238485488Y-38611694D01*
X238502884Y-38788321D01*
X238485488Y-38964948D01*
X238433968Y-39134787D01*
X238350303Y-39291312D01*
X238320973Y-39327050D01*
X238237711Y-39428507D01*
X238136254Y-39511769D01*
X238100516Y-39541099D01*
X237943991Y-39624764D01*
X237774152Y-39676284D01*
X237707968Y-39682802D01*
X237641785Y-39689321D01*
X237553265Y-39689321D01*
X237487082Y-39682802D01*
X237420898Y-39676284D01*
X237251059Y-39624764D01*
X237094534Y-39541099D01*
X237058796Y-39511769D01*
X236957339Y-39428507D01*
X236874077Y-39327050D01*
X236844747Y-39291312D01*
X236761082Y-39134787D01*
X236709562Y-38964948D01*
X236692166Y-38788321D01*
X236709562Y-38611694D01*
X236761082Y-38441855D01*
X236844747Y-38285330D01*
X236874077Y-38249592D01*
X236957339Y-38148135D01*
X237058796Y-38064873D01*
X237094534Y-38035543D01*
X237251059Y-37951878D01*
X237420898Y-37900358D01*
X237487082Y-37893840D01*
X237553265Y-37887321D01*
X237641785Y-37887321D01*
X237707968Y-37893840D01*
X237707968Y-37893840D01*
G37*
G36*
X235167968Y-37893840D02*
G01*
X235234152Y-37900358D01*
X235403991Y-37951878D01*
X235560516Y-38035543D01*
X235596254Y-38064873D01*
X235697711Y-38148135D01*
X235780973Y-38249592D01*
X235810303Y-38285330D01*
X235893968Y-38441855D01*
X235945488Y-38611694D01*
X235962884Y-38788321D01*
X235945488Y-38964948D01*
X235893968Y-39134787D01*
X235810303Y-39291312D01*
X235780973Y-39327050D01*
X235697711Y-39428507D01*
X235596254Y-39511769D01*
X235560516Y-39541099D01*
X235403991Y-39624764D01*
X235234152Y-39676284D01*
X235167968Y-39682802D01*
X235101785Y-39689321D01*
X235013265Y-39689321D01*
X234947082Y-39682802D01*
X234880898Y-39676284D01*
X234711059Y-39624764D01*
X234554534Y-39541099D01*
X234518796Y-39511769D01*
X234417339Y-39428507D01*
X234334077Y-39327050D01*
X234304747Y-39291312D01*
X234221082Y-39134787D01*
X234169562Y-38964948D01*
X234152166Y-38788321D01*
X234169562Y-38611694D01*
X234221082Y-38441855D01*
X234304747Y-38285330D01*
X234334077Y-38249592D01*
X234417339Y-38148135D01*
X234518796Y-38064873D01*
X234554534Y-38035543D01*
X234711059Y-37951878D01*
X234880898Y-37900358D01*
X234947082Y-37893840D01*
X235013265Y-37887321D01*
X235101785Y-37887321D01*
X235167968Y-37893840D01*
X235167968Y-37893840D01*
G37*
G36*
X215198525Y-39689321D02*
G01*
X213396525Y-39689321D01*
X213396525Y-37887321D01*
X215198525Y-37887321D01*
X215198525Y-39689321D01*
X215198525Y-39689321D01*
G37*
G36*
X211867968Y-37893840D02*
G01*
X211934152Y-37900358D01*
X212103991Y-37951878D01*
X212260516Y-38035543D01*
X212296254Y-38064873D01*
X212397711Y-38148135D01*
X212480973Y-38249592D01*
X212510303Y-38285330D01*
X212593968Y-38441855D01*
X212645488Y-38611694D01*
X212662884Y-38788321D01*
X212645488Y-38964948D01*
X212593968Y-39134787D01*
X212510303Y-39291312D01*
X212480973Y-39327050D01*
X212397711Y-39428507D01*
X212296254Y-39511769D01*
X212260516Y-39541099D01*
X212103991Y-39624764D01*
X211934152Y-39676284D01*
X211867968Y-39682802D01*
X211801785Y-39689321D01*
X211713265Y-39689321D01*
X211647082Y-39682802D01*
X211580898Y-39676284D01*
X211411059Y-39624764D01*
X211254534Y-39541099D01*
X211218796Y-39511769D01*
X211117339Y-39428507D01*
X211034077Y-39327050D01*
X211004747Y-39291312D01*
X210921082Y-39134787D01*
X210869562Y-38964948D01*
X210852166Y-38788321D01*
X210869562Y-38611694D01*
X210921082Y-38441855D01*
X211004747Y-38285330D01*
X211034077Y-38249592D01*
X211117339Y-38148135D01*
X211218796Y-38064873D01*
X211254534Y-38035543D01*
X211411059Y-37951878D01*
X211580898Y-37900358D01*
X211647082Y-37893840D01*
X211713265Y-37887321D01*
X211801785Y-37887321D01*
X211867968Y-37893840D01*
X211867968Y-37893840D01*
G37*
G36*
X209327968Y-37893840D02*
G01*
X209394152Y-37900358D01*
X209563991Y-37951878D01*
X209720516Y-38035543D01*
X209756254Y-38064873D01*
X209857711Y-38148135D01*
X209940973Y-38249592D01*
X209970303Y-38285330D01*
X210053968Y-38441855D01*
X210105488Y-38611694D01*
X210122884Y-38788321D01*
X210105488Y-38964948D01*
X210053968Y-39134787D01*
X209970303Y-39291312D01*
X209940973Y-39327050D01*
X209857711Y-39428507D01*
X209756254Y-39511769D01*
X209720516Y-39541099D01*
X209563991Y-39624764D01*
X209394152Y-39676284D01*
X209327968Y-39682802D01*
X209261785Y-39689321D01*
X209173265Y-39689321D01*
X209107082Y-39682802D01*
X209040898Y-39676284D01*
X208871059Y-39624764D01*
X208714534Y-39541099D01*
X208678796Y-39511769D01*
X208577339Y-39428507D01*
X208494077Y-39327050D01*
X208464747Y-39291312D01*
X208381082Y-39134787D01*
X208329562Y-38964948D01*
X208312166Y-38788321D01*
X208329562Y-38611694D01*
X208381082Y-38441855D01*
X208464747Y-38285330D01*
X208494077Y-38249592D01*
X208577339Y-38148135D01*
X208678796Y-38064873D01*
X208714534Y-38035543D01*
X208871059Y-37951878D01*
X209040898Y-37900358D01*
X209107082Y-37893840D01*
X209173265Y-37887321D01*
X209261785Y-37887321D01*
X209327968Y-37893840D01*
X209327968Y-37893840D01*
G37*
G36*
X206787968Y-37893840D02*
G01*
X206854152Y-37900358D01*
X207023991Y-37951878D01*
X207180516Y-38035543D01*
X207216254Y-38064873D01*
X207317711Y-38148135D01*
X207400973Y-38249592D01*
X207430303Y-38285330D01*
X207513968Y-38441855D01*
X207565488Y-38611694D01*
X207582884Y-38788321D01*
X207565488Y-38964948D01*
X207513968Y-39134787D01*
X207430303Y-39291312D01*
X207400973Y-39327050D01*
X207317711Y-39428507D01*
X207216254Y-39511769D01*
X207180516Y-39541099D01*
X207023991Y-39624764D01*
X206854152Y-39676284D01*
X206787968Y-39682802D01*
X206721785Y-39689321D01*
X206633265Y-39689321D01*
X206567082Y-39682802D01*
X206500898Y-39676284D01*
X206331059Y-39624764D01*
X206174534Y-39541099D01*
X206138796Y-39511769D01*
X206037339Y-39428507D01*
X205954077Y-39327050D01*
X205924747Y-39291312D01*
X205841082Y-39134787D01*
X205789562Y-38964948D01*
X205772166Y-38788321D01*
X205789562Y-38611694D01*
X205841082Y-38441855D01*
X205924747Y-38285330D01*
X205954077Y-38249592D01*
X206037339Y-38148135D01*
X206138796Y-38064873D01*
X206174534Y-38035543D01*
X206331059Y-37951878D01*
X206500898Y-37900358D01*
X206567082Y-37893840D01*
X206633265Y-37887321D01*
X206721785Y-37887321D01*
X206787968Y-37893840D01*
X206787968Y-37893840D01*
G37*
G36*
X204247968Y-37893840D02*
G01*
X204314152Y-37900358D01*
X204483991Y-37951878D01*
X204640516Y-38035543D01*
X204676254Y-38064873D01*
X204777711Y-38148135D01*
X204860973Y-38249592D01*
X204890303Y-38285330D01*
X204973968Y-38441855D01*
X205025488Y-38611694D01*
X205042884Y-38788321D01*
X205025488Y-38964948D01*
X204973968Y-39134787D01*
X204890303Y-39291312D01*
X204860973Y-39327050D01*
X204777711Y-39428507D01*
X204676254Y-39511769D01*
X204640516Y-39541099D01*
X204483991Y-39624764D01*
X204314152Y-39676284D01*
X204247968Y-39682802D01*
X204181785Y-39689321D01*
X204093265Y-39689321D01*
X204027082Y-39682802D01*
X203960898Y-39676284D01*
X203791059Y-39624764D01*
X203634534Y-39541099D01*
X203598796Y-39511769D01*
X203497339Y-39428507D01*
X203414077Y-39327050D01*
X203384747Y-39291312D01*
X203301082Y-39134787D01*
X203249562Y-38964948D01*
X203232166Y-38788321D01*
X203249562Y-38611694D01*
X203301082Y-38441855D01*
X203384747Y-38285330D01*
X203414077Y-38249592D01*
X203497339Y-38148135D01*
X203598796Y-38064873D01*
X203634534Y-38035543D01*
X203791059Y-37951878D01*
X203960898Y-37900358D01*
X204027082Y-37893840D01*
X204093265Y-37887321D01*
X204181785Y-37887321D01*
X204247968Y-37893840D01*
X204247968Y-37893840D01*
G37*
G36*
X201707968Y-37893840D02*
G01*
X201774152Y-37900358D01*
X201943991Y-37951878D01*
X202100516Y-38035543D01*
X202136254Y-38064873D01*
X202237711Y-38148135D01*
X202320973Y-38249592D01*
X202350303Y-38285330D01*
X202433968Y-38441855D01*
X202485488Y-38611694D01*
X202502884Y-38788321D01*
X202485488Y-38964948D01*
X202433968Y-39134787D01*
X202350303Y-39291312D01*
X202320973Y-39327050D01*
X202237711Y-39428507D01*
X202136254Y-39511769D01*
X202100516Y-39541099D01*
X201943991Y-39624764D01*
X201774152Y-39676284D01*
X201707968Y-39682802D01*
X201641785Y-39689321D01*
X201553265Y-39689321D01*
X201487082Y-39682802D01*
X201420898Y-39676284D01*
X201251059Y-39624764D01*
X201094534Y-39541099D01*
X201058796Y-39511769D01*
X200957339Y-39428507D01*
X200874077Y-39327050D01*
X200844747Y-39291312D01*
X200761082Y-39134787D01*
X200709562Y-38964948D01*
X200692166Y-38788321D01*
X200709562Y-38611694D01*
X200761082Y-38441855D01*
X200844747Y-38285330D01*
X200874077Y-38249592D01*
X200957339Y-38148135D01*
X201058796Y-38064873D01*
X201094534Y-38035543D01*
X201251059Y-37951878D01*
X201420898Y-37900358D01*
X201487082Y-37893840D01*
X201553265Y-37887321D01*
X201641785Y-37887321D01*
X201707968Y-37893840D01*
X201707968Y-37893840D01*
G37*
G36*
X199167968Y-37893840D02*
G01*
X199234152Y-37900358D01*
X199403991Y-37951878D01*
X199560516Y-38035543D01*
X199596254Y-38064873D01*
X199697711Y-38148135D01*
X199780973Y-38249592D01*
X199810303Y-38285330D01*
X199893968Y-38441855D01*
X199945488Y-38611694D01*
X199962884Y-38788321D01*
X199945488Y-38964948D01*
X199893968Y-39134787D01*
X199810303Y-39291312D01*
X199780973Y-39327050D01*
X199697711Y-39428507D01*
X199596254Y-39511769D01*
X199560516Y-39541099D01*
X199403991Y-39624764D01*
X199234152Y-39676284D01*
X199167968Y-39682802D01*
X199101785Y-39689321D01*
X199013265Y-39689321D01*
X198947082Y-39682802D01*
X198880898Y-39676284D01*
X198711059Y-39624764D01*
X198554534Y-39541099D01*
X198518796Y-39511769D01*
X198417339Y-39428507D01*
X198334077Y-39327050D01*
X198304747Y-39291312D01*
X198221082Y-39134787D01*
X198169562Y-38964948D01*
X198152166Y-38788321D01*
X198169562Y-38611694D01*
X198221082Y-38441855D01*
X198304747Y-38285330D01*
X198334077Y-38249592D01*
X198417339Y-38148135D01*
X198518796Y-38064873D01*
X198554534Y-38035543D01*
X198711059Y-37951878D01*
X198880898Y-37900358D01*
X198947082Y-37893840D01*
X199013265Y-37887321D01*
X199101785Y-37887321D01*
X199167968Y-37893840D01*
X199167968Y-37893840D01*
G37*
G36*
X143198525Y-39689321D02*
G01*
X141396525Y-39689321D01*
X141396525Y-37887321D01*
X143198525Y-37887321D01*
X143198525Y-39689321D01*
X143198525Y-39689321D01*
G37*
G36*
X139867968Y-37893840D02*
G01*
X139934152Y-37900358D01*
X140103991Y-37951878D01*
X140260516Y-38035543D01*
X140296254Y-38064873D01*
X140397711Y-38148135D01*
X140480973Y-38249592D01*
X140510303Y-38285330D01*
X140593968Y-38441855D01*
X140645488Y-38611694D01*
X140662884Y-38788321D01*
X140645488Y-38964948D01*
X140593968Y-39134787D01*
X140510303Y-39291312D01*
X140480973Y-39327050D01*
X140397711Y-39428507D01*
X140296254Y-39511769D01*
X140260516Y-39541099D01*
X140103991Y-39624764D01*
X139934152Y-39676284D01*
X139867968Y-39682802D01*
X139801785Y-39689321D01*
X139713265Y-39689321D01*
X139647082Y-39682802D01*
X139580898Y-39676284D01*
X139411059Y-39624764D01*
X139254534Y-39541099D01*
X139218796Y-39511769D01*
X139117339Y-39428507D01*
X139034077Y-39327050D01*
X139004747Y-39291312D01*
X138921082Y-39134787D01*
X138869562Y-38964948D01*
X138852166Y-38788321D01*
X138869562Y-38611694D01*
X138921082Y-38441855D01*
X139004747Y-38285330D01*
X139034077Y-38249592D01*
X139117339Y-38148135D01*
X139218796Y-38064873D01*
X139254534Y-38035543D01*
X139411059Y-37951878D01*
X139580898Y-37900358D01*
X139647082Y-37893840D01*
X139713265Y-37887321D01*
X139801785Y-37887321D01*
X139867968Y-37893840D01*
X139867968Y-37893840D01*
G37*
G36*
X137327968Y-37893840D02*
G01*
X137394152Y-37900358D01*
X137563991Y-37951878D01*
X137720516Y-38035543D01*
X137756254Y-38064873D01*
X137857711Y-38148135D01*
X137940973Y-38249592D01*
X137970303Y-38285330D01*
X138053968Y-38441855D01*
X138105488Y-38611694D01*
X138122884Y-38788321D01*
X138105488Y-38964948D01*
X138053968Y-39134787D01*
X137970303Y-39291312D01*
X137940973Y-39327050D01*
X137857711Y-39428507D01*
X137756254Y-39511769D01*
X137720516Y-39541099D01*
X137563991Y-39624764D01*
X137394152Y-39676284D01*
X137327968Y-39682802D01*
X137261785Y-39689321D01*
X137173265Y-39689321D01*
X137107082Y-39682802D01*
X137040898Y-39676284D01*
X136871059Y-39624764D01*
X136714534Y-39541099D01*
X136678796Y-39511769D01*
X136577339Y-39428507D01*
X136494077Y-39327050D01*
X136464747Y-39291312D01*
X136381082Y-39134787D01*
X136329562Y-38964948D01*
X136312166Y-38788321D01*
X136329562Y-38611694D01*
X136381082Y-38441855D01*
X136464747Y-38285330D01*
X136494077Y-38249592D01*
X136577339Y-38148135D01*
X136678796Y-38064873D01*
X136714534Y-38035543D01*
X136871059Y-37951878D01*
X137040898Y-37900358D01*
X137107082Y-37893840D01*
X137173265Y-37887321D01*
X137261785Y-37887321D01*
X137327968Y-37893840D01*
X137327968Y-37893840D01*
G37*
G36*
X134787968Y-37893840D02*
G01*
X134854152Y-37900358D01*
X135023991Y-37951878D01*
X135180516Y-38035543D01*
X135216254Y-38064873D01*
X135317711Y-38148135D01*
X135400973Y-38249592D01*
X135430303Y-38285330D01*
X135513968Y-38441855D01*
X135565488Y-38611694D01*
X135582884Y-38788321D01*
X135565488Y-38964948D01*
X135513968Y-39134787D01*
X135430303Y-39291312D01*
X135400973Y-39327050D01*
X135317711Y-39428507D01*
X135216254Y-39511769D01*
X135180516Y-39541099D01*
X135023991Y-39624764D01*
X134854152Y-39676284D01*
X134787968Y-39682802D01*
X134721785Y-39689321D01*
X134633265Y-39689321D01*
X134567082Y-39682802D01*
X134500898Y-39676284D01*
X134331059Y-39624764D01*
X134174534Y-39541099D01*
X134138796Y-39511769D01*
X134037339Y-39428507D01*
X133954077Y-39327050D01*
X133924747Y-39291312D01*
X133841082Y-39134787D01*
X133789562Y-38964948D01*
X133772166Y-38788321D01*
X133789562Y-38611694D01*
X133841082Y-38441855D01*
X133924747Y-38285330D01*
X133954077Y-38249592D01*
X134037339Y-38148135D01*
X134138796Y-38064873D01*
X134174534Y-38035543D01*
X134331059Y-37951878D01*
X134500898Y-37900358D01*
X134567082Y-37893840D01*
X134633265Y-37887321D01*
X134721785Y-37887321D01*
X134787968Y-37893840D01*
X134787968Y-37893840D01*
G37*
G36*
X132247968Y-37893840D02*
G01*
X132314152Y-37900358D01*
X132483991Y-37951878D01*
X132640516Y-38035543D01*
X132676254Y-38064873D01*
X132777711Y-38148135D01*
X132860973Y-38249592D01*
X132890303Y-38285330D01*
X132973968Y-38441855D01*
X133025488Y-38611694D01*
X133042884Y-38788321D01*
X133025488Y-38964948D01*
X132973968Y-39134787D01*
X132890303Y-39291312D01*
X132860973Y-39327050D01*
X132777711Y-39428507D01*
X132676254Y-39511769D01*
X132640516Y-39541099D01*
X132483991Y-39624764D01*
X132314152Y-39676284D01*
X132247968Y-39682802D01*
X132181785Y-39689321D01*
X132093265Y-39689321D01*
X132027082Y-39682802D01*
X131960898Y-39676284D01*
X131791059Y-39624764D01*
X131634534Y-39541099D01*
X131598796Y-39511769D01*
X131497339Y-39428507D01*
X131414077Y-39327050D01*
X131384747Y-39291312D01*
X131301082Y-39134787D01*
X131249562Y-38964948D01*
X131232166Y-38788321D01*
X131249562Y-38611694D01*
X131301082Y-38441855D01*
X131384747Y-38285330D01*
X131414077Y-38249592D01*
X131497339Y-38148135D01*
X131598796Y-38064873D01*
X131634534Y-38035543D01*
X131791059Y-37951878D01*
X131960898Y-37900358D01*
X132027082Y-37893840D01*
X132093265Y-37887321D01*
X132181785Y-37887321D01*
X132247968Y-37893840D01*
X132247968Y-37893840D01*
G37*
G36*
X129707968Y-37893840D02*
G01*
X129774152Y-37900358D01*
X129943991Y-37951878D01*
X130100516Y-38035543D01*
X130136254Y-38064873D01*
X130237711Y-38148135D01*
X130320973Y-38249592D01*
X130350303Y-38285330D01*
X130433968Y-38441855D01*
X130485488Y-38611694D01*
X130502884Y-38788321D01*
X130485488Y-38964948D01*
X130433968Y-39134787D01*
X130350303Y-39291312D01*
X130320973Y-39327050D01*
X130237711Y-39428507D01*
X130136254Y-39511769D01*
X130100516Y-39541099D01*
X129943991Y-39624764D01*
X129774152Y-39676284D01*
X129707968Y-39682802D01*
X129641785Y-39689321D01*
X129553265Y-39689321D01*
X129487082Y-39682802D01*
X129420898Y-39676284D01*
X129251059Y-39624764D01*
X129094534Y-39541099D01*
X129058796Y-39511769D01*
X128957339Y-39428507D01*
X128874077Y-39327050D01*
X128844747Y-39291312D01*
X128761082Y-39134787D01*
X128709562Y-38964948D01*
X128692166Y-38788321D01*
X128709562Y-38611694D01*
X128761082Y-38441855D01*
X128844747Y-38285330D01*
X128874077Y-38249592D01*
X128957339Y-38148135D01*
X129058796Y-38064873D01*
X129094534Y-38035543D01*
X129251059Y-37951878D01*
X129420898Y-37900358D01*
X129487082Y-37893840D01*
X129553265Y-37887321D01*
X129641785Y-37887321D01*
X129707968Y-37893840D01*
X129707968Y-37893840D01*
G37*
G36*
X127167968Y-37893840D02*
G01*
X127234152Y-37900358D01*
X127403991Y-37951878D01*
X127560516Y-38035543D01*
X127596254Y-38064873D01*
X127697711Y-38148135D01*
X127780973Y-38249592D01*
X127810303Y-38285330D01*
X127893968Y-38441855D01*
X127945488Y-38611694D01*
X127962884Y-38788321D01*
X127945488Y-38964948D01*
X127893968Y-39134787D01*
X127810303Y-39291312D01*
X127780973Y-39327050D01*
X127697711Y-39428507D01*
X127596254Y-39511769D01*
X127560516Y-39541099D01*
X127403991Y-39624764D01*
X127234152Y-39676284D01*
X127167968Y-39682802D01*
X127101785Y-39689321D01*
X127013265Y-39689321D01*
X126947082Y-39682802D01*
X126880898Y-39676284D01*
X126711059Y-39624764D01*
X126554534Y-39541099D01*
X126518796Y-39511769D01*
X126417339Y-39428507D01*
X126334077Y-39327050D01*
X126304747Y-39291312D01*
X126221082Y-39134787D01*
X126169562Y-38964948D01*
X126152166Y-38788321D01*
X126169562Y-38611694D01*
X126221082Y-38441855D01*
X126304747Y-38285330D01*
X126334077Y-38249592D01*
X126417339Y-38148135D01*
X126518796Y-38064873D01*
X126554534Y-38035543D01*
X126711059Y-37951878D01*
X126880898Y-37900358D01*
X126947082Y-37893840D01*
X127013265Y-37887321D01*
X127101785Y-37887321D01*
X127167968Y-37893840D01*
X127167968Y-37893840D01*
G37*
G36*
X107198525Y-39689321D02*
G01*
X105396525Y-39689321D01*
X105396525Y-37887321D01*
X107198525Y-37887321D01*
X107198525Y-39689321D01*
X107198525Y-39689321D01*
G37*
G36*
X103867968Y-37893840D02*
G01*
X103934152Y-37900358D01*
X104103991Y-37951878D01*
X104260516Y-38035543D01*
X104296254Y-38064873D01*
X104397711Y-38148135D01*
X104480973Y-38249592D01*
X104510303Y-38285330D01*
X104593968Y-38441855D01*
X104645488Y-38611694D01*
X104662884Y-38788321D01*
X104645488Y-38964948D01*
X104593968Y-39134787D01*
X104510303Y-39291312D01*
X104480973Y-39327050D01*
X104397711Y-39428507D01*
X104296254Y-39511769D01*
X104260516Y-39541099D01*
X104103991Y-39624764D01*
X103934152Y-39676284D01*
X103867968Y-39682802D01*
X103801785Y-39689321D01*
X103713265Y-39689321D01*
X103647082Y-39682802D01*
X103580898Y-39676284D01*
X103411059Y-39624764D01*
X103254534Y-39541099D01*
X103218796Y-39511769D01*
X103117339Y-39428507D01*
X103034077Y-39327050D01*
X103004747Y-39291312D01*
X102921082Y-39134787D01*
X102869562Y-38964948D01*
X102852166Y-38788321D01*
X102869562Y-38611694D01*
X102921082Y-38441855D01*
X103004747Y-38285330D01*
X103034077Y-38249592D01*
X103117339Y-38148135D01*
X103218796Y-38064873D01*
X103254534Y-38035543D01*
X103411059Y-37951878D01*
X103580898Y-37900358D01*
X103647082Y-37893840D01*
X103713265Y-37887321D01*
X103801785Y-37887321D01*
X103867968Y-37893840D01*
X103867968Y-37893840D01*
G37*
G36*
X101327968Y-37893840D02*
G01*
X101394152Y-37900358D01*
X101563991Y-37951878D01*
X101720516Y-38035543D01*
X101756254Y-38064873D01*
X101857711Y-38148135D01*
X101940973Y-38249592D01*
X101970303Y-38285330D01*
X102053968Y-38441855D01*
X102105488Y-38611694D01*
X102122884Y-38788321D01*
X102105488Y-38964948D01*
X102053968Y-39134787D01*
X101970303Y-39291312D01*
X101940973Y-39327050D01*
X101857711Y-39428507D01*
X101756254Y-39511769D01*
X101720516Y-39541099D01*
X101563991Y-39624764D01*
X101394152Y-39676284D01*
X101327968Y-39682802D01*
X101261785Y-39689321D01*
X101173265Y-39689321D01*
X101107082Y-39682802D01*
X101040898Y-39676284D01*
X100871059Y-39624764D01*
X100714534Y-39541099D01*
X100678796Y-39511769D01*
X100577339Y-39428507D01*
X100494077Y-39327050D01*
X100464747Y-39291312D01*
X100381082Y-39134787D01*
X100329562Y-38964948D01*
X100312166Y-38788321D01*
X100329562Y-38611694D01*
X100381082Y-38441855D01*
X100464747Y-38285330D01*
X100494077Y-38249592D01*
X100577339Y-38148135D01*
X100678796Y-38064873D01*
X100714534Y-38035543D01*
X100871059Y-37951878D01*
X101040898Y-37900358D01*
X101107082Y-37893840D01*
X101173265Y-37887321D01*
X101261785Y-37887321D01*
X101327968Y-37893840D01*
X101327968Y-37893840D01*
G37*
G36*
X98787968Y-37893840D02*
G01*
X98854152Y-37900358D01*
X99023991Y-37951878D01*
X99180516Y-38035543D01*
X99216254Y-38064873D01*
X99317711Y-38148135D01*
X99400973Y-38249592D01*
X99430303Y-38285330D01*
X99513968Y-38441855D01*
X99565488Y-38611694D01*
X99582884Y-38788321D01*
X99565488Y-38964948D01*
X99513968Y-39134787D01*
X99430303Y-39291312D01*
X99400973Y-39327050D01*
X99317711Y-39428507D01*
X99216254Y-39511769D01*
X99180516Y-39541099D01*
X99023991Y-39624764D01*
X98854152Y-39676284D01*
X98787968Y-39682802D01*
X98721785Y-39689321D01*
X98633265Y-39689321D01*
X98567082Y-39682802D01*
X98500898Y-39676284D01*
X98331059Y-39624764D01*
X98174534Y-39541099D01*
X98138796Y-39511769D01*
X98037339Y-39428507D01*
X97954077Y-39327050D01*
X97924747Y-39291312D01*
X97841082Y-39134787D01*
X97789562Y-38964948D01*
X97772166Y-38788321D01*
X97789562Y-38611694D01*
X97841082Y-38441855D01*
X97924747Y-38285330D01*
X97954077Y-38249592D01*
X98037339Y-38148135D01*
X98138796Y-38064873D01*
X98174534Y-38035543D01*
X98331059Y-37951878D01*
X98500898Y-37900358D01*
X98567082Y-37893840D01*
X98633265Y-37887321D01*
X98721785Y-37887321D01*
X98787968Y-37893840D01*
X98787968Y-37893840D01*
G37*
G36*
X96247968Y-37893840D02*
G01*
X96314152Y-37900358D01*
X96483991Y-37951878D01*
X96640516Y-38035543D01*
X96676254Y-38064873D01*
X96777711Y-38148135D01*
X96860973Y-38249592D01*
X96890303Y-38285330D01*
X96973968Y-38441855D01*
X97025488Y-38611694D01*
X97042884Y-38788321D01*
X97025488Y-38964948D01*
X96973968Y-39134787D01*
X96890303Y-39291312D01*
X96860973Y-39327050D01*
X96777711Y-39428507D01*
X96676254Y-39511769D01*
X96640516Y-39541099D01*
X96483991Y-39624764D01*
X96314152Y-39676284D01*
X96247968Y-39682802D01*
X96181785Y-39689321D01*
X96093265Y-39689321D01*
X96027082Y-39682802D01*
X95960898Y-39676284D01*
X95791059Y-39624764D01*
X95634534Y-39541099D01*
X95598796Y-39511769D01*
X95497339Y-39428507D01*
X95414077Y-39327050D01*
X95384747Y-39291312D01*
X95301082Y-39134787D01*
X95249562Y-38964948D01*
X95232166Y-38788321D01*
X95249562Y-38611694D01*
X95301082Y-38441855D01*
X95384747Y-38285330D01*
X95414077Y-38249592D01*
X95497339Y-38148135D01*
X95598796Y-38064873D01*
X95634534Y-38035543D01*
X95791059Y-37951878D01*
X95960898Y-37900358D01*
X96027082Y-37893840D01*
X96093265Y-37887321D01*
X96181785Y-37887321D01*
X96247968Y-37893840D01*
X96247968Y-37893840D01*
G37*
G36*
X93707968Y-37893840D02*
G01*
X93774152Y-37900358D01*
X93943991Y-37951878D01*
X94100516Y-38035543D01*
X94136254Y-38064873D01*
X94237711Y-38148135D01*
X94320973Y-38249592D01*
X94350303Y-38285330D01*
X94433968Y-38441855D01*
X94485488Y-38611694D01*
X94502884Y-38788321D01*
X94485488Y-38964948D01*
X94433968Y-39134787D01*
X94350303Y-39291312D01*
X94320973Y-39327050D01*
X94237711Y-39428507D01*
X94136254Y-39511769D01*
X94100516Y-39541099D01*
X93943991Y-39624764D01*
X93774152Y-39676284D01*
X93707968Y-39682802D01*
X93641785Y-39689321D01*
X93553265Y-39689321D01*
X93487082Y-39682802D01*
X93420898Y-39676284D01*
X93251059Y-39624764D01*
X93094534Y-39541099D01*
X93058796Y-39511769D01*
X92957339Y-39428507D01*
X92874077Y-39327050D01*
X92844747Y-39291312D01*
X92761082Y-39134787D01*
X92709562Y-38964948D01*
X92692166Y-38788321D01*
X92709562Y-38611694D01*
X92761082Y-38441855D01*
X92844747Y-38285330D01*
X92874077Y-38249592D01*
X92957339Y-38148135D01*
X93058796Y-38064873D01*
X93094534Y-38035543D01*
X93251059Y-37951878D01*
X93420898Y-37900358D01*
X93487082Y-37893840D01*
X93553265Y-37887321D01*
X93641785Y-37887321D01*
X93707968Y-37893840D01*
X93707968Y-37893840D01*
G37*
G36*
X91167968Y-37893840D02*
G01*
X91234152Y-37900358D01*
X91403991Y-37951878D01*
X91560516Y-38035543D01*
X91596254Y-38064873D01*
X91697711Y-38148135D01*
X91780973Y-38249592D01*
X91810303Y-38285330D01*
X91893968Y-38441855D01*
X91945488Y-38611694D01*
X91962884Y-38788321D01*
X91945488Y-38964948D01*
X91893968Y-39134787D01*
X91810303Y-39291312D01*
X91780973Y-39327050D01*
X91697711Y-39428507D01*
X91596254Y-39511769D01*
X91560516Y-39541099D01*
X91403991Y-39624764D01*
X91234152Y-39676284D01*
X91167968Y-39682802D01*
X91101785Y-39689321D01*
X91013265Y-39689321D01*
X90947082Y-39682802D01*
X90880898Y-39676284D01*
X90711059Y-39624764D01*
X90554534Y-39541099D01*
X90518796Y-39511769D01*
X90417339Y-39428507D01*
X90334077Y-39327050D01*
X90304747Y-39291312D01*
X90221082Y-39134787D01*
X90169562Y-38964948D01*
X90152166Y-38788321D01*
X90169562Y-38611694D01*
X90221082Y-38441855D01*
X90304747Y-38285330D01*
X90334077Y-38249592D01*
X90417339Y-38148135D01*
X90518796Y-38064873D01*
X90554534Y-38035543D01*
X90711059Y-37951878D01*
X90880898Y-37900358D01*
X90947082Y-37893840D01*
X91013265Y-37887321D01*
X91101785Y-37887321D01*
X91167968Y-37893840D01*
X91167968Y-37893840D01*
G37*
G36*
X71198525Y-39689321D02*
G01*
X69396525Y-39689321D01*
X69396525Y-37887321D01*
X71198525Y-37887321D01*
X71198525Y-39689321D01*
X71198525Y-39689321D01*
G37*
G36*
X67867968Y-37893840D02*
G01*
X67934152Y-37900358D01*
X68103991Y-37951878D01*
X68260516Y-38035543D01*
X68296254Y-38064873D01*
X68397711Y-38148135D01*
X68480973Y-38249592D01*
X68510303Y-38285330D01*
X68593968Y-38441855D01*
X68645488Y-38611694D01*
X68662884Y-38788321D01*
X68645488Y-38964948D01*
X68593968Y-39134787D01*
X68510303Y-39291312D01*
X68480973Y-39327050D01*
X68397711Y-39428507D01*
X68296254Y-39511769D01*
X68260516Y-39541099D01*
X68103991Y-39624764D01*
X67934152Y-39676284D01*
X67867968Y-39682802D01*
X67801785Y-39689321D01*
X67713265Y-39689321D01*
X67647082Y-39682802D01*
X67580898Y-39676284D01*
X67411059Y-39624764D01*
X67254534Y-39541099D01*
X67218796Y-39511769D01*
X67117339Y-39428507D01*
X67034077Y-39327050D01*
X67004747Y-39291312D01*
X66921082Y-39134787D01*
X66869562Y-38964948D01*
X66852166Y-38788321D01*
X66869562Y-38611694D01*
X66921082Y-38441855D01*
X67004747Y-38285330D01*
X67034077Y-38249592D01*
X67117339Y-38148135D01*
X67218796Y-38064873D01*
X67254534Y-38035543D01*
X67411059Y-37951878D01*
X67580898Y-37900358D01*
X67647082Y-37893840D01*
X67713265Y-37887321D01*
X67801785Y-37887321D01*
X67867968Y-37893840D01*
X67867968Y-37893840D01*
G37*
G36*
X65327968Y-37893840D02*
G01*
X65394152Y-37900358D01*
X65563991Y-37951878D01*
X65720516Y-38035543D01*
X65756254Y-38064873D01*
X65857711Y-38148135D01*
X65940973Y-38249592D01*
X65970303Y-38285330D01*
X66053968Y-38441855D01*
X66105488Y-38611694D01*
X66122884Y-38788321D01*
X66105488Y-38964948D01*
X66053968Y-39134787D01*
X65970303Y-39291312D01*
X65940973Y-39327050D01*
X65857711Y-39428507D01*
X65756254Y-39511769D01*
X65720516Y-39541099D01*
X65563991Y-39624764D01*
X65394152Y-39676284D01*
X65327968Y-39682802D01*
X65261785Y-39689321D01*
X65173265Y-39689321D01*
X65107082Y-39682802D01*
X65040898Y-39676284D01*
X64871059Y-39624764D01*
X64714534Y-39541099D01*
X64678796Y-39511769D01*
X64577339Y-39428507D01*
X64494077Y-39327050D01*
X64464747Y-39291312D01*
X64381082Y-39134787D01*
X64329562Y-38964948D01*
X64312166Y-38788321D01*
X64329562Y-38611694D01*
X64381082Y-38441855D01*
X64464747Y-38285330D01*
X64494077Y-38249592D01*
X64577339Y-38148135D01*
X64678796Y-38064873D01*
X64714534Y-38035543D01*
X64871059Y-37951878D01*
X65040898Y-37900358D01*
X65107082Y-37893840D01*
X65173265Y-37887321D01*
X65261785Y-37887321D01*
X65327968Y-37893840D01*
X65327968Y-37893840D01*
G37*
G36*
X62787968Y-37893840D02*
G01*
X62854152Y-37900358D01*
X63023991Y-37951878D01*
X63180516Y-38035543D01*
X63216254Y-38064873D01*
X63317711Y-38148135D01*
X63400973Y-38249592D01*
X63430303Y-38285330D01*
X63513968Y-38441855D01*
X63565488Y-38611694D01*
X63582884Y-38788321D01*
X63565488Y-38964948D01*
X63513968Y-39134787D01*
X63430303Y-39291312D01*
X63400973Y-39327050D01*
X63317711Y-39428507D01*
X63216254Y-39511769D01*
X63180516Y-39541099D01*
X63023991Y-39624764D01*
X62854152Y-39676284D01*
X62787968Y-39682802D01*
X62721785Y-39689321D01*
X62633265Y-39689321D01*
X62567082Y-39682802D01*
X62500898Y-39676284D01*
X62331059Y-39624764D01*
X62174534Y-39541099D01*
X62138796Y-39511769D01*
X62037339Y-39428507D01*
X61954077Y-39327050D01*
X61924747Y-39291312D01*
X61841082Y-39134787D01*
X61789562Y-38964948D01*
X61772166Y-38788321D01*
X61789562Y-38611694D01*
X61841082Y-38441855D01*
X61924747Y-38285330D01*
X61954077Y-38249592D01*
X62037339Y-38148135D01*
X62138796Y-38064873D01*
X62174534Y-38035543D01*
X62331059Y-37951878D01*
X62500898Y-37900358D01*
X62567082Y-37893840D01*
X62633265Y-37887321D01*
X62721785Y-37887321D01*
X62787968Y-37893840D01*
X62787968Y-37893840D01*
G37*
G36*
X60247968Y-37893840D02*
G01*
X60314152Y-37900358D01*
X60483991Y-37951878D01*
X60640516Y-38035543D01*
X60676254Y-38064873D01*
X60777711Y-38148135D01*
X60860973Y-38249592D01*
X60890303Y-38285330D01*
X60973968Y-38441855D01*
X61025488Y-38611694D01*
X61042884Y-38788321D01*
X61025488Y-38964948D01*
X60973968Y-39134787D01*
X60890303Y-39291312D01*
X60860973Y-39327050D01*
X60777711Y-39428507D01*
X60676254Y-39511769D01*
X60640516Y-39541099D01*
X60483991Y-39624764D01*
X60314152Y-39676284D01*
X60247968Y-39682802D01*
X60181785Y-39689321D01*
X60093265Y-39689321D01*
X60027082Y-39682802D01*
X59960898Y-39676284D01*
X59791059Y-39624764D01*
X59634534Y-39541099D01*
X59598796Y-39511769D01*
X59497339Y-39428507D01*
X59414077Y-39327050D01*
X59384747Y-39291312D01*
X59301082Y-39134787D01*
X59249562Y-38964948D01*
X59232166Y-38788321D01*
X59249562Y-38611694D01*
X59301082Y-38441855D01*
X59384747Y-38285330D01*
X59414077Y-38249592D01*
X59497339Y-38148135D01*
X59598796Y-38064873D01*
X59634534Y-38035543D01*
X59791059Y-37951878D01*
X59960898Y-37900358D01*
X60027082Y-37893840D01*
X60093265Y-37887321D01*
X60181785Y-37887321D01*
X60247968Y-37893840D01*
X60247968Y-37893840D01*
G37*
G36*
X57707968Y-37893840D02*
G01*
X57774152Y-37900358D01*
X57943991Y-37951878D01*
X58100516Y-38035543D01*
X58136254Y-38064873D01*
X58237711Y-38148135D01*
X58320973Y-38249592D01*
X58350303Y-38285330D01*
X58433968Y-38441855D01*
X58485488Y-38611694D01*
X58502884Y-38788321D01*
X58485488Y-38964948D01*
X58433968Y-39134787D01*
X58350303Y-39291312D01*
X58320973Y-39327050D01*
X58237711Y-39428507D01*
X58136254Y-39511769D01*
X58100516Y-39541099D01*
X57943991Y-39624764D01*
X57774152Y-39676284D01*
X57707968Y-39682802D01*
X57641785Y-39689321D01*
X57553265Y-39689321D01*
X57487082Y-39682802D01*
X57420898Y-39676284D01*
X57251059Y-39624764D01*
X57094534Y-39541099D01*
X57058796Y-39511769D01*
X56957339Y-39428507D01*
X56874077Y-39327050D01*
X56844747Y-39291312D01*
X56761082Y-39134787D01*
X56709562Y-38964948D01*
X56692166Y-38788321D01*
X56709562Y-38611694D01*
X56761082Y-38441855D01*
X56844747Y-38285330D01*
X56874077Y-38249592D01*
X56957339Y-38148135D01*
X57058796Y-38064873D01*
X57094534Y-38035543D01*
X57251059Y-37951878D01*
X57420898Y-37900358D01*
X57487082Y-37893840D01*
X57553265Y-37887321D01*
X57641785Y-37887321D01*
X57707968Y-37893840D01*
X57707968Y-37893840D01*
G37*
G36*
X55167968Y-37893840D02*
G01*
X55234152Y-37900358D01*
X55403991Y-37951878D01*
X55560516Y-38035543D01*
X55596254Y-38064873D01*
X55697711Y-38148135D01*
X55780973Y-38249592D01*
X55810303Y-38285330D01*
X55893968Y-38441855D01*
X55945488Y-38611694D01*
X55962884Y-38788321D01*
X55945488Y-38964948D01*
X55893968Y-39134787D01*
X55810303Y-39291312D01*
X55780973Y-39327050D01*
X55697711Y-39428507D01*
X55596254Y-39511769D01*
X55560516Y-39541099D01*
X55403991Y-39624764D01*
X55234152Y-39676284D01*
X55167968Y-39682802D01*
X55101785Y-39689321D01*
X55013265Y-39689321D01*
X54947082Y-39682802D01*
X54880898Y-39676284D01*
X54711059Y-39624764D01*
X54554534Y-39541099D01*
X54518796Y-39511769D01*
X54417339Y-39428507D01*
X54334077Y-39327050D01*
X54304747Y-39291312D01*
X54221082Y-39134787D01*
X54169562Y-38964948D01*
X54152166Y-38788321D01*
X54169562Y-38611694D01*
X54221082Y-38441855D01*
X54304747Y-38285330D01*
X54334077Y-38249592D01*
X54417339Y-38148135D01*
X54518796Y-38064873D01*
X54554534Y-38035543D01*
X54711059Y-37951878D01*
X54880898Y-37900358D01*
X54947082Y-37893840D01*
X55013265Y-37887321D01*
X55101785Y-37887321D01*
X55167968Y-37893840D01*
X55167968Y-37893840D01*
G37*
G36*
X35198525Y-39689321D02*
G01*
X33396525Y-39689321D01*
X33396525Y-37887321D01*
X35198525Y-37887321D01*
X35198525Y-39689321D01*
X35198525Y-39689321D01*
G37*
G36*
X31867968Y-37893840D02*
G01*
X31934152Y-37900358D01*
X32103991Y-37951878D01*
X32260516Y-38035543D01*
X32296254Y-38064873D01*
X32397711Y-38148135D01*
X32480973Y-38249592D01*
X32510303Y-38285330D01*
X32593968Y-38441855D01*
X32645488Y-38611694D01*
X32662884Y-38788321D01*
X32645488Y-38964948D01*
X32593968Y-39134787D01*
X32510303Y-39291312D01*
X32480973Y-39327050D01*
X32397711Y-39428507D01*
X32296254Y-39511769D01*
X32260516Y-39541099D01*
X32103991Y-39624764D01*
X31934152Y-39676284D01*
X31867968Y-39682802D01*
X31801785Y-39689321D01*
X31713265Y-39689321D01*
X31647082Y-39682802D01*
X31580898Y-39676284D01*
X31411059Y-39624764D01*
X31254534Y-39541099D01*
X31218796Y-39511769D01*
X31117339Y-39428507D01*
X31034077Y-39327050D01*
X31004747Y-39291312D01*
X30921082Y-39134787D01*
X30869562Y-38964948D01*
X30852166Y-38788321D01*
X30869562Y-38611694D01*
X30921082Y-38441855D01*
X31004747Y-38285330D01*
X31034077Y-38249592D01*
X31117339Y-38148135D01*
X31218796Y-38064873D01*
X31254534Y-38035543D01*
X31411059Y-37951878D01*
X31580898Y-37900358D01*
X31647082Y-37893840D01*
X31713265Y-37887321D01*
X31801785Y-37887321D01*
X31867968Y-37893840D01*
X31867968Y-37893840D01*
G37*
G36*
X29327968Y-37893840D02*
G01*
X29394152Y-37900358D01*
X29563991Y-37951878D01*
X29720516Y-38035543D01*
X29756254Y-38064873D01*
X29857711Y-38148135D01*
X29940973Y-38249592D01*
X29970303Y-38285330D01*
X30053968Y-38441855D01*
X30105488Y-38611694D01*
X30122884Y-38788321D01*
X30105488Y-38964948D01*
X30053968Y-39134787D01*
X29970303Y-39291312D01*
X29940973Y-39327050D01*
X29857711Y-39428507D01*
X29756254Y-39511769D01*
X29720516Y-39541099D01*
X29563991Y-39624764D01*
X29394152Y-39676284D01*
X29327968Y-39682802D01*
X29261785Y-39689321D01*
X29173265Y-39689321D01*
X29107082Y-39682802D01*
X29040898Y-39676284D01*
X28871059Y-39624764D01*
X28714534Y-39541099D01*
X28678796Y-39511769D01*
X28577339Y-39428507D01*
X28494077Y-39327050D01*
X28464747Y-39291312D01*
X28381082Y-39134787D01*
X28329562Y-38964948D01*
X28312166Y-38788321D01*
X28329562Y-38611694D01*
X28381082Y-38441855D01*
X28464747Y-38285330D01*
X28494077Y-38249592D01*
X28577339Y-38148135D01*
X28678796Y-38064873D01*
X28714534Y-38035543D01*
X28871059Y-37951878D01*
X29040898Y-37900358D01*
X29107082Y-37893840D01*
X29173265Y-37887321D01*
X29261785Y-37887321D01*
X29327968Y-37893840D01*
X29327968Y-37893840D01*
G37*
G36*
X26787968Y-37893840D02*
G01*
X26854152Y-37900358D01*
X27023991Y-37951878D01*
X27180516Y-38035543D01*
X27216254Y-38064873D01*
X27317711Y-38148135D01*
X27400973Y-38249592D01*
X27430303Y-38285330D01*
X27513968Y-38441855D01*
X27565488Y-38611694D01*
X27582884Y-38788321D01*
X27565488Y-38964948D01*
X27513968Y-39134787D01*
X27430303Y-39291312D01*
X27400973Y-39327050D01*
X27317711Y-39428507D01*
X27216254Y-39511769D01*
X27180516Y-39541099D01*
X27023991Y-39624764D01*
X26854152Y-39676284D01*
X26787968Y-39682802D01*
X26721785Y-39689321D01*
X26633265Y-39689321D01*
X26567082Y-39682802D01*
X26500898Y-39676284D01*
X26331059Y-39624764D01*
X26174534Y-39541099D01*
X26138796Y-39511769D01*
X26037339Y-39428507D01*
X25954077Y-39327050D01*
X25924747Y-39291312D01*
X25841082Y-39134787D01*
X25789562Y-38964948D01*
X25772166Y-38788321D01*
X25789562Y-38611694D01*
X25841082Y-38441855D01*
X25924747Y-38285330D01*
X25954077Y-38249592D01*
X26037339Y-38148135D01*
X26138796Y-38064873D01*
X26174534Y-38035543D01*
X26331059Y-37951878D01*
X26500898Y-37900358D01*
X26567082Y-37893840D01*
X26633265Y-37887321D01*
X26721785Y-37887321D01*
X26787968Y-37893840D01*
X26787968Y-37893840D01*
G37*
G36*
X24247968Y-37893840D02*
G01*
X24314152Y-37900358D01*
X24483991Y-37951878D01*
X24640516Y-38035543D01*
X24676254Y-38064873D01*
X24777711Y-38148135D01*
X24860973Y-38249592D01*
X24890303Y-38285330D01*
X24973968Y-38441855D01*
X25025488Y-38611694D01*
X25042884Y-38788321D01*
X25025488Y-38964948D01*
X24973968Y-39134787D01*
X24890303Y-39291312D01*
X24860973Y-39327050D01*
X24777711Y-39428507D01*
X24676254Y-39511769D01*
X24640516Y-39541099D01*
X24483991Y-39624764D01*
X24314152Y-39676284D01*
X24247968Y-39682802D01*
X24181785Y-39689321D01*
X24093265Y-39689321D01*
X24027082Y-39682802D01*
X23960898Y-39676284D01*
X23791059Y-39624764D01*
X23634534Y-39541099D01*
X23598796Y-39511769D01*
X23497339Y-39428507D01*
X23414077Y-39327050D01*
X23384747Y-39291312D01*
X23301082Y-39134787D01*
X23249562Y-38964948D01*
X23232166Y-38788321D01*
X23249562Y-38611694D01*
X23301082Y-38441855D01*
X23384747Y-38285330D01*
X23414077Y-38249592D01*
X23497339Y-38148135D01*
X23598796Y-38064873D01*
X23634534Y-38035543D01*
X23791059Y-37951878D01*
X23960898Y-37900358D01*
X24027082Y-37893840D01*
X24093265Y-37887321D01*
X24181785Y-37887321D01*
X24247968Y-37893840D01*
X24247968Y-37893840D01*
G37*
G36*
X21707968Y-37893840D02*
G01*
X21774152Y-37900358D01*
X21943991Y-37951878D01*
X22100516Y-38035543D01*
X22136254Y-38064873D01*
X22237711Y-38148135D01*
X22320973Y-38249592D01*
X22350303Y-38285330D01*
X22433968Y-38441855D01*
X22485488Y-38611694D01*
X22502884Y-38788321D01*
X22485488Y-38964948D01*
X22433968Y-39134787D01*
X22350303Y-39291312D01*
X22320973Y-39327050D01*
X22237711Y-39428507D01*
X22136254Y-39511769D01*
X22100516Y-39541099D01*
X21943991Y-39624764D01*
X21774152Y-39676284D01*
X21707968Y-39682802D01*
X21641785Y-39689321D01*
X21553265Y-39689321D01*
X21487082Y-39682802D01*
X21420898Y-39676284D01*
X21251059Y-39624764D01*
X21094534Y-39541099D01*
X21058796Y-39511769D01*
X20957339Y-39428507D01*
X20874077Y-39327050D01*
X20844747Y-39291312D01*
X20761082Y-39134787D01*
X20709562Y-38964948D01*
X20692166Y-38788321D01*
X20709562Y-38611694D01*
X20761082Y-38441855D01*
X20844747Y-38285330D01*
X20874077Y-38249592D01*
X20957339Y-38148135D01*
X21058796Y-38064873D01*
X21094534Y-38035543D01*
X21251059Y-37951878D01*
X21420898Y-37900358D01*
X21487082Y-37893840D01*
X21553265Y-37887321D01*
X21641785Y-37887321D01*
X21707968Y-37893840D01*
X21707968Y-37893840D01*
G37*
G36*
X19167968Y-37893840D02*
G01*
X19234152Y-37900358D01*
X19403991Y-37951878D01*
X19560516Y-38035543D01*
X19596254Y-38064873D01*
X19697711Y-38148135D01*
X19780973Y-38249592D01*
X19810303Y-38285330D01*
X19893968Y-38441855D01*
X19945488Y-38611694D01*
X19962884Y-38788321D01*
X19945488Y-38964948D01*
X19893968Y-39134787D01*
X19810303Y-39291312D01*
X19780973Y-39327050D01*
X19697711Y-39428507D01*
X19596254Y-39511769D01*
X19560516Y-39541099D01*
X19403991Y-39624764D01*
X19234152Y-39676284D01*
X19167968Y-39682802D01*
X19101785Y-39689321D01*
X19013265Y-39689321D01*
X18947082Y-39682802D01*
X18880898Y-39676284D01*
X18711059Y-39624764D01*
X18554534Y-39541099D01*
X18518796Y-39511769D01*
X18417339Y-39428507D01*
X18334077Y-39327050D01*
X18304747Y-39291312D01*
X18221082Y-39134787D01*
X18169562Y-38964948D01*
X18152166Y-38788321D01*
X18169562Y-38611694D01*
X18221082Y-38441855D01*
X18304747Y-38285330D01*
X18334077Y-38249592D01*
X18417339Y-38148135D01*
X18518796Y-38064873D01*
X18554534Y-38035543D01*
X18711059Y-37951878D01*
X18880898Y-37900358D01*
X18947082Y-37893840D01*
X19013265Y-37887321D01*
X19101785Y-37887321D01*
X19167968Y-37893840D01*
X19167968Y-37893840D01*
G37*
G36*
X287198525Y-39689321D02*
G01*
X285396525Y-39689321D01*
X285396525Y-37887321D01*
X287198525Y-37887321D01*
X287198525Y-39689321D01*
X287198525Y-39689321D01*
G37*
G36*
X283867968Y-37893840D02*
G01*
X283934152Y-37900358D01*
X284103991Y-37951878D01*
X284260516Y-38035543D01*
X284296254Y-38064873D01*
X284397711Y-38148135D01*
X284480973Y-38249592D01*
X284510303Y-38285330D01*
X284593968Y-38441855D01*
X284645488Y-38611694D01*
X284662884Y-38788321D01*
X284645488Y-38964948D01*
X284593968Y-39134787D01*
X284510303Y-39291312D01*
X284480973Y-39327050D01*
X284397711Y-39428507D01*
X284296254Y-39511769D01*
X284260516Y-39541099D01*
X284103991Y-39624764D01*
X283934152Y-39676284D01*
X283867968Y-39682802D01*
X283801785Y-39689321D01*
X283713265Y-39689321D01*
X283647082Y-39682802D01*
X283580898Y-39676284D01*
X283411059Y-39624764D01*
X283254534Y-39541099D01*
X283218796Y-39511769D01*
X283117339Y-39428507D01*
X283034077Y-39327050D01*
X283004747Y-39291312D01*
X282921082Y-39134787D01*
X282869562Y-38964948D01*
X282852166Y-38788321D01*
X282869562Y-38611694D01*
X282921082Y-38441855D01*
X283004747Y-38285330D01*
X283034077Y-38249592D01*
X283117339Y-38148135D01*
X283218796Y-38064873D01*
X283254534Y-38035543D01*
X283411059Y-37951878D01*
X283580898Y-37900358D01*
X283647082Y-37893840D01*
X283713265Y-37887321D01*
X283801785Y-37887321D01*
X283867968Y-37893840D01*
X283867968Y-37893840D01*
G37*
G36*
X281327968Y-37893840D02*
G01*
X281394152Y-37900358D01*
X281563991Y-37951878D01*
X281720516Y-38035543D01*
X281756254Y-38064873D01*
X281857711Y-38148135D01*
X281940973Y-38249592D01*
X281970303Y-38285330D01*
X282053968Y-38441855D01*
X282105488Y-38611694D01*
X282122884Y-38788321D01*
X282105488Y-38964948D01*
X282053968Y-39134787D01*
X281970303Y-39291312D01*
X281940973Y-39327050D01*
X281857711Y-39428507D01*
X281756254Y-39511769D01*
X281720516Y-39541099D01*
X281563991Y-39624764D01*
X281394152Y-39676284D01*
X281327968Y-39682802D01*
X281261785Y-39689321D01*
X281173265Y-39689321D01*
X281107082Y-39682802D01*
X281040898Y-39676284D01*
X280871059Y-39624764D01*
X280714534Y-39541099D01*
X280678796Y-39511769D01*
X280577339Y-39428507D01*
X280494077Y-39327050D01*
X280464747Y-39291312D01*
X280381082Y-39134787D01*
X280329562Y-38964948D01*
X280312166Y-38788321D01*
X280329562Y-38611694D01*
X280381082Y-38441855D01*
X280464747Y-38285330D01*
X280494077Y-38249592D01*
X280577339Y-38148135D01*
X280678796Y-38064873D01*
X280714534Y-38035543D01*
X280871059Y-37951878D01*
X281040898Y-37900358D01*
X281107082Y-37893840D01*
X281173265Y-37887321D01*
X281261785Y-37887321D01*
X281327968Y-37893840D01*
X281327968Y-37893840D01*
G37*
G36*
X278787968Y-37893840D02*
G01*
X278854152Y-37900358D01*
X279023991Y-37951878D01*
X279180516Y-38035543D01*
X279216254Y-38064873D01*
X279317711Y-38148135D01*
X279400973Y-38249592D01*
X279430303Y-38285330D01*
X279513968Y-38441855D01*
X279565488Y-38611694D01*
X279582884Y-38788321D01*
X279565488Y-38964948D01*
X279513968Y-39134787D01*
X279430303Y-39291312D01*
X279400973Y-39327050D01*
X279317711Y-39428507D01*
X279216254Y-39511769D01*
X279180516Y-39541099D01*
X279023991Y-39624764D01*
X278854152Y-39676284D01*
X278787968Y-39682802D01*
X278721785Y-39689321D01*
X278633265Y-39689321D01*
X278567082Y-39682802D01*
X278500898Y-39676284D01*
X278331059Y-39624764D01*
X278174534Y-39541099D01*
X278138796Y-39511769D01*
X278037339Y-39428507D01*
X277954077Y-39327050D01*
X277924747Y-39291312D01*
X277841082Y-39134787D01*
X277789562Y-38964948D01*
X277772166Y-38788321D01*
X277789562Y-38611694D01*
X277841082Y-38441855D01*
X277924747Y-38285330D01*
X277954077Y-38249592D01*
X278037339Y-38148135D01*
X278138796Y-38064873D01*
X278174534Y-38035543D01*
X278331059Y-37951878D01*
X278500898Y-37900358D01*
X278567082Y-37893840D01*
X278633265Y-37887321D01*
X278721785Y-37887321D01*
X278787968Y-37893840D01*
X278787968Y-37893840D01*
G37*
G36*
X276247968Y-37893840D02*
G01*
X276314152Y-37900358D01*
X276483991Y-37951878D01*
X276640516Y-38035543D01*
X276676254Y-38064873D01*
X276777711Y-38148135D01*
X276860973Y-38249592D01*
X276890303Y-38285330D01*
X276973968Y-38441855D01*
X277025488Y-38611694D01*
X277042884Y-38788321D01*
X277025488Y-38964948D01*
X276973968Y-39134787D01*
X276890303Y-39291312D01*
X276860973Y-39327050D01*
X276777711Y-39428507D01*
X276676254Y-39511769D01*
X276640516Y-39541099D01*
X276483991Y-39624764D01*
X276314152Y-39676284D01*
X276247968Y-39682802D01*
X276181785Y-39689321D01*
X276093265Y-39689321D01*
X276027082Y-39682802D01*
X275960898Y-39676284D01*
X275791059Y-39624764D01*
X275634534Y-39541099D01*
X275598796Y-39511769D01*
X275497339Y-39428507D01*
X275414077Y-39327050D01*
X275384747Y-39291312D01*
X275301082Y-39134787D01*
X275249562Y-38964948D01*
X275232166Y-38788321D01*
X275249562Y-38611694D01*
X275301082Y-38441855D01*
X275384747Y-38285330D01*
X275414077Y-38249592D01*
X275497339Y-38148135D01*
X275598796Y-38064873D01*
X275634534Y-38035543D01*
X275791059Y-37951878D01*
X275960898Y-37900358D01*
X276027082Y-37893840D01*
X276093265Y-37887321D01*
X276181785Y-37887321D01*
X276247968Y-37893840D01*
X276247968Y-37893840D01*
G37*
G36*
X273707968Y-37893840D02*
G01*
X273774152Y-37900358D01*
X273943991Y-37951878D01*
X274100516Y-38035543D01*
X274136254Y-38064873D01*
X274237711Y-38148135D01*
X274320973Y-38249592D01*
X274350303Y-38285330D01*
X274433968Y-38441855D01*
X274485488Y-38611694D01*
X274502884Y-38788321D01*
X274485488Y-38964948D01*
X274433968Y-39134787D01*
X274350303Y-39291312D01*
X274320973Y-39327050D01*
X274237711Y-39428507D01*
X274136254Y-39511769D01*
X274100516Y-39541099D01*
X273943991Y-39624764D01*
X273774152Y-39676284D01*
X273707968Y-39682802D01*
X273641785Y-39689321D01*
X273553265Y-39689321D01*
X273487082Y-39682802D01*
X273420898Y-39676284D01*
X273251059Y-39624764D01*
X273094534Y-39541099D01*
X273058796Y-39511769D01*
X272957339Y-39428507D01*
X272874077Y-39327050D01*
X272844747Y-39291312D01*
X272761082Y-39134787D01*
X272709562Y-38964948D01*
X272692166Y-38788321D01*
X272709562Y-38611694D01*
X272761082Y-38441855D01*
X272844747Y-38285330D01*
X272874077Y-38249592D01*
X272957339Y-38148135D01*
X273058796Y-38064873D01*
X273094534Y-38035543D01*
X273251059Y-37951878D01*
X273420898Y-37900358D01*
X273487082Y-37893840D01*
X273553265Y-37887321D01*
X273641785Y-37887321D01*
X273707968Y-37893840D01*
X273707968Y-37893840D01*
G37*
G36*
X271167968Y-37893840D02*
G01*
X271234152Y-37900358D01*
X271403991Y-37951878D01*
X271560516Y-38035543D01*
X271596254Y-38064873D01*
X271697711Y-38148135D01*
X271780973Y-38249592D01*
X271810303Y-38285330D01*
X271893968Y-38441855D01*
X271945488Y-38611694D01*
X271962884Y-38788321D01*
X271945488Y-38964948D01*
X271893968Y-39134787D01*
X271810303Y-39291312D01*
X271780973Y-39327050D01*
X271697711Y-39428507D01*
X271596254Y-39511769D01*
X271560516Y-39541099D01*
X271403991Y-39624764D01*
X271234152Y-39676284D01*
X271167968Y-39682802D01*
X271101785Y-39689321D01*
X271013265Y-39689321D01*
X270947082Y-39682802D01*
X270880898Y-39676284D01*
X270711059Y-39624764D01*
X270554534Y-39541099D01*
X270518796Y-39511769D01*
X270417339Y-39428507D01*
X270334077Y-39327050D01*
X270304747Y-39291312D01*
X270221082Y-39134787D01*
X270169562Y-38964948D01*
X270152166Y-38788321D01*
X270169562Y-38611694D01*
X270221082Y-38441855D01*
X270304747Y-38285330D01*
X270334077Y-38249592D01*
X270417339Y-38148135D01*
X270518796Y-38064873D01*
X270554534Y-38035543D01*
X270711059Y-37951878D01*
X270880898Y-37900358D01*
X270947082Y-37893840D01*
X271013265Y-37887321D01*
X271101785Y-37887321D01*
X271167968Y-37893840D01*
X271167968Y-37893840D01*
G37*
G36*
X131137920Y-30534263D02*
G01*
X131270056Y-30574347D01*
X131270058Y-30574348D01*
X131391838Y-30639440D01*
X131391840Y-30639441D01*
X131391839Y-30639441D01*
X131498580Y-30727040D01*
X131572860Y-30817550D01*
X131586180Y-30833781D01*
X131647199Y-30947941D01*
X131651273Y-30955563D01*
X131691357Y-31087699D01*
X131701500Y-31190688D01*
X131701500Y-32959552D01*
X131691357Y-33062541D01*
X131653584Y-33187059D01*
X131651272Y-33194679D01*
X131586180Y-33316459D01*
X131498580Y-33423200D01*
X131391839Y-33510800D01*
X131284315Y-33568272D01*
X131270057Y-33575893D01*
X131137921Y-33615977D01*
X131000500Y-33629511D01*
X130863080Y-33615977D01*
X130730944Y-33575893D01*
X130716686Y-33568272D01*
X130609162Y-33510800D01*
X130502421Y-33423200D01*
X130414821Y-33316459D01*
X130349729Y-33194679D01*
X130347417Y-33187059D01*
X130309644Y-33062541D01*
X130299501Y-32959552D01*
X130299500Y-31190689D01*
X130309643Y-31087700D01*
X130349727Y-30955564D01*
X130353801Y-30947942D01*
X130414820Y-30833782D01*
X130430529Y-30814640D01*
X130502420Y-30727040D01*
X130609160Y-30639441D01*
X130609159Y-30639441D01*
X130609161Y-30639440D01*
X130730941Y-30574348D01*
X130730943Y-30574347D01*
X130863079Y-30534263D01*
X131000500Y-30520729D01*
X131137920Y-30534263D01*
X131137920Y-30534263D01*
G37*
G36*
X110817920Y-30534263D02*
G01*
X110950056Y-30574347D01*
X110950058Y-30574348D01*
X111071838Y-30639440D01*
X111071840Y-30639441D01*
X111071839Y-30639441D01*
X111178580Y-30727040D01*
X111252860Y-30817550D01*
X111266180Y-30833781D01*
X111327199Y-30947941D01*
X111331273Y-30955563D01*
X111371357Y-31087699D01*
X111381500Y-31190688D01*
X111381500Y-32959552D01*
X111371357Y-33062541D01*
X111333584Y-33187059D01*
X111331272Y-33194679D01*
X111266180Y-33316459D01*
X111178580Y-33423200D01*
X111071839Y-33510800D01*
X110964315Y-33568272D01*
X110950057Y-33575893D01*
X110817921Y-33615977D01*
X110680500Y-33629511D01*
X110543080Y-33615977D01*
X110410944Y-33575893D01*
X110396686Y-33568272D01*
X110289162Y-33510800D01*
X110182421Y-33423200D01*
X110094821Y-33316459D01*
X110029729Y-33194679D01*
X110027417Y-33187059D01*
X109989644Y-33062541D01*
X109979501Y-32959552D01*
X109979500Y-31190689D01*
X109989643Y-31087700D01*
X110029727Y-30955564D01*
X110033801Y-30947942D01*
X110094820Y-30833782D01*
X110110529Y-30814640D01*
X110182420Y-30727040D01*
X110289160Y-30639441D01*
X110289159Y-30639441D01*
X110289161Y-30639440D01*
X110410941Y-30574348D01*
X110410943Y-30574347D01*
X110543079Y-30534263D01*
X110680500Y-30520729D01*
X110817920Y-30534263D01*
X110817920Y-30534263D01*
G37*
G36*
X113357920Y-30534263D02*
G01*
X113490056Y-30574347D01*
X113490058Y-30574348D01*
X113611838Y-30639440D01*
X113611840Y-30639441D01*
X113611839Y-30639441D01*
X113718580Y-30727040D01*
X113792860Y-30817550D01*
X113806180Y-30833781D01*
X113867199Y-30947941D01*
X113871273Y-30955563D01*
X113911357Y-31087699D01*
X113921500Y-31190688D01*
X113921500Y-32959552D01*
X113911357Y-33062541D01*
X113873584Y-33187059D01*
X113871272Y-33194679D01*
X113806180Y-33316459D01*
X113718580Y-33423200D01*
X113611839Y-33510800D01*
X113504315Y-33568272D01*
X113490057Y-33575893D01*
X113357921Y-33615977D01*
X113220500Y-33629511D01*
X113083080Y-33615977D01*
X112950944Y-33575893D01*
X112936686Y-33568272D01*
X112829162Y-33510800D01*
X112722421Y-33423200D01*
X112634821Y-33316459D01*
X112569729Y-33194679D01*
X112567417Y-33187059D01*
X112529644Y-33062541D01*
X112519501Y-32959552D01*
X112519500Y-31190689D01*
X112529643Y-31087700D01*
X112569727Y-30955564D01*
X112573801Y-30947942D01*
X112634820Y-30833782D01*
X112650529Y-30814640D01*
X112722420Y-30727040D01*
X112829160Y-30639441D01*
X112829159Y-30639441D01*
X112829161Y-30639440D01*
X112950941Y-30574348D01*
X112950943Y-30574347D01*
X113083079Y-30534263D01*
X113220500Y-30520729D01*
X113357920Y-30534263D01*
X113357920Y-30534263D01*
G37*
G36*
X153997920Y-30534263D02*
G01*
X154130056Y-30574347D01*
X154130058Y-30574348D01*
X154251838Y-30639440D01*
X154251840Y-30639441D01*
X154251839Y-30639441D01*
X154358580Y-30727040D01*
X154432860Y-30817550D01*
X154446180Y-30833781D01*
X154507199Y-30947941D01*
X154511273Y-30955563D01*
X154551357Y-31087699D01*
X154561500Y-31190688D01*
X154561500Y-32959552D01*
X154551357Y-33062541D01*
X154513584Y-33187059D01*
X154511272Y-33194679D01*
X154446180Y-33316459D01*
X154358580Y-33423200D01*
X154251839Y-33510800D01*
X154144315Y-33568272D01*
X154130057Y-33575893D01*
X153997921Y-33615977D01*
X153860500Y-33629511D01*
X153723080Y-33615977D01*
X153590944Y-33575893D01*
X153576686Y-33568272D01*
X153469162Y-33510800D01*
X153362421Y-33423200D01*
X153274821Y-33316459D01*
X153209729Y-33194679D01*
X153207417Y-33187059D01*
X153169644Y-33062541D01*
X153159501Y-32959552D01*
X153159500Y-31190689D01*
X153169643Y-31087700D01*
X153209727Y-30955564D01*
X153213801Y-30947942D01*
X153274820Y-30833782D01*
X153290529Y-30814640D01*
X153362420Y-30727040D01*
X153469160Y-30639441D01*
X153469159Y-30639441D01*
X153469161Y-30639440D01*
X153590941Y-30574348D01*
X153590943Y-30574347D01*
X153723079Y-30534263D01*
X153860500Y-30520729D01*
X153997920Y-30534263D01*
X153997920Y-30534263D01*
G37*
G36*
X141297920Y-30526643D02*
G01*
X141430056Y-30566727D01*
X141430058Y-30566728D01*
X141551838Y-30631820D01*
X141551840Y-30631821D01*
X141551839Y-30631821D01*
X141658580Y-30719420D01*
X141732860Y-30809930D01*
X141746180Y-30826161D01*
X141750253Y-30833782D01*
X141811273Y-30947943D01*
X141851357Y-31080079D01*
X141861500Y-31183068D01*
X141861500Y-32951932D01*
X141851357Y-33054921D01*
X141811273Y-33187057D01*
X141811272Y-33187059D01*
X141746180Y-33308839D01*
X141658580Y-33415580D01*
X141551839Y-33503180D01*
X141430059Y-33568272D01*
X141430057Y-33568273D01*
X141297921Y-33608357D01*
X141160500Y-33621891D01*
X141023080Y-33608357D01*
X140890944Y-33568273D01*
X140890942Y-33568272D01*
X140769162Y-33503180D01*
X140662421Y-33415580D01*
X140574821Y-33308839D01*
X140509729Y-33187059D01*
X140509728Y-33187057D01*
X140469644Y-33054921D01*
X140459501Y-32951932D01*
X140459500Y-31183069D01*
X140469643Y-31080080D01*
X140509727Y-30947944D01*
X140509729Y-30947941D01*
X140574820Y-30826162D01*
X140656167Y-30727040D01*
X140662420Y-30719420D01*
X140769160Y-30631821D01*
X140769159Y-30631821D01*
X140769161Y-30631820D01*
X140890941Y-30566728D01*
X140890943Y-30566727D01*
X141023079Y-30526643D01*
X141160500Y-30513109D01*
X141297920Y-30526643D01*
X141297920Y-30526643D01*
G37*
G36*
X138757920Y-30526643D02*
G01*
X138890056Y-30566727D01*
X138890058Y-30566728D01*
X139011838Y-30631820D01*
X139011840Y-30631821D01*
X139011839Y-30631821D01*
X139118580Y-30719420D01*
X139192860Y-30809930D01*
X139206180Y-30826161D01*
X139210253Y-30833782D01*
X139271273Y-30947943D01*
X139311357Y-31080079D01*
X139321500Y-31183068D01*
X139321500Y-32951932D01*
X139311357Y-33054921D01*
X139271273Y-33187057D01*
X139271272Y-33187059D01*
X139206180Y-33308839D01*
X139118580Y-33415580D01*
X139011839Y-33503180D01*
X138890059Y-33568272D01*
X138890057Y-33568273D01*
X138757921Y-33608357D01*
X138620500Y-33621891D01*
X138483080Y-33608357D01*
X138350944Y-33568273D01*
X138350942Y-33568272D01*
X138229162Y-33503180D01*
X138122421Y-33415580D01*
X138034821Y-33308839D01*
X137969729Y-33187059D01*
X137969728Y-33187057D01*
X137929644Y-33054921D01*
X137919501Y-32951932D01*
X137919500Y-31183069D01*
X137929643Y-31080080D01*
X137969727Y-30947944D01*
X137969729Y-30947941D01*
X138034820Y-30826162D01*
X138116167Y-30727040D01*
X138122420Y-30719420D01*
X138229160Y-30631821D01*
X138229159Y-30631821D01*
X138229161Y-30631820D01*
X138350941Y-30566728D01*
X138350943Y-30566727D01*
X138483079Y-30526643D01*
X138620500Y-30513109D01*
X138757920Y-30526643D01*
X138757920Y-30526643D01*
G37*
G36*
X143837920Y-30526643D02*
G01*
X143970056Y-30566727D01*
X143970058Y-30566728D01*
X144091838Y-30631820D01*
X144091840Y-30631821D01*
X144091839Y-30631821D01*
X144198580Y-30719420D01*
X144272860Y-30809930D01*
X144286180Y-30826161D01*
X144290253Y-30833782D01*
X144351273Y-30947943D01*
X144391357Y-31080079D01*
X144401500Y-31183068D01*
X144401500Y-32951932D01*
X144391357Y-33054921D01*
X144351273Y-33187057D01*
X144351272Y-33187059D01*
X144286180Y-33308839D01*
X144198580Y-33415580D01*
X144091839Y-33503180D01*
X143970059Y-33568272D01*
X143970057Y-33568273D01*
X143837921Y-33608357D01*
X143700500Y-33621891D01*
X143563080Y-33608357D01*
X143430944Y-33568273D01*
X143430942Y-33568272D01*
X143309162Y-33503180D01*
X143202421Y-33415580D01*
X143114821Y-33308839D01*
X143049729Y-33187059D01*
X143049728Y-33187057D01*
X143009644Y-33054921D01*
X142999501Y-32951932D01*
X142999500Y-31183069D01*
X143009643Y-31080080D01*
X143049727Y-30947944D01*
X143049729Y-30947941D01*
X143114820Y-30826162D01*
X143196167Y-30727040D01*
X143202420Y-30719420D01*
X143309160Y-30631821D01*
X143309159Y-30631821D01*
X143309161Y-30631820D01*
X143430941Y-30566728D01*
X143430943Y-30566727D01*
X143563079Y-30526643D01*
X143700500Y-30513109D01*
X143837920Y-30526643D01*
X143837920Y-30526643D01*
G37*
G36*
X115897920Y-30526643D02*
G01*
X116030056Y-30566727D01*
X116030058Y-30566728D01*
X116151838Y-30631820D01*
X116151840Y-30631821D01*
X116151839Y-30631821D01*
X116258580Y-30719420D01*
X116332860Y-30809930D01*
X116346180Y-30826161D01*
X116350253Y-30833782D01*
X116411273Y-30947943D01*
X116451357Y-31080079D01*
X116461500Y-31183068D01*
X116461500Y-32951932D01*
X116451357Y-33054921D01*
X116411273Y-33187057D01*
X116411272Y-33187059D01*
X116346180Y-33308839D01*
X116258580Y-33415580D01*
X116151839Y-33503180D01*
X116030059Y-33568272D01*
X116030057Y-33568273D01*
X115897921Y-33608357D01*
X115760500Y-33621891D01*
X115623080Y-33608357D01*
X115490944Y-33568273D01*
X115490942Y-33568272D01*
X115369162Y-33503180D01*
X115262421Y-33415580D01*
X115174821Y-33308839D01*
X115109729Y-33187059D01*
X115109728Y-33187057D01*
X115069644Y-33054921D01*
X115059501Y-32951932D01*
X115059500Y-31183069D01*
X115069643Y-31080080D01*
X115109727Y-30947944D01*
X115109729Y-30947941D01*
X115174820Y-30826162D01*
X115256167Y-30727040D01*
X115262420Y-30719420D01*
X115369160Y-30631821D01*
X115369159Y-30631821D01*
X115369161Y-30631820D01*
X115490941Y-30566728D01*
X115490943Y-30566727D01*
X115623079Y-30526643D01*
X115760500Y-30513109D01*
X115897920Y-30526643D01*
X115897920Y-30526643D01*
G37*
G36*
X146377920Y-30526643D02*
G01*
X146510056Y-30566727D01*
X146510058Y-30566728D01*
X146631838Y-30631820D01*
X146631840Y-30631821D01*
X146631839Y-30631821D01*
X146738580Y-30719420D01*
X146812860Y-30809930D01*
X146826180Y-30826161D01*
X146830253Y-30833782D01*
X146891273Y-30947943D01*
X146931357Y-31080079D01*
X146941500Y-31183068D01*
X146941500Y-32951932D01*
X146931357Y-33054921D01*
X146891273Y-33187057D01*
X146891272Y-33187059D01*
X146826180Y-33308839D01*
X146738580Y-33415580D01*
X146631839Y-33503180D01*
X146510059Y-33568272D01*
X146510057Y-33568273D01*
X146377921Y-33608357D01*
X146240500Y-33621891D01*
X146103080Y-33608357D01*
X145970944Y-33568273D01*
X145970942Y-33568272D01*
X145849162Y-33503180D01*
X145742421Y-33415580D01*
X145654821Y-33308839D01*
X145589729Y-33187059D01*
X145589728Y-33187057D01*
X145549644Y-33054921D01*
X145539501Y-32951932D01*
X145539500Y-31183069D01*
X145549643Y-31080080D01*
X145589727Y-30947944D01*
X145589729Y-30947941D01*
X145654820Y-30826162D01*
X145736167Y-30727040D01*
X145742420Y-30719420D01*
X145849160Y-30631821D01*
X145849159Y-30631821D01*
X145849161Y-30631820D01*
X145970941Y-30566728D01*
X145970943Y-30566727D01*
X146103079Y-30526643D01*
X146240500Y-30513109D01*
X146377920Y-30526643D01*
X146377920Y-30526643D01*
G37*
G36*
X118437920Y-30526643D02*
G01*
X118570056Y-30566727D01*
X118570058Y-30566728D01*
X118691838Y-30631820D01*
X118691840Y-30631821D01*
X118691839Y-30631821D01*
X118798580Y-30719420D01*
X118872860Y-30809930D01*
X118886180Y-30826161D01*
X118890253Y-30833782D01*
X118951273Y-30947943D01*
X118991357Y-31080079D01*
X119001500Y-31183068D01*
X119001500Y-32951932D01*
X118991357Y-33054921D01*
X118951273Y-33187057D01*
X118951272Y-33187059D01*
X118886180Y-33308839D01*
X118798580Y-33415580D01*
X118691839Y-33503180D01*
X118570059Y-33568272D01*
X118570057Y-33568273D01*
X118437921Y-33608357D01*
X118300500Y-33621891D01*
X118163080Y-33608357D01*
X118030944Y-33568273D01*
X118030942Y-33568272D01*
X117909162Y-33503180D01*
X117802421Y-33415580D01*
X117714821Y-33308839D01*
X117649729Y-33187059D01*
X117649728Y-33187057D01*
X117609644Y-33054921D01*
X117599501Y-32951932D01*
X117599500Y-31183069D01*
X117609643Y-31080080D01*
X117649727Y-30947944D01*
X117649729Y-30947941D01*
X117714820Y-30826162D01*
X117796167Y-30727040D01*
X117802420Y-30719420D01*
X117909160Y-30631821D01*
X117909159Y-30631821D01*
X117909161Y-30631820D01*
X118030941Y-30566728D01*
X118030943Y-30566727D01*
X118163079Y-30526643D01*
X118300500Y-30513109D01*
X118437920Y-30526643D01*
X118437920Y-30526643D01*
G37*
G36*
X148917920Y-30526643D02*
G01*
X149050056Y-30566727D01*
X149050058Y-30566728D01*
X149171838Y-30631820D01*
X149171840Y-30631821D01*
X149171839Y-30631821D01*
X149278580Y-30719420D01*
X149352860Y-30809930D01*
X149366180Y-30826161D01*
X149370253Y-30833782D01*
X149431273Y-30947943D01*
X149471357Y-31080079D01*
X149481500Y-31183068D01*
X149481500Y-32951932D01*
X149471357Y-33054921D01*
X149431273Y-33187057D01*
X149431272Y-33187059D01*
X149366180Y-33308839D01*
X149278580Y-33415580D01*
X149171839Y-33503180D01*
X149050059Y-33568272D01*
X149050057Y-33568273D01*
X148917921Y-33608357D01*
X148780500Y-33621891D01*
X148643080Y-33608357D01*
X148510944Y-33568273D01*
X148510942Y-33568272D01*
X148389162Y-33503180D01*
X148282421Y-33415580D01*
X148194821Y-33308839D01*
X148129729Y-33187059D01*
X148129728Y-33187057D01*
X148089644Y-33054921D01*
X148079501Y-32951932D01*
X148079500Y-31183069D01*
X148089643Y-31080080D01*
X148129727Y-30947944D01*
X148129729Y-30947941D01*
X148194820Y-30826162D01*
X148276167Y-30727040D01*
X148282420Y-30719420D01*
X148389160Y-30631821D01*
X148389159Y-30631821D01*
X148389161Y-30631820D01*
X148510941Y-30566728D01*
X148510943Y-30566727D01*
X148643079Y-30526643D01*
X148780500Y-30513109D01*
X148917920Y-30526643D01*
X148917920Y-30526643D01*
G37*
G36*
X120977920Y-30526643D02*
G01*
X121110056Y-30566727D01*
X121110058Y-30566728D01*
X121231838Y-30631820D01*
X121231840Y-30631821D01*
X121231839Y-30631821D01*
X121338580Y-30719420D01*
X121412860Y-30809930D01*
X121426180Y-30826161D01*
X121430253Y-30833782D01*
X121491273Y-30947943D01*
X121531357Y-31080079D01*
X121541500Y-31183068D01*
X121541500Y-32951932D01*
X121531357Y-33054921D01*
X121491273Y-33187057D01*
X121491272Y-33187059D01*
X121426180Y-33308839D01*
X121338580Y-33415580D01*
X121231839Y-33503180D01*
X121110059Y-33568272D01*
X121110057Y-33568273D01*
X120977921Y-33608357D01*
X120840500Y-33621891D01*
X120703080Y-33608357D01*
X120570944Y-33568273D01*
X120570942Y-33568272D01*
X120449162Y-33503180D01*
X120342421Y-33415580D01*
X120254821Y-33308839D01*
X120189729Y-33187059D01*
X120189728Y-33187057D01*
X120149644Y-33054921D01*
X120139501Y-32951932D01*
X120139500Y-31183069D01*
X120149643Y-31080080D01*
X120189727Y-30947944D01*
X120189729Y-30947941D01*
X120254820Y-30826162D01*
X120336167Y-30727040D01*
X120342420Y-30719420D01*
X120449160Y-30631821D01*
X120449159Y-30631821D01*
X120449161Y-30631820D01*
X120570941Y-30566728D01*
X120570943Y-30566727D01*
X120703079Y-30526643D01*
X120840500Y-30513109D01*
X120977920Y-30526643D01*
X120977920Y-30526643D01*
G37*
G36*
X151457920Y-30526643D02*
G01*
X151590056Y-30566727D01*
X151590058Y-30566728D01*
X151711838Y-30631820D01*
X151711840Y-30631821D01*
X151711839Y-30631821D01*
X151818580Y-30719420D01*
X151892860Y-30809930D01*
X151906180Y-30826161D01*
X151910253Y-30833782D01*
X151971273Y-30947943D01*
X152011357Y-31080079D01*
X152021500Y-31183068D01*
X152021500Y-32951932D01*
X152011357Y-33054921D01*
X151971273Y-33187057D01*
X151971272Y-33187059D01*
X151906180Y-33308839D01*
X151818580Y-33415580D01*
X151711839Y-33503180D01*
X151590059Y-33568272D01*
X151590057Y-33568273D01*
X151457921Y-33608357D01*
X151320500Y-33621891D01*
X151183080Y-33608357D01*
X151050944Y-33568273D01*
X151050942Y-33568272D01*
X150929162Y-33503180D01*
X150822421Y-33415580D01*
X150734821Y-33308839D01*
X150669729Y-33187059D01*
X150669728Y-33187057D01*
X150629644Y-33054921D01*
X150619501Y-32951932D01*
X150619500Y-31183069D01*
X150629643Y-31080080D01*
X150669727Y-30947944D01*
X150669729Y-30947941D01*
X150734820Y-30826162D01*
X150816167Y-30727040D01*
X150822420Y-30719420D01*
X150929160Y-30631821D01*
X150929159Y-30631821D01*
X150929161Y-30631820D01*
X151050941Y-30566728D01*
X151050943Y-30566727D01*
X151183079Y-30526643D01*
X151320500Y-30513109D01*
X151457920Y-30526643D01*
X151457920Y-30526643D01*
G37*
G36*
X123517920Y-30526643D02*
G01*
X123650056Y-30566727D01*
X123650058Y-30566728D01*
X123771838Y-30631820D01*
X123771840Y-30631821D01*
X123771839Y-30631821D01*
X123878580Y-30719420D01*
X123952860Y-30809930D01*
X123966180Y-30826161D01*
X123970253Y-30833782D01*
X124031273Y-30947943D01*
X124071357Y-31080079D01*
X124081500Y-31183068D01*
X124081500Y-32951932D01*
X124071357Y-33054921D01*
X124031273Y-33187057D01*
X124031272Y-33187059D01*
X123966180Y-33308839D01*
X123878580Y-33415580D01*
X123771839Y-33503180D01*
X123650059Y-33568272D01*
X123650057Y-33568273D01*
X123517921Y-33608357D01*
X123380500Y-33621891D01*
X123243080Y-33608357D01*
X123110944Y-33568273D01*
X123110942Y-33568272D01*
X122989162Y-33503180D01*
X122882421Y-33415580D01*
X122794821Y-33308839D01*
X122729729Y-33187059D01*
X122729728Y-33187057D01*
X122689644Y-33054921D01*
X122679501Y-32951932D01*
X122679500Y-31183069D01*
X122689643Y-31080080D01*
X122729727Y-30947944D01*
X122729729Y-30947941D01*
X122794820Y-30826162D01*
X122876167Y-30727040D01*
X122882420Y-30719420D01*
X122989160Y-30631821D01*
X122989159Y-30631821D01*
X122989161Y-30631820D01*
X123110941Y-30566728D01*
X123110943Y-30566727D01*
X123243079Y-30526643D01*
X123380500Y-30513109D01*
X123517920Y-30526643D01*
X123517920Y-30526643D01*
G37*
G36*
X126057920Y-30526643D02*
G01*
X126190056Y-30566727D01*
X126190058Y-30566728D01*
X126311838Y-30631820D01*
X126311840Y-30631821D01*
X126311839Y-30631821D01*
X126418580Y-30719420D01*
X126492860Y-30809930D01*
X126506180Y-30826161D01*
X126510253Y-30833782D01*
X126571273Y-30947943D01*
X126611357Y-31080079D01*
X126621500Y-31183068D01*
X126621500Y-32951932D01*
X126611357Y-33054921D01*
X126571273Y-33187057D01*
X126571272Y-33187059D01*
X126506180Y-33308839D01*
X126418580Y-33415580D01*
X126311839Y-33503180D01*
X126190059Y-33568272D01*
X126190057Y-33568273D01*
X126057921Y-33608357D01*
X125920500Y-33621891D01*
X125783080Y-33608357D01*
X125650944Y-33568273D01*
X125650942Y-33568272D01*
X125529162Y-33503180D01*
X125422421Y-33415580D01*
X125334821Y-33308839D01*
X125269729Y-33187059D01*
X125269728Y-33187057D01*
X125229644Y-33054921D01*
X125219501Y-32951932D01*
X125219500Y-31183069D01*
X125229643Y-31080080D01*
X125269727Y-30947944D01*
X125269729Y-30947941D01*
X125334820Y-30826162D01*
X125416167Y-30727040D01*
X125422420Y-30719420D01*
X125529160Y-30631821D01*
X125529159Y-30631821D01*
X125529161Y-30631820D01*
X125650941Y-30566728D01*
X125650943Y-30566727D01*
X125783079Y-30526643D01*
X125920500Y-30513109D01*
X126057920Y-30526643D01*
X126057920Y-30526643D01*
G37*
G36*
X156537920Y-30526643D02*
G01*
X156670056Y-30566727D01*
X156670058Y-30566728D01*
X156791838Y-30631820D01*
X156791840Y-30631821D01*
X156791839Y-30631821D01*
X156898580Y-30719420D01*
X156972860Y-30809930D01*
X156986180Y-30826161D01*
X156990253Y-30833782D01*
X157051273Y-30947943D01*
X157091357Y-31080079D01*
X157101500Y-31183068D01*
X157101500Y-32951932D01*
X157091357Y-33054921D01*
X157051273Y-33187057D01*
X157051272Y-33187059D01*
X156986180Y-33308839D01*
X156898580Y-33415580D01*
X156791839Y-33503180D01*
X156670059Y-33568272D01*
X156670057Y-33568273D01*
X156537921Y-33608357D01*
X156400500Y-33621891D01*
X156263080Y-33608357D01*
X156130944Y-33568273D01*
X156130942Y-33568272D01*
X156009162Y-33503180D01*
X155902421Y-33415580D01*
X155814821Y-33308839D01*
X155749729Y-33187059D01*
X155749728Y-33187057D01*
X155709644Y-33054921D01*
X155699501Y-32951932D01*
X155699500Y-31183069D01*
X155709643Y-31080080D01*
X155749727Y-30947944D01*
X155749729Y-30947941D01*
X155814820Y-30826162D01*
X155896167Y-30727040D01*
X155902420Y-30719420D01*
X156009160Y-30631821D01*
X156009159Y-30631821D01*
X156009161Y-30631820D01*
X156130941Y-30566728D01*
X156130943Y-30566727D01*
X156263079Y-30526643D01*
X156400500Y-30513109D01*
X156537920Y-30526643D01*
X156537920Y-30526643D01*
G37*
G36*
X128597920Y-30526643D02*
G01*
X128730056Y-30566727D01*
X128730058Y-30566728D01*
X128851838Y-30631820D01*
X128851840Y-30631821D01*
X128851839Y-30631821D01*
X128958580Y-30719420D01*
X129032860Y-30809930D01*
X129046180Y-30826161D01*
X129050253Y-30833782D01*
X129111273Y-30947943D01*
X129151357Y-31080079D01*
X129161500Y-31183068D01*
X129161500Y-32951932D01*
X129151357Y-33054921D01*
X129111273Y-33187057D01*
X129111272Y-33187059D01*
X129046180Y-33308839D01*
X128958580Y-33415580D01*
X128851839Y-33503180D01*
X128730059Y-33568272D01*
X128730057Y-33568273D01*
X128597921Y-33608357D01*
X128460500Y-33621891D01*
X128323080Y-33608357D01*
X128190944Y-33568273D01*
X128190942Y-33568272D01*
X128069162Y-33503180D01*
X127962421Y-33415580D01*
X127874821Y-33308839D01*
X127809729Y-33187059D01*
X127809728Y-33187057D01*
X127769644Y-33054921D01*
X127759501Y-32951932D01*
X127759500Y-31183069D01*
X127769643Y-31080080D01*
X127809727Y-30947944D01*
X127809729Y-30947941D01*
X127874820Y-30826162D01*
X127956167Y-30727040D01*
X127962420Y-30719420D01*
X128069160Y-30631821D01*
X128069159Y-30631821D01*
X128069161Y-30631820D01*
X128190941Y-30566728D01*
X128190943Y-30566727D01*
X128323079Y-30526643D01*
X128460500Y-30513109D01*
X128597920Y-30526643D01*
X128597920Y-30526643D01*
G37*
G36*
X159077920Y-30526643D02*
G01*
X159210056Y-30566727D01*
X159210058Y-30566728D01*
X159331838Y-30631820D01*
X159331840Y-30631821D01*
X159331839Y-30631821D01*
X159438580Y-30719420D01*
X159512860Y-30809930D01*
X159526180Y-30826161D01*
X159530253Y-30833782D01*
X159591273Y-30947943D01*
X159631357Y-31080079D01*
X159641500Y-31183068D01*
X159641500Y-32951932D01*
X159631357Y-33054921D01*
X159591273Y-33187057D01*
X159591272Y-33187059D01*
X159526180Y-33308839D01*
X159438580Y-33415580D01*
X159331839Y-33503180D01*
X159210059Y-33568272D01*
X159210057Y-33568273D01*
X159077921Y-33608357D01*
X158940500Y-33621891D01*
X158803080Y-33608357D01*
X158670944Y-33568273D01*
X158670942Y-33568272D01*
X158549162Y-33503180D01*
X158442421Y-33415580D01*
X158354821Y-33308839D01*
X158289729Y-33187059D01*
X158289728Y-33187057D01*
X158249644Y-33054921D01*
X158239501Y-32951932D01*
X158239500Y-31183069D01*
X158249643Y-31080080D01*
X158289727Y-30947944D01*
X158289729Y-30947941D01*
X158354820Y-30826162D01*
X158436167Y-30727040D01*
X158442420Y-30719420D01*
X158549160Y-30631821D01*
X158549159Y-30631821D01*
X158549161Y-30631820D01*
X158670941Y-30566728D01*
X158670943Y-30566727D01*
X158803079Y-30526643D01*
X158940500Y-30513109D01*
X159077920Y-30526643D01*
X159077920Y-30526643D01*
G37*
G36*
X133677920Y-30526643D02*
G01*
X133810056Y-30566727D01*
X133810058Y-30566728D01*
X133931838Y-30631820D01*
X133931840Y-30631821D01*
X133931839Y-30631821D01*
X134038580Y-30719420D01*
X134112860Y-30809930D01*
X134126180Y-30826161D01*
X134130253Y-30833782D01*
X134191273Y-30947943D01*
X134231357Y-31080079D01*
X134241500Y-31183068D01*
X134241500Y-32951932D01*
X134231357Y-33054921D01*
X134191273Y-33187057D01*
X134191272Y-33187059D01*
X134126180Y-33308839D01*
X134038580Y-33415580D01*
X133931839Y-33503180D01*
X133810059Y-33568272D01*
X133810057Y-33568273D01*
X133677921Y-33608357D01*
X133540500Y-33621891D01*
X133403080Y-33608357D01*
X133270944Y-33568273D01*
X133270942Y-33568272D01*
X133149162Y-33503180D01*
X133042421Y-33415580D01*
X132954821Y-33308839D01*
X132889729Y-33187059D01*
X132889728Y-33187057D01*
X132849644Y-33054921D01*
X132839501Y-32951932D01*
X132839500Y-31183069D01*
X132849643Y-31080080D01*
X132889727Y-30947944D01*
X132889729Y-30947941D01*
X132954820Y-30826162D01*
X133036167Y-30727040D01*
X133042420Y-30719420D01*
X133149160Y-30631821D01*
X133149159Y-30631821D01*
X133149161Y-30631820D01*
X133270941Y-30566728D01*
X133270943Y-30566727D01*
X133403079Y-30526643D01*
X133540500Y-30513109D01*
X133677920Y-30526643D01*
X133677920Y-30526643D01*
G37*
G36*
X136217920Y-30526643D02*
G01*
X136350056Y-30566727D01*
X136350058Y-30566728D01*
X136471838Y-30631820D01*
X136471840Y-30631821D01*
X136471839Y-30631821D01*
X136578580Y-30719420D01*
X136652860Y-30809930D01*
X136666180Y-30826161D01*
X136670253Y-30833782D01*
X136731273Y-30947943D01*
X136771357Y-31080079D01*
X136781500Y-31183068D01*
X136781500Y-32951932D01*
X136771357Y-33054921D01*
X136731273Y-33187057D01*
X136731272Y-33187059D01*
X136666180Y-33308839D01*
X136578580Y-33415580D01*
X136471839Y-33503180D01*
X136350059Y-33568272D01*
X136350057Y-33568273D01*
X136217921Y-33608357D01*
X136080500Y-33621891D01*
X135943080Y-33608357D01*
X135810944Y-33568273D01*
X135810942Y-33568272D01*
X135689162Y-33503180D01*
X135582421Y-33415580D01*
X135494821Y-33308839D01*
X135429729Y-33187059D01*
X135429728Y-33187057D01*
X135389644Y-33054921D01*
X135379501Y-32951932D01*
X135379500Y-31183069D01*
X135389643Y-31080080D01*
X135429727Y-30947944D01*
X135429729Y-30947941D01*
X135494820Y-30826162D01*
X135576167Y-30727040D01*
X135582420Y-30719420D01*
X135689160Y-30631821D01*
X135689159Y-30631821D01*
X135689161Y-30631820D01*
X135810941Y-30566728D01*
X135810943Y-30566727D01*
X135943079Y-30526643D01*
X136080500Y-30513109D01*
X136217920Y-30526643D01*
X136217920Y-30526643D01*
G37*
G36*
X115897920Y-15294263D02*
G01*
X116030056Y-15334347D01*
X116030058Y-15334348D01*
X116151838Y-15399440D01*
X116151840Y-15399441D01*
X116151839Y-15399441D01*
X116258580Y-15487040D01*
X116332860Y-15577550D01*
X116346180Y-15593781D01*
X116407199Y-15707941D01*
X116411273Y-15715563D01*
X116451357Y-15847699D01*
X116461500Y-15950688D01*
X116461500Y-17719552D01*
X116451357Y-17822541D01*
X116413584Y-17947059D01*
X116411272Y-17954679D01*
X116346180Y-18076459D01*
X116258580Y-18183200D01*
X116151839Y-18270800D01*
X116044315Y-18328272D01*
X116030057Y-18335893D01*
X115897921Y-18375977D01*
X115760500Y-18389511D01*
X115623080Y-18375977D01*
X115490944Y-18335893D01*
X115476686Y-18328272D01*
X115369162Y-18270800D01*
X115262421Y-18183200D01*
X115174821Y-18076459D01*
X115109729Y-17954679D01*
X115107417Y-17947059D01*
X115069644Y-17822541D01*
X115059501Y-17719552D01*
X115059500Y-15950689D01*
X115069643Y-15847700D01*
X115109727Y-15715564D01*
X115113801Y-15707942D01*
X115174820Y-15593782D01*
X115190529Y-15574640D01*
X115262420Y-15487040D01*
X115369160Y-15399441D01*
X115369159Y-15399441D01*
X115369161Y-15399440D01*
X115490941Y-15334348D01*
X115490943Y-15334347D01*
X115623079Y-15294263D01*
X115760500Y-15280729D01*
X115897920Y-15294263D01*
X115897920Y-15294263D01*
G37*
G36*
X141297920Y-15294263D02*
G01*
X141430056Y-15334347D01*
X141430058Y-15334348D01*
X141551838Y-15399440D01*
X141551840Y-15399441D01*
X141551839Y-15399441D01*
X141658580Y-15487040D01*
X141732860Y-15577550D01*
X141746180Y-15593781D01*
X141807199Y-15707941D01*
X141811273Y-15715563D01*
X141851357Y-15847699D01*
X141861500Y-15950688D01*
X141861500Y-17719552D01*
X141851357Y-17822541D01*
X141813584Y-17947059D01*
X141811272Y-17954679D01*
X141746180Y-18076459D01*
X141658580Y-18183200D01*
X141551839Y-18270800D01*
X141444315Y-18328272D01*
X141430057Y-18335893D01*
X141297921Y-18375977D01*
X141160500Y-18389511D01*
X141023080Y-18375977D01*
X140890944Y-18335893D01*
X140876686Y-18328272D01*
X140769162Y-18270800D01*
X140662421Y-18183200D01*
X140574821Y-18076459D01*
X140509729Y-17954679D01*
X140507417Y-17947059D01*
X140469644Y-17822541D01*
X140459501Y-17719552D01*
X140459500Y-15950689D01*
X140469643Y-15847700D01*
X140509727Y-15715564D01*
X140513801Y-15707942D01*
X140574820Y-15593782D01*
X140590529Y-15574640D01*
X140662420Y-15487040D01*
X140769160Y-15399441D01*
X140769159Y-15399441D01*
X140769161Y-15399440D01*
X140890941Y-15334348D01*
X140890943Y-15334347D01*
X141023079Y-15294263D01*
X141160500Y-15280729D01*
X141297920Y-15294263D01*
X141297920Y-15294263D01*
G37*
G36*
X146377920Y-15286643D02*
G01*
X146510056Y-15326727D01*
X146510058Y-15326728D01*
X146631838Y-15391820D01*
X146631840Y-15391821D01*
X146631839Y-15391821D01*
X146738580Y-15479420D01*
X146812860Y-15569930D01*
X146826180Y-15586161D01*
X146830253Y-15593782D01*
X146891273Y-15707943D01*
X146931357Y-15840079D01*
X146941500Y-15943068D01*
X146941500Y-17711932D01*
X146931357Y-17814921D01*
X146891273Y-17947057D01*
X146891272Y-17947059D01*
X146826180Y-18068839D01*
X146738580Y-18175580D01*
X146631839Y-18263180D01*
X146510059Y-18328272D01*
X146510057Y-18328273D01*
X146377921Y-18368357D01*
X146240500Y-18381891D01*
X146103080Y-18368357D01*
X145970944Y-18328273D01*
X145970942Y-18328272D01*
X145849162Y-18263180D01*
X145742421Y-18175580D01*
X145654821Y-18068839D01*
X145589729Y-17947059D01*
X145589728Y-17947057D01*
X145549644Y-17814921D01*
X145539501Y-17711932D01*
X145539500Y-15943069D01*
X145549643Y-15840080D01*
X145589727Y-15707944D01*
X145589729Y-15707941D01*
X145654820Y-15586162D01*
X145736167Y-15487040D01*
X145742420Y-15479420D01*
X145849160Y-15391821D01*
X145849159Y-15391821D01*
X145849161Y-15391820D01*
X145970941Y-15326728D01*
X145970943Y-15326727D01*
X146103079Y-15286643D01*
X146240500Y-15273109D01*
X146377920Y-15286643D01*
X146377920Y-15286643D01*
G37*
G36*
X143837920Y-15286643D02*
G01*
X143970056Y-15326727D01*
X143970058Y-15326728D01*
X144091838Y-15391820D01*
X144091840Y-15391821D01*
X144091839Y-15391821D01*
X144198580Y-15479420D01*
X144272860Y-15569930D01*
X144286180Y-15586161D01*
X144290253Y-15593782D01*
X144351273Y-15707943D01*
X144391357Y-15840079D01*
X144401500Y-15943068D01*
X144401500Y-17711932D01*
X144391357Y-17814921D01*
X144351273Y-17947057D01*
X144351272Y-17947059D01*
X144286180Y-18068839D01*
X144198580Y-18175580D01*
X144091839Y-18263180D01*
X143970059Y-18328272D01*
X143970057Y-18328273D01*
X143837921Y-18368357D01*
X143700500Y-18381891D01*
X143563080Y-18368357D01*
X143430944Y-18328273D01*
X143430942Y-18328272D01*
X143309162Y-18263180D01*
X143202421Y-18175580D01*
X143114821Y-18068839D01*
X143049729Y-17947059D01*
X143049728Y-17947057D01*
X143009644Y-17814921D01*
X142999501Y-17711932D01*
X142999500Y-15943069D01*
X143009643Y-15840080D01*
X143049727Y-15707944D01*
X143049729Y-15707941D01*
X143114820Y-15586162D01*
X143196167Y-15487040D01*
X143202420Y-15479420D01*
X143309160Y-15391821D01*
X143309159Y-15391821D01*
X143309161Y-15391820D01*
X143430941Y-15326728D01*
X143430943Y-15326727D01*
X143563079Y-15286643D01*
X143700500Y-15273109D01*
X143837920Y-15286643D01*
X143837920Y-15286643D01*
G37*
G36*
X138757920Y-15286643D02*
G01*
X138890056Y-15326727D01*
X138890058Y-15326728D01*
X139011838Y-15391820D01*
X139011840Y-15391821D01*
X139011839Y-15391821D01*
X139118580Y-15479420D01*
X139192860Y-15569930D01*
X139206180Y-15586161D01*
X139210253Y-15593782D01*
X139271273Y-15707943D01*
X139311357Y-15840079D01*
X139321500Y-15943068D01*
X139321500Y-17711932D01*
X139311357Y-17814921D01*
X139271273Y-17947057D01*
X139271272Y-17947059D01*
X139206180Y-18068839D01*
X139118580Y-18175580D01*
X139011839Y-18263180D01*
X138890059Y-18328272D01*
X138890057Y-18328273D01*
X138757921Y-18368357D01*
X138620500Y-18381891D01*
X138483080Y-18368357D01*
X138350944Y-18328273D01*
X138350942Y-18328272D01*
X138229162Y-18263180D01*
X138122421Y-18175580D01*
X138034821Y-18068839D01*
X137969729Y-17947059D01*
X137969728Y-17947057D01*
X137929644Y-17814921D01*
X137919501Y-17711932D01*
X137919500Y-15943069D01*
X137929643Y-15840080D01*
X137969727Y-15707944D01*
X137969729Y-15707941D01*
X138034820Y-15586162D01*
X138116167Y-15487040D01*
X138122420Y-15479420D01*
X138229160Y-15391821D01*
X138229159Y-15391821D01*
X138229161Y-15391820D01*
X138350941Y-15326728D01*
X138350943Y-15326727D01*
X138483079Y-15286643D01*
X138620500Y-15273109D01*
X138757920Y-15286643D01*
X138757920Y-15286643D01*
G37*
G36*
X136217920Y-15286643D02*
G01*
X136350056Y-15326727D01*
X136350058Y-15326728D01*
X136471838Y-15391820D01*
X136471840Y-15391821D01*
X136471839Y-15391821D01*
X136578580Y-15479420D01*
X136652860Y-15569930D01*
X136666180Y-15586161D01*
X136670253Y-15593782D01*
X136731273Y-15707943D01*
X136771357Y-15840079D01*
X136781500Y-15943068D01*
X136781500Y-17711932D01*
X136771357Y-17814921D01*
X136731273Y-17947057D01*
X136731272Y-17947059D01*
X136666180Y-18068839D01*
X136578580Y-18175580D01*
X136471839Y-18263180D01*
X136350059Y-18328272D01*
X136350057Y-18328273D01*
X136217921Y-18368357D01*
X136080500Y-18381891D01*
X135943080Y-18368357D01*
X135810944Y-18328273D01*
X135810942Y-18328272D01*
X135689162Y-18263180D01*
X135582421Y-18175580D01*
X135494821Y-18068839D01*
X135429729Y-17947059D01*
X135429728Y-17947057D01*
X135389644Y-17814921D01*
X135379501Y-17711932D01*
X135379500Y-15943069D01*
X135389643Y-15840080D01*
X135429727Y-15707944D01*
X135429729Y-15707941D01*
X135494820Y-15586162D01*
X135576167Y-15487040D01*
X135582420Y-15479420D01*
X135689160Y-15391821D01*
X135689159Y-15391821D01*
X135689161Y-15391820D01*
X135810941Y-15326728D01*
X135810943Y-15326727D01*
X135943079Y-15286643D01*
X136080500Y-15273109D01*
X136217920Y-15286643D01*
X136217920Y-15286643D01*
G37*
G36*
X133677920Y-15286643D02*
G01*
X133810056Y-15326727D01*
X133810058Y-15326728D01*
X133931838Y-15391820D01*
X133931840Y-15391821D01*
X133931839Y-15391821D01*
X134038580Y-15479420D01*
X134112860Y-15569930D01*
X134126180Y-15586161D01*
X134130253Y-15593782D01*
X134191273Y-15707943D01*
X134231357Y-15840079D01*
X134241500Y-15943068D01*
X134241500Y-17711932D01*
X134231357Y-17814921D01*
X134191273Y-17947057D01*
X134191272Y-17947059D01*
X134126180Y-18068839D01*
X134038580Y-18175580D01*
X133931839Y-18263180D01*
X133810059Y-18328272D01*
X133810057Y-18328273D01*
X133677921Y-18368357D01*
X133540500Y-18381891D01*
X133403080Y-18368357D01*
X133270944Y-18328273D01*
X133270942Y-18328272D01*
X133149162Y-18263180D01*
X133042421Y-18175580D01*
X132954821Y-18068839D01*
X132889729Y-17947059D01*
X132889728Y-17947057D01*
X132849644Y-17814921D01*
X132839501Y-17711932D01*
X132839500Y-15943069D01*
X132849643Y-15840080D01*
X132889727Y-15707944D01*
X132889729Y-15707941D01*
X132954820Y-15586162D01*
X133036167Y-15487040D01*
X133042420Y-15479420D01*
X133149160Y-15391821D01*
X133149159Y-15391821D01*
X133149161Y-15391820D01*
X133270941Y-15326728D01*
X133270943Y-15326727D01*
X133403079Y-15286643D01*
X133540500Y-15273109D01*
X133677920Y-15286643D01*
X133677920Y-15286643D01*
G37*
G36*
X131137920Y-15286643D02*
G01*
X131270056Y-15326727D01*
X131270058Y-15326728D01*
X131391838Y-15391820D01*
X131391840Y-15391821D01*
X131391839Y-15391821D01*
X131498580Y-15479420D01*
X131572860Y-15569930D01*
X131586180Y-15586161D01*
X131590253Y-15593782D01*
X131651273Y-15707943D01*
X131691357Y-15840079D01*
X131701500Y-15943068D01*
X131701500Y-17711932D01*
X131691357Y-17814921D01*
X131651273Y-17947057D01*
X131651272Y-17947059D01*
X131586180Y-18068839D01*
X131498580Y-18175580D01*
X131391839Y-18263180D01*
X131270059Y-18328272D01*
X131270057Y-18328273D01*
X131137921Y-18368357D01*
X131000500Y-18381891D01*
X130863080Y-18368357D01*
X130730944Y-18328273D01*
X130730942Y-18328272D01*
X130609162Y-18263180D01*
X130502421Y-18175580D01*
X130414821Y-18068839D01*
X130349729Y-17947059D01*
X130349728Y-17947057D01*
X130309644Y-17814921D01*
X130299501Y-17711932D01*
X130299500Y-15943069D01*
X130309643Y-15840080D01*
X130349727Y-15707944D01*
X130349729Y-15707941D01*
X130414820Y-15586162D01*
X130496167Y-15487040D01*
X130502420Y-15479420D01*
X130609160Y-15391821D01*
X130609159Y-15391821D01*
X130609161Y-15391820D01*
X130730941Y-15326728D01*
X130730943Y-15326727D01*
X130863079Y-15286643D01*
X131000500Y-15273109D01*
X131137920Y-15286643D01*
X131137920Y-15286643D01*
G37*
G36*
X128597920Y-15286643D02*
G01*
X128730056Y-15326727D01*
X128730058Y-15326728D01*
X128851838Y-15391820D01*
X128851840Y-15391821D01*
X128851839Y-15391821D01*
X128958580Y-15479420D01*
X129032860Y-15569930D01*
X129046180Y-15586161D01*
X129050253Y-15593782D01*
X129111273Y-15707943D01*
X129151357Y-15840079D01*
X129161500Y-15943068D01*
X129161500Y-17711932D01*
X129151357Y-17814921D01*
X129111273Y-17947057D01*
X129111272Y-17947059D01*
X129046180Y-18068839D01*
X128958580Y-18175580D01*
X128851839Y-18263180D01*
X128730059Y-18328272D01*
X128730057Y-18328273D01*
X128597921Y-18368357D01*
X128460500Y-18381891D01*
X128323080Y-18368357D01*
X128190944Y-18328273D01*
X128190942Y-18328272D01*
X128069162Y-18263180D01*
X127962421Y-18175580D01*
X127874821Y-18068839D01*
X127809729Y-17947059D01*
X127809728Y-17947057D01*
X127769644Y-17814921D01*
X127759501Y-17711932D01*
X127759500Y-15943069D01*
X127769643Y-15840080D01*
X127809727Y-15707944D01*
X127809729Y-15707941D01*
X127874820Y-15586162D01*
X127956167Y-15487040D01*
X127962420Y-15479420D01*
X128069160Y-15391821D01*
X128069159Y-15391821D01*
X128069161Y-15391820D01*
X128190941Y-15326728D01*
X128190943Y-15326727D01*
X128323079Y-15286643D01*
X128460500Y-15273109D01*
X128597920Y-15286643D01*
X128597920Y-15286643D01*
G37*
G36*
X126057920Y-15286643D02*
G01*
X126190056Y-15326727D01*
X126190058Y-15326728D01*
X126311838Y-15391820D01*
X126311840Y-15391821D01*
X126311839Y-15391821D01*
X126418580Y-15479420D01*
X126492860Y-15569930D01*
X126506180Y-15586161D01*
X126510253Y-15593782D01*
X126571273Y-15707943D01*
X126611357Y-15840079D01*
X126621500Y-15943068D01*
X126621500Y-17711932D01*
X126611357Y-17814921D01*
X126571273Y-17947057D01*
X126571272Y-17947059D01*
X126506180Y-18068839D01*
X126418580Y-18175580D01*
X126311839Y-18263180D01*
X126190059Y-18328272D01*
X126190057Y-18328273D01*
X126057921Y-18368357D01*
X125920500Y-18381891D01*
X125783080Y-18368357D01*
X125650944Y-18328273D01*
X125650942Y-18328272D01*
X125529162Y-18263180D01*
X125422421Y-18175580D01*
X125334821Y-18068839D01*
X125269729Y-17947059D01*
X125269728Y-17947057D01*
X125229644Y-17814921D01*
X125219501Y-17711932D01*
X125219500Y-15943069D01*
X125229643Y-15840080D01*
X125269727Y-15707944D01*
X125269729Y-15707941D01*
X125334820Y-15586162D01*
X125416167Y-15487040D01*
X125422420Y-15479420D01*
X125529160Y-15391821D01*
X125529159Y-15391821D01*
X125529161Y-15391820D01*
X125650941Y-15326728D01*
X125650943Y-15326727D01*
X125783079Y-15286643D01*
X125920500Y-15273109D01*
X126057920Y-15286643D01*
X126057920Y-15286643D01*
G37*
G36*
X123517920Y-15286643D02*
G01*
X123650056Y-15326727D01*
X123650058Y-15326728D01*
X123771838Y-15391820D01*
X123771840Y-15391821D01*
X123771839Y-15391821D01*
X123878580Y-15479420D01*
X123952860Y-15569930D01*
X123966180Y-15586161D01*
X123970253Y-15593782D01*
X124031273Y-15707943D01*
X124071357Y-15840079D01*
X124081500Y-15943068D01*
X124081500Y-17711932D01*
X124071357Y-17814921D01*
X124031273Y-17947057D01*
X124031272Y-17947059D01*
X123966180Y-18068839D01*
X123878580Y-18175580D01*
X123771839Y-18263180D01*
X123650059Y-18328272D01*
X123650057Y-18328273D01*
X123517921Y-18368357D01*
X123380500Y-18381891D01*
X123243080Y-18368357D01*
X123110944Y-18328273D01*
X123110942Y-18328272D01*
X122989162Y-18263180D01*
X122882421Y-18175580D01*
X122794821Y-18068839D01*
X122729729Y-17947059D01*
X122729728Y-17947057D01*
X122689644Y-17814921D01*
X122679501Y-17711932D01*
X122679500Y-15943069D01*
X122689643Y-15840080D01*
X122729727Y-15707944D01*
X122729729Y-15707941D01*
X122794820Y-15586162D01*
X122876167Y-15487040D01*
X122882420Y-15479420D01*
X122989160Y-15391821D01*
X122989159Y-15391821D01*
X122989161Y-15391820D01*
X123110941Y-15326728D01*
X123110943Y-15326727D01*
X123243079Y-15286643D01*
X123380500Y-15273109D01*
X123517920Y-15286643D01*
X123517920Y-15286643D01*
G37*
G36*
X120977920Y-15286643D02*
G01*
X121110056Y-15326727D01*
X121110058Y-15326728D01*
X121231838Y-15391820D01*
X121231840Y-15391821D01*
X121231839Y-15391821D01*
X121338580Y-15479420D01*
X121412860Y-15569930D01*
X121426180Y-15586161D01*
X121430253Y-15593782D01*
X121491273Y-15707943D01*
X121531357Y-15840079D01*
X121541500Y-15943068D01*
X121541500Y-17711932D01*
X121531357Y-17814921D01*
X121491273Y-17947057D01*
X121491272Y-17947059D01*
X121426180Y-18068839D01*
X121338580Y-18175580D01*
X121231839Y-18263180D01*
X121110059Y-18328272D01*
X121110057Y-18328273D01*
X120977921Y-18368357D01*
X120840500Y-18381891D01*
X120703080Y-18368357D01*
X120570944Y-18328273D01*
X120570942Y-18328272D01*
X120449162Y-18263180D01*
X120342421Y-18175580D01*
X120254821Y-18068839D01*
X120189729Y-17947059D01*
X120189728Y-17947057D01*
X120149644Y-17814921D01*
X120139501Y-17711932D01*
X120139500Y-15943069D01*
X120149643Y-15840080D01*
X120189727Y-15707944D01*
X120189729Y-15707941D01*
X120254820Y-15586162D01*
X120336167Y-15487040D01*
X120342420Y-15479420D01*
X120449160Y-15391821D01*
X120449159Y-15391821D01*
X120449161Y-15391820D01*
X120570941Y-15326728D01*
X120570943Y-15326727D01*
X120703079Y-15286643D01*
X120840500Y-15273109D01*
X120977920Y-15286643D01*
X120977920Y-15286643D01*
G37*
G36*
X118437920Y-15286643D02*
G01*
X118570056Y-15326727D01*
X118570058Y-15326728D01*
X118691838Y-15391820D01*
X118691840Y-15391821D01*
X118691839Y-15391821D01*
X118798580Y-15479420D01*
X118872860Y-15569930D01*
X118886180Y-15586161D01*
X118890253Y-15593782D01*
X118951273Y-15707943D01*
X118991357Y-15840079D01*
X119001500Y-15943068D01*
X119001500Y-17711932D01*
X118991357Y-17814921D01*
X118951273Y-17947057D01*
X118951272Y-17947059D01*
X118886180Y-18068839D01*
X118798580Y-18175580D01*
X118691839Y-18263180D01*
X118570059Y-18328272D01*
X118570057Y-18328273D01*
X118437921Y-18368357D01*
X118300500Y-18381891D01*
X118163080Y-18368357D01*
X118030944Y-18328273D01*
X118030942Y-18328272D01*
X117909162Y-18263180D01*
X117802421Y-18175580D01*
X117714821Y-18068839D01*
X117649729Y-17947059D01*
X117649728Y-17947057D01*
X117609644Y-17814921D01*
X117599501Y-17711932D01*
X117599500Y-15943069D01*
X117609643Y-15840080D01*
X117649727Y-15707944D01*
X117649729Y-15707941D01*
X117714820Y-15586162D01*
X117796167Y-15487040D01*
X117802420Y-15479420D01*
X117909160Y-15391821D01*
X117909159Y-15391821D01*
X117909161Y-15391820D01*
X118030941Y-15326728D01*
X118030943Y-15326727D01*
X118163079Y-15286643D01*
X118300500Y-15273109D01*
X118437920Y-15286643D01*
X118437920Y-15286643D01*
G37*
G36*
X113357920Y-15286643D02*
G01*
X113490056Y-15326727D01*
X113490058Y-15326728D01*
X113611838Y-15391820D01*
X113611840Y-15391821D01*
X113611839Y-15391821D01*
X113718580Y-15479420D01*
X113792860Y-15569930D01*
X113806180Y-15586161D01*
X113810253Y-15593782D01*
X113871273Y-15707943D01*
X113911357Y-15840079D01*
X113921500Y-15943068D01*
X113921500Y-17711932D01*
X113911357Y-17814921D01*
X113871273Y-17947057D01*
X113871272Y-17947059D01*
X113806180Y-18068839D01*
X113718580Y-18175580D01*
X113611839Y-18263180D01*
X113490059Y-18328272D01*
X113490057Y-18328273D01*
X113357921Y-18368357D01*
X113220500Y-18381891D01*
X113083080Y-18368357D01*
X112950944Y-18328273D01*
X112950942Y-18328272D01*
X112829162Y-18263180D01*
X112722421Y-18175580D01*
X112634821Y-18068839D01*
X112569729Y-17947059D01*
X112569728Y-17947057D01*
X112529644Y-17814921D01*
X112519501Y-17711932D01*
X112519500Y-15943069D01*
X112529643Y-15840080D01*
X112569727Y-15707944D01*
X112569729Y-15707941D01*
X112634820Y-15586162D01*
X112716167Y-15487040D01*
X112722420Y-15479420D01*
X112829160Y-15391821D01*
X112829159Y-15391821D01*
X112829161Y-15391820D01*
X112950941Y-15326728D01*
X112950943Y-15326727D01*
X113083079Y-15286643D01*
X113220500Y-15273109D01*
X113357920Y-15286643D01*
X113357920Y-15286643D01*
G37*
G36*
X110817920Y-15286643D02*
G01*
X110950056Y-15326727D01*
X110950058Y-15326728D01*
X111071838Y-15391820D01*
X111071840Y-15391821D01*
X111071839Y-15391821D01*
X111178580Y-15479420D01*
X111252860Y-15569930D01*
X111266180Y-15586161D01*
X111270253Y-15593782D01*
X111331273Y-15707943D01*
X111371357Y-15840079D01*
X111381500Y-15943068D01*
X111381500Y-17711932D01*
X111371357Y-17814921D01*
X111331273Y-17947057D01*
X111331272Y-17947059D01*
X111266180Y-18068839D01*
X111178580Y-18175580D01*
X111071839Y-18263180D01*
X110950059Y-18328272D01*
X110950057Y-18328273D01*
X110817921Y-18368357D01*
X110680500Y-18381891D01*
X110543080Y-18368357D01*
X110410944Y-18328273D01*
X110410942Y-18328272D01*
X110289162Y-18263180D01*
X110182421Y-18175580D01*
X110094821Y-18068839D01*
X110029729Y-17947059D01*
X110029728Y-17947057D01*
X109989644Y-17814921D01*
X109979501Y-17711932D01*
X109979500Y-15943069D01*
X109989643Y-15840080D01*
X110029727Y-15707944D01*
X110029729Y-15707941D01*
X110094820Y-15586162D01*
X110176167Y-15487040D01*
X110182420Y-15479420D01*
X110289160Y-15391821D01*
X110289159Y-15391821D01*
X110289161Y-15391820D01*
X110410941Y-15326728D01*
X110410943Y-15326727D01*
X110543079Y-15286643D01*
X110680500Y-15273109D01*
X110817920Y-15286643D01*
X110817920Y-15286643D01*
G37*
G36*
X148917920Y-15286643D02*
G01*
X149050056Y-15326727D01*
X149050058Y-15326728D01*
X149171838Y-15391820D01*
X149171840Y-15391821D01*
X149171839Y-15391821D01*
X149278580Y-15479420D01*
X149352860Y-15569930D01*
X149366180Y-15586161D01*
X149370253Y-15593782D01*
X149431273Y-15707943D01*
X149471357Y-15840079D01*
X149481500Y-15943068D01*
X149481500Y-17711932D01*
X149471357Y-17814921D01*
X149431273Y-17947057D01*
X149431272Y-17947059D01*
X149366180Y-18068839D01*
X149278580Y-18175580D01*
X149171839Y-18263180D01*
X149050059Y-18328272D01*
X149050057Y-18328273D01*
X148917921Y-18368357D01*
X148780500Y-18381891D01*
X148643080Y-18368357D01*
X148510944Y-18328273D01*
X148510942Y-18328272D01*
X148389162Y-18263180D01*
X148282421Y-18175580D01*
X148194821Y-18068839D01*
X148129729Y-17947059D01*
X148129728Y-17947057D01*
X148089644Y-17814921D01*
X148079501Y-17711932D01*
X148079500Y-15943069D01*
X148089643Y-15840080D01*
X148129727Y-15707944D01*
X148129729Y-15707941D01*
X148194820Y-15586162D01*
X148276167Y-15487040D01*
X148282420Y-15479420D01*
X148389160Y-15391821D01*
X148389159Y-15391821D01*
X148389161Y-15391820D01*
X148510941Y-15326728D01*
X148510943Y-15326727D01*
X148643079Y-15286643D01*
X148780500Y-15273109D01*
X148917920Y-15286643D01*
X148917920Y-15286643D01*
G37*
G36*
X151457920Y-15286643D02*
G01*
X151590056Y-15326727D01*
X151590058Y-15326728D01*
X151711838Y-15391820D01*
X151711840Y-15391821D01*
X151711839Y-15391821D01*
X151818580Y-15479420D01*
X151892860Y-15569930D01*
X151906180Y-15586161D01*
X151910253Y-15593782D01*
X151971273Y-15707943D01*
X152011357Y-15840079D01*
X152021500Y-15943068D01*
X152021500Y-17711932D01*
X152011357Y-17814921D01*
X151971273Y-17947057D01*
X151971272Y-17947059D01*
X151906180Y-18068839D01*
X151818580Y-18175580D01*
X151711839Y-18263180D01*
X151590059Y-18328272D01*
X151590057Y-18328273D01*
X151457921Y-18368357D01*
X151320500Y-18381891D01*
X151183080Y-18368357D01*
X151050944Y-18328273D01*
X151050942Y-18328272D01*
X150929162Y-18263180D01*
X150822421Y-18175580D01*
X150734821Y-18068839D01*
X150669729Y-17947059D01*
X150669728Y-17947057D01*
X150629644Y-17814921D01*
X150619501Y-17711932D01*
X150619500Y-15943069D01*
X150629643Y-15840080D01*
X150669727Y-15707944D01*
X150669729Y-15707941D01*
X150734820Y-15586162D01*
X150816167Y-15487040D01*
X150822420Y-15479420D01*
X150929160Y-15391821D01*
X150929159Y-15391821D01*
X150929161Y-15391820D01*
X151050941Y-15326728D01*
X151050943Y-15326727D01*
X151183079Y-15286643D01*
X151320500Y-15273109D01*
X151457920Y-15286643D01*
X151457920Y-15286643D01*
G37*
G36*
X153997920Y-15286643D02*
G01*
X154130056Y-15326727D01*
X154130058Y-15326728D01*
X154251838Y-15391820D01*
X154251840Y-15391821D01*
X154251839Y-15391821D01*
X154358580Y-15479420D01*
X154432860Y-15569930D01*
X154446180Y-15586161D01*
X154450253Y-15593782D01*
X154511273Y-15707943D01*
X154551357Y-15840079D01*
X154561500Y-15943068D01*
X154561500Y-17711932D01*
X154551357Y-17814921D01*
X154511273Y-17947057D01*
X154511272Y-17947059D01*
X154446180Y-18068839D01*
X154358580Y-18175580D01*
X154251839Y-18263180D01*
X154130059Y-18328272D01*
X154130057Y-18328273D01*
X153997921Y-18368357D01*
X153860500Y-18381891D01*
X153723080Y-18368357D01*
X153590944Y-18328273D01*
X153590942Y-18328272D01*
X153469162Y-18263180D01*
X153362421Y-18175580D01*
X153274821Y-18068839D01*
X153209729Y-17947059D01*
X153209728Y-17947057D01*
X153169644Y-17814921D01*
X153159501Y-17711932D01*
X153159500Y-15943069D01*
X153169643Y-15840080D01*
X153209727Y-15707944D01*
X153209729Y-15707941D01*
X153274820Y-15586162D01*
X153356167Y-15487040D01*
X153362420Y-15479420D01*
X153469160Y-15391821D01*
X153469159Y-15391821D01*
X153469161Y-15391820D01*
X153590941Y-15326728D01*
X153590943Y-15326727D01*
X153723079Y-15286643D01*
X153860500Y-15273109D01*
X153997920Y-15286643D01*
X153997920Y-15286643D01*
G37*
G36*
X156537920Y-15286643D02*
G01*
X156670056Y-15326727D01*
X156670058Y-15326728D01*
X156791838Y-15391820D01*
X156791840Y-15391821D01*
X156791839Y-15391821D01*
X156898580Y-15479420D01*
X156972860Y-15569930D01*
X156986180Y-15586161D01*
X156990253Y-15593782D01*
X157051273Y-15707943D01*
X157091357Y-15840079D01*
X157101500Y-15943068D01*
X157101500Y-17711932D01*
X157091357Y-17814921D01*
X157051273Y-17947057D01*
X157051272Y-17947059D01*
X156986180Y-18068839D01*
X156898580Y-18175580D01*
X156791839Y-18263180D01*
X156670059Y-18328272D01*
X156670057Y-18328273D01*
X156537921Y-18368357D01*
X156400500Y-18381891D01*
X156263080Y-18368357D01*
X156130944Y-18328273D01*
X156130942Y-18328272D01*
X156009162Y-18263180D01*
X155902421Y-18175580D01*
X155814821Y-18068839D01*
X155749729Y-17947059D01*
X155749728Y-17947057D01*
X155709644Y-17814921D01*
X155699501Y-17711932D01*
X155699500Y-15943069D01*
X155709643Y-15840080D01*
X155749727Y-15707944D01*
X155749729Y-15707941D01*
X155814820Y-15586162D01*
X155896167Y-15487040D01*
X155902420Y-15479420D01*
X156009160Y-15391821D01*
X156009159Y-15391821D01*
X156009161Y-15391820D01*
X156130941Y-15326728D01*
X156130943Y-15326727D01*
X156263079Y-15286643D01*
X156400500Y-15273109D01*
X156537920Y-15286643D01*
X156537920Y-15286643D01*
G37*
G36*
X159077920Y-15286643D02*
G01*
X159210056Y-15326727D01*
X159210058Y-15326728D01*
X159331838Y-15391820D01*
X159331840Y-15391821D01*
X159331839Y-15391821D01*
X159438580Y-15479420D01*
X159512860Y-15569930D01*
X159526180Y-15586161D01*
X159530253Y-15593782D01*
X159591273Y-15707943D01*
X159631357Y-15840079D01*
X159641500Y-15943068D01*
X159641500Y-17711932D01*
X159631357Y-17814921D01*
X159591273Y-17947057D01*
X159591272Y-17947059D01*
X159526180Y-18068839D01*
X159438580Y-18175580D01*
X159331839Y-18263180D01*
X159210059Y-18328272D01*
X159210057Y-18328273D01*
X159077921Y-18368357D01*
X158940500Y-18381891D01*
X158803080Y-18368357D01*
X158670944Y-18328273D01*
X158670942Y-18328272D01*
X158549162Y-18263180D01*
X158442421Y-18175580D01*
X158354821Y-18068839D01*
X158289729Y-17947059D01*
X158289728Y-17947057D01*
X158249644Y-17814921D01*
X158239501Y-17711932D01*
X158239500Y-15943069D01*
X158249643Y-15840080D01*
X158289727Y-15707944D01*
X158289729Y-15707941D01*
X158354820Y-15586162D01*
X158436167Y-15487040D01*
X158442420Y-15479420D01*
X158549160Y-15391821D01*
X158549159Y-15391821D01*
X158549161Y-15391820D01*
X158670941Y-15326728D01*
X158670943Y-15326727D01*
X158803079Y-15286643D01*
X158940500Y-15273109D01*
X159077920Y-15286643D01*
X159077920Y-15286643D01*
G37*
M02*
