M48
; DRILL file {KiCad (5.1.4-0-10_14)} date 2020 April 04, Saturday 17:49:43
; FORMAT={-:-/ absolute / inch / decimal}
; #@! TF.CreationDate,2020-04-04T17:49:43+02:00
; #@! TF.GenerationSoftware,Kicad,Pcbnew,(5.1.4-0-10_14)
; #@! TF.FileFunction,Plated,1,2,PTH
FMAT,2
INCH
T1C0.0157
T2C0.0394
%
G90
G05
T1
X0.85Y-0.955
X0.95Y-1.0
X1.0525Y-1.04
X1.1553Y-1.0847
X1.2525Y-1.1225
X1.3503Y-1.1647
X2.2675Y-0.9525
X2.37Y-1.0
X2.4675Y-1.0425
X2.5675Y-1.0825
X2.6675Y-1.125
X2.77Y-1.1625
X3.6854Y-0.9654
X3.785Y-1.0
X3.885Y-1.0443
X3.985Y-1.0825
X4.0825Y-1.1275
X4.1825Y-1.1625
X4.86Y-0.9725
X4.9568Y-1.0157
X5.0575Y-1.045
X5.2575Y-1.0893
X5.505Y-1.1275
X5.6125Y-1.1625
X6.4775Y-0.9775
X6.5725Y-1.0125
X6.6725Y-1.0568
X6.7725Y-1.0853
X6.875Y-1.135
X6.9725Y-1.1635
X7.9375Y-0.9825
X8.0332Y-1.0282
X8.135Y-1.0575
X8.2375Y-1.086
X8.3375Y-1.1325
X8.4375Y-1.17
X9.355Y-0.985
X9.455Y-1.0275
X9.555Y-1.06
X9.65Y-1.1025
X9.75Y-1.1325
X9.86Y-1.165
X10.77Y-0.9825
X10.8725Y-1.03
X10.97Y-1.0625
X11.065Y-1.105
X11.1725Y-1.1375
X11.27Y-1.1825
T2
X4.3575Y-0.6625
X4.3575Y-1.2628
X4.4575Y-0.6625
X4.4575Y-1.2628
X4.5575Y-0.6628
X4.5575Y-1.2625
X4.6575Y-0.6625
X4.6575Y-1.2625
X4.7575Y-0.6625
X4.7575Y-1.2625
X4.8575Y-0.6625
X4.8575Y-1.2625
X4.9575Y-0.6625
X4.9575Y-1.2625
X5.0575Y-0.6625
X5.0575Y-1.2625
X5.1575Y-0.6625
X5.1575Y-1.2628
X5.2575Y-0.6625
X5.2575Y-1.2625
X5.3575Y-0.6625
X5.3575Y-1.2625
X5.4575Y-0.6625
X5.4575Y-1.2625
X5.5575Y-0.6628
X5.5575Y-1.2625
X5.6575Y-0.6625
X5.6575Y-1.2625
X5.7575Y-0.6625
X5.7575Y-1.2625
X5.8575Y-0.6625
X5.8575Y-1.2625
X5.9575Y-0.6625
X5.9575Y-1.2625
X6.0575Y-0.6625
X6.0575Y-1.2628
X6.1575Y-0.6625
X6.1575Y-1.2625
X6.2575Y-0.6625
X6.2575Y-1.2625
X10.6716Y-1.5271
X7.8369Y-1.5271
X7.9369Y-1.5271
X8.0369Y-1.5271
X8.1369Y-1.5271
X8.2369Y-1.5271
X8.3369Y-1.5271
X8.4369Y-1.5271
X2.2676Y-1.5271
X9.2542Y-1.5271
X9.3542Y-1.5271
X9.4542Y-1.5271
X9.5542Y-1.5271
X2.7676Y-1.5271
X2.1676Y-1.5271
X9.6542Y-1.5271
X9.7542Y-1.5271
X9.8542Y-1.5271
X2.3676Y-1.5271
X2.4676Y-1.5271
X2.5676Y-1.5271
X2.6676Y-1.5271
X10.7716Y-1.5271
X10.8716Y-1.5271
X10.9716Y-1.5271
X11.0716Y-1.5271
X11.1716Y-1.5271
X11.2716Y-1.5271
X0.7503Y-1.5271
X0.8503Y-1.5271
X0.9503Y-1.5271
X3.9849Y-1.5271
X3.5849Y-1.5271
X3.6849Y-1.5271
X3.7849Y-1.5271
X3.8849Y-1.5271
X1.0503Y-1.5271
X1.1503Y-1.5271
X1.2503Y-1.5271
X1.3503Y-1.5271
X4.0849Y-1.5271
X4.1849Y-1.5271
X6.3725Y-1.5325
X6.4725Y-1.5325
X6.5725Y-1.5325
X6.6725Y-1.5325
X6.7725Y-1.5325
X6.8725Y-1.5325
X6.9725Y-1.5325
X5.0023Y-1.5271
X5.1023Y-1.5271
X5.2023Y-1.5271
X5.3023Y-1.5271
X5.4023Y-1.5271
X5.5023Y-1.5271
X5.6023Y-1.5271
T0
M30
