G04 #@! TF.GenerationSoftware,KiCad,Pcbnew,(5.1.4-0-10_14)*
G04 #@! TF.CreationDate,2020-04-04T17:45:35+02:00*
G04 #@! TF.ProjectId,Untitled,556e7469-746c-4656-942e-6b696361645f,rev?*
G04 #@! TF.SameCoordinates,Original*
G04 #@! TF.FileFunction,Legend,Top*
G04 #@! TF.FilePolarity,Positive*
%FSLAX46Y46*%
G04 Gerber Fmt 4.6, Leading zero omitted, Abs format (unit mm)*
G04 Created by KiCad (PCBNEW (5.1.4-0-10_14)) date 2020-04-04 17:45:35*
%MOMM*%
%LPD*%
G04 APERTURE LIST*
%ADD10C,0.120000*%
%ADD11C,0.150000*%
G04 APERTURE END LIST*
D10*
X12707525Y-38788321D02*
X12707525Y-12753321D01*
X40647525Y-12753321D02*
X12707525Y-12753321D01*
X40647525Y-40693321D02*
X12707525Y-40693321D01*
X12707525Y-38788321D02*
X12707525Y-40693321D01*
X40647525Y-12753321D02*
X40647525Y-40693321D01*
X35627525Y-38788321D02*
X35627525Y-40118321D01*
X35627525Y-40118321D02*
X34297525Y-40118321D01*
X33027525Y-40118321D02*
X17727525Y-40118321D01*
X17727525Y-37458321D02*
X17727525Y-40118321D01*
X33027525Y-37458321D02*
X17727525Y-37458321D01*
X33027525Y-37458321D02*
X33027525Y-40118321D01*
X48707525Y-38788321D02*
X48707525Y-12753321D01*
X76647525Y-12753321D02*
X48707525Y-12753321D01*
X76647525Y-40693321D02*
X48707525Y-40693321D01*
X48707525Y-38788321D02*
X48707525Y-40693321D01*
X76647525Y-12753321D02*
X76647525Y-40693321D01*
X71627525Y-38788321D02*
X71627525Y-40118321D01*
X71627525Y-40118321D02*
X70297525Y-40118321D01*
X69027525Y-40118321D02*
X53727525Y-40118321D01*
X53727525Y-37458321D02*
X53727525Y-40118321D01*
X69027525Y-37458321D02*
X53727525Y-37458321D01*
X69027525Y-37458321D02*
X69027525Y-40118321D01*
X84707525Y-38788321D02*
X84707525Y-12753321D01*
X112647525Y-12753321D02*
X84707525Y-12753321D01*
X112647525Y-40693321D02*
X84707525Y-40693321D01*
X84707525Y-38788321D02*
X84707525Y-40693321D01*
X112647525Y-12753321D02*
X112647525Y-40693321D01*
X107627525Y-38788321D02*
X107627525Y-40118321D01*
X107627525Y-40118321D02*
X106297525Y-40118321D01*
X105027525Y-40118321D02*
X89727525Y-40118321D01*
X89727525Y-37458321D02*
X89727525Y-40118321D01*
X105027525Y-37458321D02*
X89727525Y-37458321D01*
X105027525Y-37458321D02*
X105027525Y-40118321D01*
X264707525Y-38788321D02*
X264707525Y-12753321D01*
X292647525Y-12753321D02*
X264707525Y-12753321D01*
X292647525Y-40693321D02*
X264707525Y-40693321D01*
X264707525Y-38788321D02*
X264707525Y-40693321D01*
X292647525Y-12753321D02*
X292647525Y-40693321D01*
X287627525Y-38788321D02*
X287627525Y-40118321D01*
X287627525Y-40118321D02*
X286297525Y-40118321D01*
X285027525Y-40118321D02*
X269727525Y-40118321D01*
X269727525Y-37458321D02*
X269727525Y-40118321D01*
X285027525Y-37458321D02*
X269727525Y-37458321D01*
X285027525Y-37458321D02*
X285027525Y-40118321D01*
X228707525Y-38788321D02*
X228707525Y-12753321D01*
X256647525Y-12753321D02*
X228707525Y-12753321D01*
X256647525Y-40693321D02*
X228707525Y-40693321D01*
X228707525Y-38788321D02*
X228707525Y-40693321D01*
X256647525Y-12753321D02*
X256647525Y-40693321D01*
X251627525Y-38788321D02*
X251627525Y-40118321D01*
X251627525Y-40118321D02*
X250297525Y-40118321D01*
X249027525Y-40118321D02*
X233727525Y-40118321D01*
X233727525Y-37458321D02*
X233727525Y-40118321D01*
X249027525Y-37458321D02*
X233727525Y-37458321D01*
X249027525Y-37458321D02*
X249027525Y-40118321D01*
X192707525Y-38788321D02*
X192707525Y-12753321D01*
X220647525Y-12753321D02*
X192707525Y-12753321D01*
X220647525Y-40693321D02*
X192707525Y-40693321D01*
X192707525Y-38788321D02*
X192707525Y-40693321D01*
X220647525Y-12753321D02*
X220647525Y-40693321D01*
X215627525Y-38788321D02*
X215627525Y-40118321D01*
X215627525Y-40118321D02*
X214297525Y-40118321D01*
X213027525Y-40118321D02*
X197727525Y-40118321D01*
X197727525Y-37458321D02*
X197727525Y-40118321D01*
X213027525Y-37458321D02*
X197727525Y-37458321D01*
X213027525Y-37458321D02*
X213027525Y-40118321D01*
X155511500Y-38925500D02*
X155511500Y-12890500D01*
X183451500Y-12890500D02*
X155511500Y-12890500D01*
X183451500Y-40830500D02*
X155511500Y-40830500D01*
X155511500Y-38925500D02*
X155511500Y-40830500D01*
X183451500Y-12890500D02*
X183451500Y-40830500D01*
X178431500Y-38925500D02*
X178431500Y-40255500D01*
X178431500Y-40255500D02*
X177101500Y-40255500D01*
X175831500Y-40255500D02*
X160531500Y-40255500D01*
X160531500Y-37595500D02*
X160531500Y-40255500D01*
X175831500Y-37595500D02*
X160531500Y-37595500D01*
X175831500Y-37595500D02*
X175831500Y-40255500D01*
X120707525Y-38788321D02*
X120707525Y-12753321D01*
X148647525Y-12753321D02*
X120707525Y-12753321D01*
X148647525Y-40693321D02*
X120707525Y-40693321D01*
X120707525Y-38788321D02*
X120707525Y-40693321D01*
X148647525Y-12753321D02*
X148647525Y-40693321D01*
X143627525Y-38788321D02*
X143627525Y-40118321D01*
X143627525Y-40118321D02*
X142297525Y-40118321D01*
X141027525Y-40118321D02*
X125727525Y-40118321D01*
X125727525Y-37458321D02*
X125727525Y-40118321D01*
X141027525Y-37458321D02*
X125727525Y-37458321D01*
X141027525Y-37458321D02*
X141027525Y-40118321D01*
D11*
X25915620Y-17603082D02*
X26058477Y-17650701D01*
X26296572Y-17650701D01*
X26391810Y-17603082D01*
X26439429Y-17555463D01*
X26487048Y-17460225D01*
X26487048Y-17364987D01*
X26439429Y-17269749D01*
X26391810Y-17222130D01*
X26296572Y-17174511D01*
X26106096Y-17126892D01*
X26010858Y-17079273D01*
X25963239Y-17031654D01*
X25915620Y-16936416D01*
X25915620Y-16841178D01*
X25963239Y-16745940D01*
X26010858Y-16698321D01*
X26106096Y-16650701D01*
X26344191Y-16650701D01*
X26487048Y-16698321D01*
X27439429Y-17650701D02*
X26868001Y-17650701D01*
X27153715Y-17650701D02*
X27153715Y-16650701D01*
X27058477Y-16793559D01*
X26963239Y-16888797D01*
X26868001Y-16936416D01*
X18890858Y-36605463D02*
X18843239Y-36653082D01*
X18700382Y-36700701D01*
X18605144Y-36700701D01*
X18462286Y-36653082D01*
X18367048Y-36557844D01*
X18319429Y-36462606D01*
X18271810Y-36272130D01*
X18271810Y-36129273D01*
X18319429Y-35938797D01*
X18367048Y-35843559D01*
X18462286Y-35748321D01*
X18605144Y-35700701D01*
X18700382Y-35700701D01*
X18843239Y-35748321D01*
X18890858Y-35795940D01*
X19271810Y-36653082D02*
X19414667Y-36700701D01*
X19652763Y-36700701D01*
X19748001Y-36653082D01*
X19795620Y-36605463D01*
X19843239Y-36510225D01*
X19843239Y-36414987D01*
X19795620Y-36319749D01*
X19748001Y-36272130D01*
X19652763Y-36224511D01*
X19462286Y-36176892D01*
X19367048Y-36129273D01*
X19319429Y-36081654D01*
X19271810Y-35986416D01*
X19271810Y-35891178D01*
X19319429Y-35795940D01*
X19367048Y-35748321D01*
X19462286Y-35700701D01*
X19700382Y-35700701D01*
X19843239Y-35748321D01*
X20835620Y-35430701D02*
X20835620Y-34430701D01*
X21073715Y-34430701D01*
X21216572Y-34478321D01*
X21311810Y-34573559D01*
X21359429Y-34668797D01*
X21407048Y-34859273D01*
X21407048Y-35002130D01*
X21359429Y-35192606D01*
X21311810Y-35287844D01*
X21216572Y-35383082D01*
X21073715Y-35430701D01*
X20835620Y-35430701D01*
X22407048Y-35335463D02*
X22359429Y-35383082D01*
X22216572Y-35430701D01*
X22121334Y-35430701D01*
X21978477Y-35383082D01*
X21883239Y-35287844D01*
X21835620Y-35192606D01*
X21788001Y-35002130D01*
X21788001Y-34859273D01*
X21835620Y-34668797D01*
X21883239Y-34573559D01*
X21978477Y-34478321D01*
X22121334Y-34430701D01*
X22216572Y-34430701D01*
X22359429Y-34478321D01*
X22407048Y-34525940D01*
X23518477Y-36700701D02*
X23185144Y-36224511D01*
X22947048Y-36700701D02*
X22947048Y-35700701D01*
X23328001Y-35700701D01*
X23423239Y-35748321D01*
X23470858Y-35795940D01*
X23518477Y-35891178D01*
X23518477Y-36034035D01*
X23470858Y-36129273D01*
X23423239Y-36176892D01*
X23328001Y-36224511D01*
X22947048Y-36224511D01*
X23947048Y-36176892D02*
X24280382Y-36176892D01*
X24423239Y-36700701D02*
X23947048Y-36700701D01*
X23947048Y-35700701D01*
X24423239Y-35700701D01*
X24804191Y-36653082D02*
X24947048Y-36700701D01*
X25185144Y-36700701D01*
X25280382Y-36653082D01*
X25328001Y-36605463D01*
X25375620Y-36510225D01*
X25375620Y-36414987D01*
X25328001Y-36319749D01*
X25280382Y-36272130D01*
X25185144Y-36224511D01*
X24994667Y-36176892D01*
X24899429Y-36129273D01*
X24851810Y-36081654D01*
X24804191Y-35986416D01*
X24804191Y-35891178D01*
X24851810Y-35795940D01*
X24899429Y-35748321D01*
X24994667Y-35700701D01*
X25232763Y-35700701D01*
X25375620Y-35748321D01*
X25939429Y-35430701D02*
X25939429Y-34430701D01*
X26177525Y-34430701D01*
X26320382Y-34478321D01*
X26415620Y-34573559D01*
X26463239Y-34668797D01*
X26510858Y-34859273D01*
X26510858Y-35002130D01*
X26463239Y-35192606D01*
X26415620Y-35287844D01*
X26320382Y-35383082D01*
X26177525Y-35430701D01*
X25939429Y-35430701D01*
X27463239Y-35430701D02*
X26891810Y-35430701D01*
X27177525Y-35430701D02*
X27177525Y-34430701D01*
X27082286Y-34573559D01*
X26987048Y-34668797D01*
X26891810Y-34716416D01*
X28479429Y-36700701D02*
X28479429Y-35700701D01*
X28717525Y-35700701D01*
X28860382Y-35748321D01*
X28955620Y-35843559D01*
X29003239Y-35938797D01*
X29050858Y-36129273D01*
X29050858Y-36272130D01*
X29003239Y-36462606D01*
X28955620Y-36557844D01*
X28860382Y-36653082D01*
X28717525Y-36700701D01*
X28479429Y-36700701D01*
X29669905Y-35700701D02*
X29765144Y-35700701D01*
X29860382Y-35748321D01*
X29908001Y-35795940D01*
X29955620Y-35891178D01*
X30003239Y-36081654D01*
X30003239Y-36319749D01*
X29955620Y-36510225D01*
X29908001Y-36605463D01*
X29860382Y-36653082D01*
X29765144Y-36700701D01*
X29669905Y-36700701D01*
X29574667Y-36653082D01*
X29527048Y-36605463D01*
X29479429Y-36510225D01*
X29431810Y-36319749D01*
X29431810Y-36081654D01*
X29479429Y-35891178D01*
X29527048Y-35795940D01*
X29574667Y-35748321D01*
X29669905Y-35700701D01*
X30424191Y-34430701D02*
X30757525Y-35430701D01*
X31090858Y-34430701D01*
X31995620Y-35335463D02*
X31948001Y-35383082D01*
X31805144Y-35430701D01*
X31709905Y-35430701D01*
X31567048Y-35383082D01*
X31471810Y-35287844D01*
X31424191Y-35192606D01*
X31376572Y-35002130D01*
X31376572Y-34859273D01*
X31424191Y-34668797D01*
X31471810Y-34573559D01*
X31567048Y-34478321D01*
X31709905Y-34430701D01*
X31805144Y-34430701D01*
X31948001Y-34478321D01*
X31995620Y-34525940D01*
X32995620Y-35335463D02*
X32948001Y-35383082D01*
X32805144Y-35430701D01*
X32709905Y-35430701D01*
X32567048Y-35383082D01*
X32471810Y-35287844D01*
X32424191Y-35192606D01*
X32376572Y-35002130D01*
X32376572Y-34859273D01*
X32424191Y-34668797D01*
X32471810Y-34573559D01*
X32567048Y-34478321D01*
X32709905Y-34430701D01*
X32805144Y-34430701D01*
X32948001Y-34478321D01*
X32995620Y-34525940D01*
X33535620Y-35748321D02*
X33440382Y-35700701D01*
X33297525Y-35700701D01*
X33154667Y-35748321D01*
X33059429Y-35843559D01*
X33011810Y-35938797D01*
X32964191Y-36129273D01*
X32964191Y-36272130D01*
X33011810Y-36462606D01*
X33059429Y-36557844D01*
X33154667Y-36653082D01*
X33297525Y-36700701D01*
X33392763Y-36700701D01*
X33535620Y-36653082D01*
X33583239Y-36605463D01*
X33583239Y-36272130D01*
X33392763Y-36272130D01*
X34011810Y-36700701D02*
X34011810Y-35700701D01*
X34583239Y-36700701D01*
X34583239Y-35700701D01*
X35059429Y-36700701D02*
X35059429Y-35700701D01*
X35297525Y-35700701D01*
X35440382Y-35748321D01*
X35535620Y-35843559D01*
X35583239Y-35938797D01*
X35630858Y-36129273D01*
X35630858Y-36272130D01*
X35583239Y-36462606D01*
X35535620Y-36557844D01*
X35440382Y-36653082D01*
X35297525Y-36700701D01*
X35059429Y-36700701D01*
X61915620Y-17603082D02*
X62058477Y-17650701D01*
X62296572Y-17650701D01*
X62391810Y-17603082D01*
X62439429Y-17555463D01*
X62487048Y-17460225D01*
X62487048Y-17364987D01*
X62439429Y-17269749D01*
X62391810Y-17222130D01*
X62296572Y-17174511D01*
X62106096Y-17126892D01*
X62010858Y-17079273D01*
X61963239Y-17031654D01*
X61915620Y-16936416D01*
X61915620Y-16841178D01*
X61963239Y-16745940D01*
X62010858Y-16698321D01*
X62106096Y-16650701D01*
X62344191Y-16650701D01*
X62487048Y-16698321D01*
X62868001Y-16745940D02*
X62915620Y-16698321D01*
X63010858Y-16650701D01*
X63248953Y-16650701D01*
X63344191Y-16698321D01*
X63391810Y-16745940D01*
X63439429Y-16841178D01*
X63439429Y-16936416D01*
X63391810Y-17079273D01*
X62820382Y-17650701D01*
X63439429Y-17650701D01*
X54890858Y-36605463D02*
X54843239Y-36653082D01*
X54700382Y-36700701D01*
X54605144Y-36700701D01*
X54462286Y-36653082D01*
X54367048Y-36557844D01*
X54319429Y-36462606D01*
X54271810Y-36272130D01*
X54271810Y-36129273D01*
X54319429Y-35938797D01*
X54367048Y-35843559D01*
X54462286Y-35748321D01*
X54605144Y-35700701D01*
X54700382Y-35700701D01*
X54843239Y-35748321D01*
X54890858Y-35795940D01*
X55271810Y-36653082D02*
X55414667Y-36700701D01*
X55652763Y-36700701D01*
X55748001Y-36653082D01*
X55795620Y-36605463D01*
X55843239Y-36510225D01*
X55843239Y-36414987D01*
X55795620Y-36319749D01*
X55748001Y-36272130D01*
X55652763Y-36224511D01*
X55462286Y-36176892D01*
X55367048Y-36129273D01*
X55319429Y-36081654D01*
X55271810Y-35986416D01*
X55271810Y-35891178D01*
X55319429Y-35795940D01*
X55367048Y-35748321D01*
X55462286Y-35700701D01*
X55700382Y-35700701D01*
X55843239Y-35748321D01*
X56835620Y-35430701D02*
X56835620Y-34430701D01*
X57073715Y-34430701D01*
X57216572Y-34478321D01*
X57311810Y-34573559D01*
X57359429Y-34668797D01*
X57407048Y-34859273D01*
X57407048Y-35002130D01*
X57359429Y-35192606D01*
X57311810Y-35287844D01*
X57216572Y-35383082D01*
X57073715Y-35430701D01*
X56835620Y-35430701D01*
X58407048Y-35335463D02*
X58359429Y-35383082D01*
X58216572Y-35430701D01*
X58121334Y-35430701D01*
X57978477Y-35383082D01*
X57883239Y-35287844D01*
X57835620Y-35192606D01*
X57788001Y-35002130D01*
X57788001Y-34859273D01*
X57835620Y-34668797D01*
X57883239Y-34573559D01*
X57978477Y-34478321D01*
X58121334Y-34430701D01*
X58216572Y-34430701D01*
X58359429Y-34478321D01*
X58407048Y-34525940D01*
X59518477Y-36700701D02*
X59185144Y-36224511D01*
X58947048Y-36700701D02*
X58947048Y-35700701D01*
X59328001Y-35700701D01*
X59423239Y-35748321D01*
X59470858Y-35795940D01*
X59518477Y-35891178D01*
X59518477Y-36034035D01*
X59470858Y-36129273D01*
X59423239Y-36176892D01*
X59328001Y-36224511D01*
X58947048Y-36224511D01*
X59947048Y-36176892D02*
X60280382Y-36176892D01*
X60423239Y-36700701D02*
X59947048Y-36700701D01*
X59947048Y-35700701D01*
X60423239Y-35700701D01*
X60804191Y-36653082D02*
X60947048Y-36700701D01*
X61185144Y-36700701D01*
X61280382Y-36653082D01*
X61328001Y-36605463D01*
X61375620Y-36510225D01*
X61375620Y-36414987D01*
X61328001Y-36319749D01*
X61280382Y-36272130D01*
X61185144Y-36224511D01*
X60994667Y-36176892D01*
X60899429Y-36129273D01*
X60851810Y-36081654D01*
X60804191Y-35986416D01*
X60804191Y-35891178D01*
X60851810Y-35795940D01*
X60899429Y-35748321D01*
X60994667Y-35700701D01*
X61232763Y-35700701D01*
X61375620Y-35748321D01*
X61939429Y-35430701D02*
X61939429Y-34430701D01*
X62177525Y-34430701D01*
X62320382Y-34478321D01*
X62415620Y-34573559D01*
X62463239Y-34668797D01*
X62510858Y-34859273D01*
X62510858Y-35002130D01*
X62463239Y-35192606D01*
X62415620Y-35287844D01*
X62320382Y-35383082D01*
X62177525Y-35430701D01*
X61939429Y-35430701D01*
X63463239Y-35430701D02*
X62891810Y-35430701D01*
X63177525Y-35430701D02*
X63177525Y-34430701D01*
X63082286Y-34573559D01*
X62987048Y-34668797D01*
X62891810Y-34716416D01*
X64479429Y-36700701D02*
X64479429Y-35700701D01*
X64717525Y-35700701D01*
X64860382Y-35748321D01*
X64955620Y-35843559D01*
X65003239Y-35938797D01*
X65050858Y-36129273D01*
X65050858Y-36272130D01*
X65003239Y-36462606D01*
X64955620Y-36557844D01*
X64860382Y-36653082D01*
X64717525Y-36700701D01*
X64479429Y-36700701D01*
X65669905Y-35700701D02*
X65765144Y-35700701D01*
X65860382Y-35748321D01*
X65908001Y-35795940D01*
X65955620Y-35891178D01*
X66003239Y-36081654D01*
X66003239Y-36319749D01*
X65955620Y-36510225D01*
X65908001Y-36605463D01*
X65860382Y-36653082D01*
X65765144Y-36700701D01*
X65669905Y-36700701D01*
X65574667Y-36653082D01*
X65527048Y-36605463D01*
X65479429Y-36510225D01*
X65431810Y-36319749D01*
X65431810Y-36081654D01*
X65479429Y-35891178D01*
X65527048Y-35795940D01*
X65574667Y-35748321D01*
X65669905Y-35700701D01*
X66424191Y-34430701D02*
X66757525Y-35430701D01*
X67090858Y-34430701D01*
X67995620Y-35335463D02*
X67948001Y-35383082D01*
X67805144Y-35430701D01*
X67709905Y-35430701D01*
X67567048Y-35383082D01*
X67471810Y-35287844D01*
X67424191Y-35192606D01*
X67376572Y-35002130D01*
X67376572Y-34859273D01*
X67424191Y-34668797D01*
X67471810Y-34573559D01*
X67567048Y-34478321D01*
X67709905Y-34430701D01*
X67805144Y-34430701D01*
X67948001Y-34478321D01*
X67995620Y-34525940D01*
X68995620Y-35335463D02*
X68948001Y-35383082D01*
X68805144Y-35430701D01*
X68709905Y-35430701D01*
X68567048Y-35383082D01*
X68471810Y-35287844D01*
X68424191Y-35192606D01*
X68376572Y-35002130D01*
X68376572Y-34859273D01*
X68424191Y-34668797D01*
X68471810Y-34573559D01*
X68567048Y-34478321D01*
X68709905Y-34430701D01*
X68805144Y-34430701D01*
X68948001Y-34478321D01*
X68995620Y-34525940D01*
X69535620Y-35748321D02*
X69440382Y-35700701D01*
X69297525Y-35700701D01*
X69154667Y-35748321D01*
X69059429Y-35843559D01*
X69011810Y-35938797D01*
X68964191Y-36129273D01*
X68964191Y-36272130D01*
X69011810Y-36462606D01*
X69059429Y-36557844D01*
X69154667Y-36653082D01*
X69297525Y-36700701D01*
X69392763Y-36700701D01*
X69535620Y-36653082D01*
X69583239Y-36605463D01*
X69583239Y-36272130D01*
X69392763Y-36272130D01*
X70011810Y-36700701D02*
X70011810Y-35700701D01*
X70583239Y-36700701D01*
X70583239Y-35700701D01*
X71059429Y-36700701D02*
X71059429Y-35700701D01*
X71297525Y-35700701D01*
X71440382Y-35748321D01*
X71535620Y-35843559D01*
X71583239Y-35938797D01*
X71630858Y-36129273D01*
X71630858Y-36272130D01*
X71583239Y-36462606D01*
X71535620Y-36557844D01*
X71440382Y-36653082D01*
X71297525Y-36700701D01*
X71059429Y-36700701D01*
X97915620Y-17603082D02*
X98058477Y-17650701D01*
X98296572Y-17650701D01*
X98391810Y-17603082D01*
X98439429Y-17555463D01*
X98487048Y-17460225D01*
X98487048Y-17364987D01*
X98439429Y-17269749D01*
X98391810Y-17222130D01*
X98296572Y-17174511D01*
X98106096Y-17126892D01*
X98010858Y-17079273D01*
X97963239Y-17031654D01*
X97915620Y-16936416D01*
X97915620Y-16841178D01*
X97963239Y-16745940D01*
X98010858Y-16698321D01*
X98106096Y-16650701D01*
X98344191Y-16650701D01*
X98487048Y-16698321D01*
X98820382Y-16650701D02*
X99439429Y-16650701D01*
X99106096Y-17031654D01*
X99248953Y-17031654D01*
X99344191Y-17079273D01*
X99391810Y-17126892D01*
X99439429Y-17222130D01*
X99439429Y-17460225D01*
X99391810Y-17555463D01*
X99344191Y-17603082D01*
X99248953Y-17650701D01*
X98963239Y-17650701D01*
X98868001Y-17603082D01*
X98820382Y-17555463D01*
X90890858Y-36605463D02*
X90843239Y-36653082D01*
X90700382Y-36700701D01*
X90605144Y-36700701D01*
X90462286Y-36653082D01*
X90367048Y-36557844D01*
X90319429Y-36462606D01*
X90271810Y-36272130D01*
X90271810Y-36129273D01*
X90319429Y-35938797D01*
X90367048Y-35843559D01*
X90462286Y-35748321D01*
X90605144Y-35700701D01*
X90700382Y-35700701D01*
X90843239Y-35748321D01*
X90890858Y-35795940D01*
X91271810Y-36653082D02*
X91414667Y-36700701D01*
X91652763Y-36700701D01*
X91748001Y-36653082D01*
X91795620Y-36605463D01*
X91843239Y-36510225D01*
X91843239Y-36414987D01*
X91795620Y-36319749D01*
X91748001Y-36272130D01*
X91652763Y-36224511D01*
X91462286Y-36176892D01*
X91367048Y-36129273D01*
X91319429Y-36081654D01*
X91271810Y-35986416D01*
X91271810Y-35891178D01*
X91319429Y-35795940D01*
X91367048Y-35748321D01*
X91462286Y-35700701D01*
X91700382Y-35700701D01*
X91843239Y-35748321D01*
X92835620Y-35430701D02*
X92835620Y-34430701D01*
X93073715Y-34430701D01*
X93216572Y-34478321D01*
X93311810Y-34573559D01*
X93359429Y-34668797D01*
X93407048Y-34859273D01*
X93407048Y-35002130D01*
X93359429Y-35192606D01*
X93311810Y-35287844D01*
X93216572Y-35383082D01*
X93073715Y-35430701D01*
X92835620Y-35430701D01*
X94407048Y-35335463D02*
X94359429Y-35383082D01*
X94216572Y-35430701D01*
X94121334Y-35430701D01*
X93978477Y-35383082D01*
X93883239Y-35287844D01*
X93835620Y-35192606D01*
X93788001Y-35002130D01*
X93788001Y-34859273D01*
X93835620Y-34668797D01*
X93883239Y-34573559D01*
X93978477Y-34478321D01*
X94121334Y-34430701D01*
X94216572Y-34430701D01*
X94359429Y-34478321D01*
X94407048Y-34525940D01*
X95518477Y-36700701D02*
X95185144Y-36224511D01*
X94947048Y-36700701D02*
X94947048Y-35700701D01*
X95328001Y-35700701D01*
X95423239Y-35748321D01*
X95470858Y-35795940D01*
X95518477Y-35891178D01*
X95518477Y-36034035D01*
X95470858Y-36129273D01*
X95423239Y-36176892D01*
X95328001Y-36224511D01*
X94947048Y-36224511D01*
X95947048Y-36176892D02*
X96280382Y-36176892D01*
X96423239Y-36700701D02*
X95947048Y-36700701D01*
X95947048Y-35700701D01*
X96423239Y-35700701D01*
X96804191Y-36653082D02*
X96947048Y-36700701D01*
X97185144Y-36700701D01*
X97280382Y-36653082D01*
X97328001Y-36605463D01*
X97375620Y-36510225D01*
X97375620Y-36414987D01*
X97328001Y-36319749D01*
X97280382Y-36272130D01*
X97185144Y-36224511D01*
X96994667Y-36176892D01*
X96899429Y-36129273D01*
X96851810Y-36081654D01*
X96804191Y-35986416D01*
X96804191Y-35891178D01*
X96851810Y-35795940D01*
X96899429Y-35748321D01*
X96994667Y-35700701D01*
X97232763Y-35700701D01*
X97375620Y-35748321D01*
X97939429Y-35430701D02*
X97939429Y-34430701D01*
X98177525Y-34430701D01*
X98320382Y-34478321D01*
X98415620Y-34573559D01*
X98463239Y-34668797D01*
X98510858Y-34859273D01*
X98510858Y-35002130D01*
X98463239Y-35192606D01*
X98415620Y-35287844D01*
X98320382Y-35383082D01*
X98177525Y-35430701D01*
X97939429Y-35430701D01*
X99463239Y-35430701D02*
X98891810Y-35430701D01*
X99177525Y-35430701D02*
X99177525Y-34430701D01*
X99082286Y-34573559D01*
X98987048Y-34668797D01*
X98891810Y-34716416D01*
X100479429Y-36700701D02*
X100479429Y-35700701D01*
X100717525Y-35700701D01*
X100860382Y-35748321D01*
X100955620Y-35843559D01*
X101003239Y-35938797D01*
X101050858Y-36129273D01*
X101050858Y-36272130D01*
X101003239Y-36462606D01*
X100955620Y-36557844D01*
X100860382Y-36653082D01*
X100717525Y-36700701D01*
X100479429Y-36700701D01*
X101669905Y-35700701D02*
X101765144Y-35700701D01*
X101860382Y-35748321D01*
X101908001Y-35795940D01*
X101955620Y-35891178D01*
X102003239Y-36081654D01*
X102003239Y-36319749D01*
X101955620Y-36510225D01*
X101908001Y-36605463D01*
X101860382Y-36653082D01*
X101765144Y-36700701D01*
X101669905Y-36700701D01*
X101574667Y-36653082D01*
X101527048Y-36605463D01*
X101479429Y-36510225D01*
X101431810Y-36319749D01*
X101431810Y-36081654D01*
X101479429Y-35891178D01*
X101527048Y-35795940D01*
X101574667Y-35748321D01*
X101669905Y-35700701D01*
X102424191Y-34430701D02*
X102757525Y-35430701D01*
X103090858Y-34430701D01*
X103995620Y-35335463D02*
X103948001Y-35383082D01*
X103805144Y-35430701D01*
X103709905Y-35430701D01*
X103567048Y-35383082D01*
X103471810Y-35287844D01*
X103424191Y-35192606D01*
X103376572Y-35002130D01*
X103376572Y-34859273D01*
X103424191Y-34668797D01*
X103471810Y-34573559D01*
X103567048Y-34478321D01*
X103709905Y-34430701D01*
X103805144Y-34430701D01*
X103948001Y-34478321D01*
X103995620Y-34525940D01*
X104995620Y-35335463D02*
X104948001Y-35383082D01*
X104805144Y-35430701D01*
X104709905Y-35430701D01*
X104567048Y-35383082D01*
X104471810Y-35287844D01*
X104424191Y-35192606D01*
X104376572Y-35002130D01*
X104376572Y-34859273D01*
X104424191Y-34668797D01*
X104471810Y-34573559D01*
X104567048Y-34478321D01*
X104709905Y-34430701D01*
X104805144Y-34430701D01*
X104948001Y-34478321D01*
X104995620Y-34525940D01*
X105535620Y-35748321D02*
X105440382Y-35700701D01*
X105297525Y-35700701D01*
X105154667Y-35748321D01*
X105059429Y-35843559D01*
X105011810Y-35938797D01*
X104964191Y-36129273D01*
X104964191Y-36272130D01*
X105011810Y-36462606D01*
X105059429Y-36557844D01*
X105154667Y-36653082D01*
X105297525Y-36700701D01*
X105392763Y-36700701D01*
X105535620Y-36653082D01*
X105583239Y-36605463D01*
X105583239Y-36272130D01*
X105392763Y-36272130D01*
X106011810Y-36700701D02*
X106011810Y-35700701D01*
X106583239Y-36700701D01*
X106583239Y-35700701D01*
X107059429Y-36700701D02*
X107059429Y-35700701D01*
X107297525Y-35700701D01*
X107440382Y-35748321D01*
X107535620Y-35843559D01*
X107583239Y-35938797D01*
X107630858Y-36129273D01*
X107630858Y-36272130D01*
X107583239Y-36462606D01*
X107535620Y-36557844D01*
X107440382Y-36653082D01*
X107297525Y-36700701D01*
X107059429Y-36700701D01*
X277915620Y-17603082D02*
X278058477Y-17650701D01*
X278296572Y-17650701D01*
X278391810Y-17603082D01*
X278439429Y-17555463D01*
X278487048Y-17460225D01*
X278487048Y-17364987D01*
X278439429Y-17269749D01*
X278391810Y-17222130D01*
X278296572Y-17174511D01*
X278106096Y-17126892D01*
X278010858Y-17079273D01*
X277963239Y-17031654D01*
X277915620Y-16936416D01*
X277915620Y-16841178D01*
X277963239Y-16745940D01*
X278010858Y-16698321D01*
X278106096Y-16650701D01*
X278344191Y-16650701D01*
X278487048Y-16698321D01*
X279058477Y-17079273D02*
X278963239Y-17031654D01*
X278915620Y-16984035D01*
X278868001Y-16888797D01*
X278868001Y-16841178D01*
X278915620Y-16745940D01*
X278963239Y-16698321D01*
X279058477Y-16650701D01*
X279248953Y-16650701D01*
X279344191Y-16698321D01*
X279391810Y-16745940D01*
X279439429Y-16841178D01*
X279439429Y-16888797D01*
X279391810Y-16984035D01*
X279344191Y-17031654D01*
X279248953Y-17079273D01*
X279058477Y-17079273D01*
X278963239Y-17126892D01*
X278915620Y-17174511D01*
X278868001Y-17269749D01*
X278868001Y-17460225D01*
X278915620Y-17555463D01*
X278963239Y-17603082D01*
X279058477Y-17650701D01*
X279248953Y-17650701D01*
X279344191Y-17603082D01*
X279391810Y-17555463D01*
X279439429Y-17460225D01*
X279439429Y-17269749D01*
X279391810Y-17174511D01*
X279344191Y-17126892D01*
X279248953Y-17079273D01*
X270890858Y-36605463D02*
X270843239Y-36653082D01*
X270700382Y-36700701D01*
X270605144Y-36700701D01*
X270462286Y-36653082D01*
X270367048Y-36557844D01*
X270319429Y-36462606D01*
X270271810Y-36272130D01*
X270271810Y-36129273D01*
X270319429Y-35938797D01*
X270367048Y-35843559D01*
X270462286Y-35748321D01*
X270605144Y-35700701D01*
X270700382Y-35700701D01*
X270843239Y-35748321D01*
X270890858Y-35795940D01*
X271271810Y-36653082D02*
X271414667Y-36700701D01*
X271652763Y-36700701D01*
X271748001Y-36653082D01*
X271795620Y-36605463D01*
X271843239Y-36510225D01*
X271843239Y-36414987D01*
X271795620Y-36319749D01*
X271748001Y-36272130D01*
X271652763Y-36224511D01*
X271462286Y-36176892D01*
X271367048Y-36129273D01*
X271319429Y-36081654D01*
X271271810Y-35986416D01*
X271271810Y-35891178D01*
X271319429Y-35795940D01*
X271367048Y-35748321D01*
X271462286Y-35700701D01*
X271700382Y-35700701D01*
X271843239Y-35748321D01*
X272835620Y-35430701D02*
X272835620Y-34430701D01*
X273073715Y-34430701D01*
X273216572Y-34478321D01*
X273311810Y-34573559D01*
X273359429Y-34668797D01*
X273407048Y-34859273D01*
X273407048Y-35002130D01*
X273359429Y-35192606D01*
X273311810Y-35287844D01*
X273216572Y-35383082D01*
X273073715Y-35430701D01*
X272835620Y-35430701D01*
X274407048Y-35335463D02*
X274359429Y-35383082D01*
X274216572Y-35430701D01*
X274121334Y-35430701D01*
X273978477Y-35383082D01*
X273883239Y-35287844D01*
X273835620Y-35192606D01*
X273788001Y-35002130D01*
X273788001Y-34859273D01*
X273835620Y-34668797D01*
X273883239Y-34573559D01*
X273978477Y-34478321D01*
X274121334Y-34430701D01*
X274216572Y-34430701D01*
X274359429Y-34478321D01*
X274407048Y-34525940D01*
X275518477Y-36700701D02*
X275185144Y-36224511D01*
X274947048Y-36700701D02*
X274947048Y-35700701D01*
X275328001Y-35700701D01*
X275423239Y-35748321D01*
X275470858Y-35795940D01*
X275518477Y-35891178D01*
X275518477Y-36034035D01*
X275470858Y-36129273D01*
X275423239Y-36176892D01*
X275328001Y-36224511D01*
X274947048Y-36224511D01*
X275947048Y-36176892D02*
X276280382Y-36176892D01*
X276423239Y-36700701D02*
X275947048Y-36700701D01*
X275947048Y-35700701D01*
X276423239Y-35700701D01*
X276804191Y-36653082D02*
X276947048Y-36700701D01*
X277185144Y-36700701D01*
X277280382Y-36653082D01*
X277328001Y-36605463D01*
X277375620Y-36510225D01*
X277375620Y-36414987D01*
X277328001Y-36319749D01*
X277280382Y-36272130D01*
X277185144Y-36224511D01*
X276994667Y-36176892D01*
X276899429Y-36129273D01*
X276851810Y-36081654D01*
X276804191Y-35986416D01*
X276804191Y-35891178D01*
X276851810Y-35795940D01*
X276899429Y-35748321D01*
X276994667Y-35700701D01*
X277232763Y-35700701D01*
X277375620Y-35748321D01*
X277939429Y-35430701D02*
X277939429Y-34430701D01*
X278177525Y-34430701D01*
X278320382Y-34478321D01*
X278415620Y-34573559D01*
X278463239Y-34668797D01*
X278510858Y-34859273D01*
X278510858Y-35002130D01*
X278463239Y-35192606D01*
X278415620Y-35287844D01*
X278320382Y-35383082D01*
X278177525Y-35430701D01*
X277939429Y-35430701D01*
X279463239Y-35430701D02*
X278891810Y-35430701D01*
X279177525Y-35430701D02*
X279177525Y-34430701D01*
X279082286Y-34573559D01*
X278987048Y-34668797D01*
X278891810Y-34716416D01*
X280479429Y-36700701D02*
X280479429Y-35700701D01*
X280717525Y-35700701D01*
X280860382Y-35748321D01*
X280955620Y-35843559D01*
X281003239Y-35938797D01*
X281050858Y-36129273D01*
X281050858Y-36272130D01*
X281003239Y-36462606D01*
X280955620Y-36557844D01*
X280860382Y-36653082D01*
X280717525Y-36700701D01*
X280479429Y-36700701D01*
X281669905Y-35700701D02*
X281765144Y-35700701D01*
X281860382Y-35748321D01*
X281908001Y-35795940D01*
X281955620Y-35891178D01*
X282003239Y-36081654D01*
X282003239Y-36319749D01*
X281955620Y-36510225D01*
X281908001Y-36605463D01*
X281860382Y-36653082D01*
X281765144Y-36700701D01*
X281669905Y-36700701D01*
X281574667Y-36653082D01*
X281527048Y-36605463D01*
X281479429Y-36510225D01*
X281431810Y-36319749D01*
X281431810Y-36081654D01*
X281479429Y-35891178D01*
X281527048Y-35795940D01*
X281574667Y-35748321D01*
X281669905Y-35700701D01*
X282424191Y-34430701D02*
X282757525Y-35430701D01*
X283090858Y-34430701D01*
X283995620Y-35335463D02*
X283948001Y-35383082D01*
X283805144Y-35430701D01*
X283709905Y-35430701D01*
X283567048Y-35383082D01*
X283471810Y-35287844D01*
X283424191Y-35192606D01*
X283376572Y-35002130D01*
X283376572Y-34859273D01*
X283424191Y-34668797D01*
X283471810Y-34573559D01*
X283567048Y-34478321D01*
X283709905Y-34430701D01*
X283805144Y-34430701D01*
X283948001Y-34478321D01*
X283995620Y-34525940D01*
X284995620Y-35335463D02*
X284948001Y-35383082D01*
X284805144Y-35430701D01*
X284709905Y-35430701D01*
X284567048Y-35383082D01*
X284471810Y-35287844D01*
X284424191Y-35192606D01*
X284376572Y-35002130D01*
X284376572Y-34859273D01*
X284424191Y-34668797D01*
X284471810Y-34573559D01*
X284567048Y-34478321D01*
X284709905Y-34430701D01*
X284805144Y-34430701D01*
X284948001Y-34478321D01*
X284995620Y-34525940D01*
X285535620Y-35748321D02*
X285440382Y-35700701D01*
X285297525Y-35700701D01*
X285154667Y-35748321D01*
X285059429Y-35843559D01*
X285011810Y-35938797D01*
X284964191Y-36129273D01*
X284964191Y-36272130D01*
X285011810Y-36462606D01*
X285059429Y-36557844D01*
X285154667Y-36653082D01*
X285297525Y-36700701D01*
X285392763Y-36700701D01*
X285535620Y-36653082D01*
X285583239Y-36605463D01*
X285583239Y-36272130D01*
X285392763Y-36272130D01*
X286011810Y-36700701D02*
X286011810Y-35700701D01*
X286583239Y-36700701D01*
X286583239Y-35700701D01*
X287059429Y-36700701D02*
X287059429Y-35700701D01*
X287297525Y-35700701D01*
X287440382Y-35748321D01*
X287535620Y-35843559D01*
X287583239Y-35938797D01*
X287630858Y-36129273D01*
X287630858Y-36272130D01*
X287583239Y-36462606D01*
X287535620Y-36557844D01*
X287440382Y-36653082D01*
X287297525Y-36700701D01*
X287059429Y-36700701D01*
X241915620Y-17603082D02*
X242058477Y-17650701D01*
X242296572Y-17650701D01*
X242391810Y-17603082D01*
X242439429Y-17555463D01*
X242487048Y-17460225D01*
X242487048Y-17364987D01*
X242439429Y-17269749D01*
X242391810Y-17222130D01*
X242296572Y-17174511D01*
X242106096Y-17126892D01*
X242010858Y-17079273D01*
X241963239Y-17031654D01*
X241915620Y-16936416D01*
X241915620Y-16841178D01*
X241963239Y-16745940D01*
X242010858Y-16698321D01*
X242106096Y-16650701D01*
X242344191Y-16650701D01*
X242487048Y-16698321D01*
X242820382Y-16650701D02*
X243487048Y-16650701D01*
X243058477Y-17650701D01*
X234890858Y-36605463D02*
X234843239Y-36653082D01*
X234700382Y-36700701D01*
X234605144Y-36700701D01*
X234462286Y-36653082D01*
X234367048Y-36557844D01*
X234319429Y-36462606D01*
X234271810Y-36272130D01*
X234271810Y-36129273D01*
X234319429Y-35938797D01*
X234367048Y-35843559D01*
X234462286Y-35748321D01*
X234605144Y-35700701D01*
X234700382Y-35700701D01*
X234843239Y-35748321D01*
X234890858Y-35795940D01*
X235271810Y-36653082D02*
X235414667Y-36700701D01*
X235652763Y-36700701D01*
X235748001Y-36653082D01*
X235795620Y-36605463D01*
X235843239Y-36510225D01*
X235843239Y-36414987D01*
X235795620Y-36319749D01*
X235748001Y-36272130D01*
X235652763Y-36224511D01*
X235462286Y-36176892D01*
X235367048Y-36129273D01*
X235319429Y-36081654D01*
X235271810Y-35986416D01*
X235271810Y-35891178D01*
X235319429Y-35795940D01*
X235367048Y-35748321D01*
X235462286Y-35700701D01*
X235700382Y-35700701D01*
X235843239Y-35748321D01*
X236835620Y-35430701D02*
X236835620Y-34430701D01*
X237073715Y-34430701D01*
X237216572Y-34478321D01*
X237311810Y-34573559D01*
X237359429Y-34668797D01*
X237407048Y-34859273D01*
X237407048Y-35002130D01*
X237359429Y-35192606D01*
X237311810Y-35287844D01*
X237216572Y-35383082D01*
X237073715Y-35430701D01*
X236835620Y-35430701D01*
X238407048Y-35335463D02*
X238359429Y-35383082D01*
X238216572Y-35430701D01*
X238121334Y-35430701D01*
X237978477Y-35383082D01*
X237883239Y-35287844D01*
X237835620Y-35192606D01*
X237788001Y-35002130D01*
X237788001Y-34859273D01*
X237835620Y-34668797D01*
X237883239Y-34573559D01*
X237978477Y-34478321D01*
X238121334Y-34430701D01*
X238216572Y-34430701D01*
X238359429Y-34478321D01*
X238407048Y-34525940D01*
X239518477Y-36700701D02*
X239185144Y-36224511D01*
X238947048Y-36700701D02*
X238947048Y-35700701D01*
X239328001Y-35700701D01*
X239423239Y-35748321D01*
X239470858Y-35795940D01*
X239518477Y-35891178D01*
X239518477Y-36034035D01*
X239470858Y-36129273D01*
X239423239Y-36176892D01*
X239328001Y-36224511D01*
X238947048Y-36224511D01*
X239947048Y-36176892D02*
X240280382Y-36176892D01*
X240423239Y-36700701D02*
X239947048Y-36700701D01*
X239947048Y-35700701D01*
X240423239Y-35700701D01*
X240804191Y-36653082D02*
X240947048Y-36700701D01*
X241185144Y-36700701D01*
X241280382Y-36653082D01*
X241328001Y-36605463D01*
X241375620Y-36510225D01*
X241375620Y-36414987D01*
X241328001Y-36319749D01*
X241280382Y-36272130D01*
X241185144Y-36224511D01*
X240994667Y-36176892D01*
X240899429Y-36129273D01*
X240851810Y-36081654D01*
X240804191Y-35986416D01*
X240804191Y-35891178D01*
X240851810Y-35795940D01*
X240899429Y-35748321D01*
X240994667Y-35700701D01*
X241232763Y-35700701D01*
X241375620Y-35748321D01*
X241939429Y-35430701D02*
X241939429Y-34430701D01*
X242177525Y-34430701D01*
X242320382Y-34478321D01*
X242415620Y-34573559D01*
X242463239Y-34668797D01*
X242510858Y-34859273D01*
X242510858Y-35002130D01*
X242463239Y-35192606D01*
X242415620Y-35287844D01*
X242320382Y-35383082D01*
X242177525Y-35430701D01*
X241939429Y-35430701D01*
X243463239Y-35430701D02*
X242891810Y-35430701D01*
X243177525Y-35430701D02*
X243177525Y-34430701D01*
X243082286Y-34573559D01*
X242987048Y-34668797D01*
X242891810Y-34716416D01*
X244479429Y-36700701D02*
X244479429Y-35700701D01*
X244717525Y-35700701D01*
X244860382Y-35748321D01*
X244955620Y-35843559D01*
X245003239Y-35938797D01*
X245050858Y-36129273D01*
X245050858Y-36272130D01*
X245003239Y-36462606D01*
X244955620Y-36557844D01*
X244860382Y-36653082D01*
X244717525Y-36700701D01*
X244479429Y-36700701D01*
X245669905Y-35700701D02*
X245765144Y-35700701D01*
X245860382Y-35748321D01*
X245908001Y-35795940D01*
X245955620Y-35891178D01*
X246003239Y-36081654D01*
X246003239Y-36319749D01*
X245955620Y-36510225D01*
X245908001Y-36605463D01*
X245860382Y-36653082D01*
X245765144Y-36700701D01*
X245669905Y-36700701D01*
X245574667Y-36653082D01*
X245527048Y-36605463D01*
X245479429Y-36510225D01*
X245431810Y-36319749D01*
X245431810Y-36081654D01*
X245479429Y-35891178D01*
X245527048Y-35795940D01*
X245574667Y-35748321D01*
X245669905Y-35700701D01*
X246424191Y-34430701D02*
X246757525Y-35430701D01*
X247090858Y-34430701D01*
X247995620Y-35335463D02*
X247948001Y-35383082D01*
X247805144Y-35430701D01*
X247709905Y-35430701D01*
X247567048Y-35383082D01*
X247471810Y-35287844D01*
X247424191Y-35192606D01*
X247376572Y-35002130D01*
X247376572Y-34859273D01*
X247424191Y-34668797D01*
X247471810Y-34573559D01*
X247567048Y-34478321D01*
X247709905Y-34430701D01*
X247805144Y-34430701D01*
X247948001Y-34478321D01*
X247995620Y-34525940D01*
X248995620Y-35335463D02*
X248948001Y-35383082D01*
X248805144Y-35430701D01*
X248709905Y-35430701D01*
X248567048Y-35383082D01*
X248471810Y-35287844D01*
X248424191Y-35192606D01*
X248376572Y-35002130D01*
X248376572Y-34859273D01*
X248424191Y-34668797D01*
X248471810Y-34573559D01*
X248567048Y-34478321D01*
X248709905Y-34430701D01*
X248805144Y-34430701D01*
X248948001Y-34478321D01*
X248995620Y-34525940D01*
X249535620Y-35748321D02*
X249440382Y-35700701D01*
X249297525Y-35700701D01*
X249154667Y-35748321D01*
X249059429Y-35843559D01*
X249011810Y-35938797D01*
X248964191Y-36129273D01*
X248964191Y-36272130D01*
X249011810Y-36462606D01*
X249059429Y-36557844D01*
X249154667Y-36653082D01*
X249297525Y-36700701D01*
X249392763Y-36700701D01*
X249535620Y-36653082D01*
X249583239Y-36605463D01*
X249583239Y-36272130D01*
X249392763Y-36272130D01*
X250011810Y-36700701D02*
X250011810Y-35700701D01*
X250583239Y-36700701D01*
X250583239Y-35700701D01*
X251059429Y-36700701D02*
X251059429Y-35700701D01*
X251297525Y-35700701D01*
X251440382Y-35748321D01*
X251535620Y-35843559D01*
X251583239Y-35938797D01*
X251630858Y-36129273D01*
X251630858Y-36272130D01*
X251583239Y-36462606D01*
X251535620Y-36557844D01*
X251440382Y-36653082D01*
X251297525Y-36700701D01*
X251059429Y-36700701D01*
X205915620Y-17603082D02*
X206058477Y-17650701D01*
X206296572Y-17650701D01*
X206391810Y-17603082D01*
X206439429Y-17555463D01*
X206487048Y-17460225D01*
X206487048Y-17364987D01*
X206439429Y-17269749D01*
X206391810Y-17222130D01*
X206296572Y-17174511D01*
X206106096Y-17126892D01*
X206010858Y-17079273D01*
X205963239Y-17031654D01*
X205915620Y-16936416D01*
X205915620Y-16841178D01*
X205963239Y-16745940D01*
X206010858Y-16698321D01*
X206106096Y-16650701D01*
X206344191Y-16650701D01*
X206487048Y-16698321D01*
X207344191Y-16650701D02*
X207153715Y-16650701D01*
X207058477Y-16698321D01*
X207010858Y-16745940D01*
X206915620Y-16888797D01*
X206868001Y-17079273D01*
X206868001Y-17460225D01*
X206915620Y-17555463D01*
X206963239Y-17603082D01*
X207058477Y-17650701D01*
X207248953Y-17650701D01*
X207344191Y-17603082D01*
X207391810Y-17555463D01*
X207439429Y-17460225D01*
X207439429Y-17222130D01*
X207391810Y-17126892D01*
X207344191Y-17079273D01*
X207248953Y-17031654D01*
X207058477Y-17031654D01*
X206963239Y-17079273D01*
X206915620Y-17126892D01*
X206868001Y-17222130D01*
X198890858Y-36605463D02*
X198843239Y-36653082D01*
X198700382Y-36700701D01*
X198605144Y-36700701D01*
X198462286Y-36653082D01*
X198367048Y-36557844D01*
X198319429Y-36462606D01*
X198271810Y-36272130D01*
X198271810Y-36129273D01*
X198319429Y-35938797D01*
X198367048Y-35843559D01*
X198462286Y-35748321D01*
X198605144Y-35700701D01*
X198700382Y-35700701D01*
X198843239Y-35748321D01*
X198890858Y-35795940D01*
X199271810Y-36653082D02*
X199414667Y-36700701D01*
X199652763Y-36700701D01*
X199748001Y-36653082D01*
X199795620Y-36605463D01*
X199843239Y-36510225D01*
X199843239Y-36414987D01*
X199795620Y-36319749D01*
X199748001Y-36272130D01*
X199652763Y-36224511D01*
X199462286Y-36176892D01*
X199367048Y-36129273D01*
X199319429Y-36081654D01*
X199271810Y-35986416D01*
X199271810Y-35891178D01*
X199319429Y-35795940D01*
X199367048Y-35748321D01*
X199462286Y-35700701D01*
X199700382Y-35700701D01*
X199843239Y-35748321D01*
X200835620Y-35430701D02*
X200835620Y-34430701D01*
X201073715Y-34430701D01*
X201216572Y-34478321D01*
X201311810Y-34573559D01*
X201359429Y-34668797D01*
X201407048Y-34859273D01*
X201407048Y-35002130D01*
X201359429Y-35192606D01*
X201311810Y-35287844D01*
X201216572Y-35383082D01*
X201073715Y-35430701D01*
X200835620Y-35430701D01*
X202407048Y-35335463D02*
X202359429Y-35383082D01*
X202216572Y-35430701D01*
X202121334Y-35430701D01*
X201978477Y-35383082D01*
X201883239Y-35287844D01*
X201835620Y-35192606D01*
X201788001Y-35002130D01*
X201788001Y-34859273D01*
X201835620Y-34668797D01*
X201883239Y-34573559D01*
X201978477Y-34478321D01*
X202121334Y-34430701D01*
X202216572Y-34430701D01*
X202359429Y-34478321D01*
X202407048Y-34525940D01*
X203518477Y-36700701D02*
X203185144Y-36224511D01*
X202947048Y-36700701D02*
X202947048Y-35700701D01*
X203328001Y-35700701D01*
X203423239Y-35748321D01*
X203470858Y-35795940D01*
X203518477Y-35891178D01*
X203518477Y-36034035D01*
X203470858Y-36129273D01*
X203423239Y-36176892D01*
X203328001Y-36224511D01*
X202947048Y-36224511D01*
X203947048Y-36176892D02*
X204280382Y-36176892D01*
X204423239Y-36700701D02*
X203947048Y-36700701D01*
X203947048Y-35700701D01*
X204423239Y-35700701D01*
X204804191Y-36653082D02*
X204947048Y-36700701D01*
X205185144Y-36700701D01*
X205280382Y-36653082D01*
X205328001Y-36605463D01*
X205375620Y-36510225D01*
X205375620Y-36414987D01*
X205328001Y-36319749D01*
X205280382Y-36272130D01*
X205185144Y-36224511D01*
X204994667Y-36176892D01*
X204899429Y-36129273D01*
X204851810Y-36081654D01*
X204804191Y-35986416D01*
X204804191Y-35891178D01*
X204851810Y-35795940D01*
X204899429Y-35748321D01*
X204994667Y-35700701D01*
X205232763Y-35700701D01*
X205375620Y-35748321D01*
X205939429Y-35430701D02*
X205939429Y-34430701D01*
X206177525Y-34430701D01*
X206320382Y-34478321D01*
X206415620Y-34573559D01*
X206463239Y-34668797D01*
X206510858Y-34859273D01*
X206510858Y-35002130D01*
X206463239Y-35192606D01*
X206415620Y-35287844D01*
X206320382Y-35383082D01*
X206177525Y-35430701D01*
X205939429Y-35430701D01*
X207463239Y-35430701D02*
X206891810Y-35430701D01*
X207177525Y-35430701D02*
X207177525Y-34430701D01*
X207082286Y-34573559D01*
X206987048Y-34668797D01*
X206891810Y-34716416D01*
X208479429Y-36700701D02*
X208479429Y-35700701D01*
X208717525Y-35700701D01*
X208860382Y-35748321D01*
X208955620Y-35843559D01*
X209003239Y-35938797D01*
X209050858Y-36129273D01*
X209050858Y-36272130D01*
X209003239Y-36462606D01*
X208955620Y-36557844D01*
X208860382Y-36653082D01*
X208717525Y-36700701D01*
X208479429Y-36700701D01*
X209669905Y-35700701D02*
X209765144Y-35700701D01*
X209860382Y-35748321D01*
X209908001Y-35795940D01*
X209955620Y-35891178D01*
X210003239Y-36081654D01*
X210003239Y-36319749D01*
X209955620Y-36510225D01*
X209908001Y-36605463D01*
X209860382Y-36653082D01*
X209765144Y-36700701D01*
X209669905Y-36700701D01*
X209574667Y-36653082D01*
X209527048Y-36605463D01*
X209479429Y-36510225D01*
X209431810Y-36319749D01*
X209431810Y-36081654D01*
X209479429Y-35891178D01*
X209527048Y-35795940D01*
X209574667Y-35748321D01*
X209669905Y-35700701D01*
X210424191Y-34430701D02*
X210757525Y-35430701D01*
X211090858Y-34430701D01*
X211995620Y-35335463D02*
X211948001Y-35383082D01*
X211805144Y-35430701D01*
X211709905Y-35430701D01*
X211567048Y-35383082D01*
X211471810Y-35287844D01*
X211424191Y-35192606D01*
X211376572Y-35002130D01*
X211376572Y-34859273D01*
X211424191Y-34668797D01*
X211471810Y-34573559D01*
X211567048Y-34478321D01*
X211709905Y-34430701D01*
X211805144Y-34430701D01*
X211948001Y-34478321D01*
X211995620Y-34525940D01*
X212995620Y-35335463D02*
X212948001Y-35383082D01*
X212805144Y-35430701D01*
X212709905Y-35430701D01*
X212567048Y-35383082D01*
X212471810Y-35287844D01*
X212424191Y-35192606D01*
X212376572Y-35002130D01*
X212376572Y-34859273D01*
X212424191Y-34668797D01*
X212471810Y-34573559D01*
X212567048Y-34478321D01*
X212709905Y-34430701D01*
X212805144Y-34430701D01*
X212948001Y-34478321D01*
X212995620Y-34525940D01*
X213535620Y-35748321D02*
X213440382Y-35700701D01*
X213297525Y-35700701D01*
X213154667Y-35748321D01*
X213059429Y-35843559D01*
X213011810Y-35938797D01*
X212964191Y-36129273D01*
X212964191Y-36272130D01*
X213011810Y-36462606D01*
X213059429Y-36557844D01*
X213154667Y-36653082D01*
X213297525Y-36700701D01*
X213392763Y-36700701D01*
X213535620Y-36653082D01*
X213583239Y-36605463D01*
X213583239Y-36272130D01*
X213392763Y-36272130D01*
X214011810Y-36700701D02*
X214011810Y-35700701D01*
X214583239Y-36700701D01*
X214583239Y-35700701D01*
X215059429Y-36700701D02*
X215059429Y-35700701D01*
X215297525Y-35700701D01*
X215440382Y-35748321D01*
X215535620Y-35843559D01*
X215583239Y-35938797D01*
X215630858Y-36129273D01*
X215630858Y-36272130D01*
X215583239Y-36462606D01*
X215535620Y-36557844D01*
X215440382Y-36653082D01*
X215297525Y-36700701D01*
X215059429Y-36700701D01*
X168719595Y-17740261D02*
X168862452Y-17787880D01*
X169100547Y-17787880D01*
X169195785Y-17740261D01*
X169243404Y-17692642D01*
X169291023Y-17597404D01*
X169291023Y-17502166D01*
X169243404Y-17406928D01*
X169195785Y-17359309D01*
X169100547Y-17311690D01*
X168910071Y-17264071D01*
X168814833Y-17216452D01*
X168767214Y-17168833D01*
X168719595Y-17073595D01*
X168719595Y-16978357D01*
X168767214Y-16883119D01*
X168814833Y-16835500D01*
X168910071Y-16787880D01*
X169148166Y-16787880D01*
X169291023Y-16835500D01*
X170195785Y-16787880D02*
X169719595Y-16787880D01*
X169671976Y-17264071D01*
X169719595Y-17216452D01*
X169814833Y-17168833D01*
X170052928Y-17168833D01*
X170148166Y-17216452D01*
X170195785Y-17264071D01*
X170243404Y-17359309D01*
X170243404Y-17597404D01*
X170195785Y-17692642D01*
X170148166Y-17740261D01*
X170052928Y-17787880D01*
X169814833Y-17787880D01*
X169719595Y-17740261D01*
X169671976Y-17692642D01*
X161694833Y-36742642D02*
X161647214Y-36790261D01*
X161504357Y-36837880D01*
X161409119Y-36837880D01*
X161266261Y-36790261D01*
X161171023Y-36695023D01*
X161123404Y-36599785D01*
X161075785Y-36409309D01*
X161075785Y-36266452D01*
X161123404Y-36075976D01*
X161171023Y-35980738D01*
X161266261Y-35885500D01*
X161409119Y-35837880D01*
X161504357Y-35837880D01*
X161647214Y-35885500D01*
X161694833Y-35933119D01*
X162075785Y-36790261D02*
X162218642Y-36837880D01*
X162456738Y-36837880D01*
X162551976Y-36790261D01*
X162599595Y-36742642D01*
X162647214Y-36647404D01*
X162647214Y-36552166D01*
X162599595Y-36456928D01*
X162551976Y-36409309D01*
X162456738Y-36361690D01*
X162266261Y-36314071D01*
X162171023Y-36266452D01*
X162123404Y-36218833D01*
X162075785Y-36123595D01*
X162075785Y-36028357D01*
X162123404Y-35933119D01*
X162171023Y-35885500D01*
X162266261Y-35837880D01*
X162504357Y-35837880D01*
X162647214Y-35885500D01*
X163639595Y-35567880D02*
X163639595Y-34567880D01*
X163877690Y-34567880D01*
X164020547Y-34615500D01*
X164115785Y-34710738D01*
X164163404Y-34805976D01*
X164211023Y-34996452D01*
X164211023Y-35139309D01*
X164163404Y-35329785D01*
X164115785Y-35425023D01*
X164020547Y-35520261D01*
X163877690Y-35567880D01*
X163639595Y-35567880D01*
X165211023Y-35472642D02*
X165163404Y-35520261D01*
X165020547Y-35567880D01*
X164925309Y-35567880D01*
X164782452Y-35520261D01*
X164687214Y-35425023D01*
X164639595Y-35329785D01*
X164591976Y-35139309D01*
X164591976Y-34996452D01*
X164639595Y-34805976D01*
X164687214Y-34710738D01*
X164782452Y-34615500D01*
X164925309Y-34567880D01*
X165020547Y-34567880D01*
X165163404Y-34615500D01*
X165211023Y-34663119D01*
X166322452Y-36837880D02*
X165989119Y-36361690D01*
X165751023Y-36837880D02*
X165751023Y-35837880D01*
X166131976Y-35837880D01*
X166227214Y-35885500D01*
X166274833Y-35933119D01*
X166322452Y-36028357D01*
X166322452Y-36171214D01*
X166274833Y-36266452D01*
X166227214Y-36314071D01*
X166131976Y-36361690D01*
X165751023Y-36361690D01*
X166751023Y-36314071D02*
X167084357Y-36314071D01*
X167227214Y-36837880D02*
X166751023Y-36837880D01*
X166751023Y-35837880D01*
X167227214Y-35837880D01*
X167608166Y-36790261D02*
X167751023Y-36837880D01*
X167989119Y-36837880D01*
X168084357Y-36790261D01*
X168131976Y-36742642D01*
X168179595Y-36647404D01*
X168179595Y-36552166D01*
X168131976Y-36456928D01*
X168084357Y-36409309D01*
X167989119Y-36361690D01*
X167798642Y-36314071D01*
X167703404Y-36266452D01*
X167655785Y-36218833D01*
X167608166Y-36123595D01*
X167608166Y-36028357D01*
X167655785Y-35933119D01*
X167703404Y-35885500D01*
X167798642Y-35837880D01*
X168036738Y-35837880D01*
X168179595Y-35885500D01*
X168743404Y-35567880D02*
X168743404Y-34567880D01*
X168981500Y-34567880D01*
X169124357Y-34615500D01*
X169219595Y-34710738D01*
X169267214Y-34805976D01*
X169314833Y-34996452D01*
X169314833Y-35139309D01*
X169267214Y-35329785D01*
X169219595Y-35425023D01*
X169124357Y-35520261D01*
X168981500Y-35567880D01*
X168743404Y-35567880D01*
X170267214Y-35567880D02*
X169695785Y-35567880D01*
X169981500Y-35567880D02*
X169981500Y-34567880D01*
X169886261Y-34710738D01*
X169791023Y-34805976D01*
X169695785Y-34853595D01*
X171283404Y-36837880D02*
X171283404Y-35837880D01*
X171521500Y-35837880D01*
X171664357Y-35885500D01*
X171759595Y-35980738D01*
X171807214Y-36075976D01*
X171854833Y-36266452D01*
X171854833Y-36409309D01*
X171807214Y-36599785D01*
X171759595Y-36695023D01*
X171664357Y-36790261D01*
X171521500Y-36837880D01*
X171283404Y-36837880D01*
X172473880Y-35837880D02*
X172569119Y-35837880D01*
X172664357Y-35885500D01*
X172711976Y-35933119D01*
X172759595Y-36028357D01*
X172807214Y-36218833D01*
X172807214Y-36456928D01*
X172759595Y-36647404D01*
X172711976Y-36742642D01*
X172664357Y-36790261D01*
X172569119Y-36837880D01*
X172473880Y-36837880D01*
X172378642Y-36790261D01*
X172331023Y-36742642D01*
X172283404Y-36647404D01*
X172235785Y-36456928D01*
X172235785Y-36218833D01*
X172283404Y-36028357D01*
X172331023Y-35933119D01*
X172378642Y-35885500D01*
X172473880Y-35837880D01*
X173228166Y-34567880D02*
X173561500Y-35567880D01*
X173894833Y-34567880D01*
X174799595Y-35472642D02*
X174751976Y-35520261D01*
X174609119Y-35567880D01*
X174513880Y-35567880D01*
X174371023Y-35520261D01*
X174275785Y-35425023D01*
X174228166Y-35329785D01*
X174180547Y-35139309D01*
X174180547Y-34996452D01*
X174228166Y-34805976D01*
X174275785Y-34710738D01*
X174371023Y-34615500D01*
X174513880Y-34567880D01*
X174609119Y-34567880D01*
X174751976Y-34615500D01*
X174799595Y-34663119D01*
X175799595Y-35472642D02*
X175751976Y-35520261D01*
X175609119Y-35567880D01*
X175513880Y-35567880D01*
X175371023Y-35520261D01*
X175275785Y-35425023D01*
X175228166Y-35329785D01*
X175180547Y-35139309D01*
X175180547Y-34996452D01*
X175228166Y-34805976D01*
X175275785Y-34710738D01*
X175371023Y-34615500D01*
X175513880Y-34567880D01*
X175609119Y-34567880D01*
X175751976Y-34615500D01*
X175799595Y-34663119D01*
X176339595Y-35885500D02*
X176244357Y-35837880D01*
X176101500Y-35837880D01*
X175958642Y-35885500D01*
X175863404Y-35980738D01*
X175815785Y-36075976D01*
X175768166Y-36266452D01*
X175768166Y-36409309D01*
X175815785Y-36599785D01*
X175863404Y-36695023D01*
X175958642Y-36790261D01*
X176101500Y-36837880D01*
X176196738Y-36837880D01*
X176339595Y-36790261D01*
X176387214Y-36742642D01*
X176387214Y-36409309D01*
X176196738Y-36409309D01*
X176815785Y-36837880D02*
X176815785Y-35837880D01*
X177387214Y-36837880D01*
X177387214Y-35837880D01*
X177863404Y-36837880D02*
X177863404Y-35837880D01*
X178101500Y-35837880D01*
X178244357Y-35885500D01*
X178339595Y-35980738D01*
X178387214Y-36075976D01*
X178434833Y-36266452D01*
X178434833Y-36409309D01*
X178387214Y-36599785D01*
X178339595Y-36695023D01*
X178244357Y-36790261D01*
X178101500Y-36837880D01*
X177863404Y-36837880D01*
X133915620Y-17603082D02*
X134058477Y-17650701D01*
X134296572Y-17650701D01*
X134391810Y-17603082D01*
X134439429Y-17555463D01*
X134487048Y-17460225D01*
X134487048Y-17364987D01*
X134439429Y-17269749D01*
X134391810Y-17222130D01*
X134296572Y-17174511D01*
X134106096Y-17126892D01*
X134010858Y-17079273D01*
X133963239Y-17031654D01*
X133915620Y-16936416D01*
X133915620Y-16841178D01*
X133963239Y-16745940D01*
X134010858Y-16698321D01*
X134106096Y-16650701D01*
X134344191Y-16650701D01*
X134487048Y-16698321D01*
X135344191Y-16984035D02*
X135344191Y-17650701D01*
X135106096Y-16603082D02*
X134868001Y-17317368D01*
X135487048Y-17317368D01*
X126890858Y-36605463D02*
X126843239Y-36653082D01*
X126700382Y-36700701D01*
X126605144Y-36700701D01*
X126462286Y-36653082D01*
X126367048Y-36557844D01*
X126319429Y-36462606D01*
X126271810Y-36272130D01*
X126271810Y-36129273D01*
X126319429Y-35938797D01*
X126367048Y-35843559D01*
X126462286Y-35748321D01*
X126605144Y-35700701D01*
X126700382Y-35700701D01*
X126843239Y-35748321D01*
X126890858Y-35795940D01*
X127271810Y-36653082D02*
X127414667Y-36700701D01*
X127652763Y-36700701D01*
X127748001Y-36653082D01*
X127795620Y-36605463D01*
X127843239Y-36510225D01*
X127843239Y-36414987D01*
X127795620Y-36319749D01*
X127748001Y-36272130D01*
X127652763Y-36224511D01*
X127462286Y-36176892D01*
X127367048Y-36129273D01*
X127319429Y-36081654D01*
X127271810Y-35986416D01*
X127271810Y-35891178D01*
X127319429Y-35795940D01*
X127367048Y-35748321D01*
X127462286Y-35700701D01*
X127700382Y-35700701D01*
X127843239Y-35748321D01*
X128835620Y-35430701D02*
X128835620Y-34430701D01*
X129073715Y-34430701D01*
X129216572Y-34478321D01*
X129311810Y-34573559D01*
X129359429Y-34668797D01*
X129407048Y-34859273D01*
X129407048Y-35002130D01*
X129359429Y-35192606D01*
X129311810Y-35287844D01*
X129216572Y-35383082D01*
X129073715Y-35430701D01*
X128835620Y-35430701D01*
X130407048Y-35335463D02*
X130359429Y-35383082D01*
X130216572Y-35430701D01*
X130121334Y-35430701D01*
X129978477Y-35383082D01*
X129883239Y-35287844D01*
X129835620Y-35192606D01*
X129788001Y-35002130D01*
X129788001Y-34859273D01*
X129835620Y-34668797D01*
X129883239Y-34573559D01*
X129978477Y-34478321D01*
X130121334Y-34430701D01*
X130216572Y-34430701D01*
X130359429Y-34478321D01*
X130407048Y-34525940D01*
X131518477Y-36700701D02*
X131185144Y-36224511D01*
X130947048Y-36700701D02*
X130947048Y-35700701D01*
X131328001Y-35700701D01*
X131423239Y-35748321D01*
X131470858Y-35795940D01*
X131518477Y-35891178D01*
X131518477Y-36034035D01*
X131470858Y-36129273D01*
X131423239Y-36176892D01*
X131328001Y-36224511D01*
X130947048Y-36224511D01*
X131947048Y-36176892D02*
X132280382Y-36176892D01*
X132423239Y-36700701D02*
X131947048Y-36700701D01*
X131947048Y-35700701D01*
X132423239Y-35700701D01*
X132804191Y-36653082D02*
X132947048Y-36700701D01*
X133185144Y-36700701D01*
X133280382Y-36653082D01*
X133328001Y-36605463D01*
X133375620Y-36510225D01*
X133375620Y-36414987D01*
X133328001Y-36319749D01*
X133280382Y-36272130D01*
X133185144Y-36224511D01*
X132994667Y-36176892D01*
X132899429Y-36129273D01*
X132851810Y-36081654D01*
X132804191Y-35986416D01*
X132804191Y-35891178D01*
X132851810Y-35795940D01*
X132899429Y-35748321D01*
X132994667Y-35700701D01*
X133232763Y-35700701D01*
X133375620Y-35748321D01*
X133939429Y-35430701D02*
X133939429Y-34430701D01*
X134177525Y-34430701D01*
X134320382Y-34478321D01*
X134415620Y-34573559D01*
X134463239Y-34668797D01*
X134510858Y-34859273D01*
X134510858Y-35002130D01*
X134463239Y-35192606D01*
X134415620Y-35287844D01*
X134320382Y-35383082D01*
X134177525Y-35430701D01*
X133939429Y-35430701D01*
X135463239Y-35430701D02*
X134891810Y-35430701D01*
X135177525Y-35430701D02*
X135177525Y-34430701D01*
X135082286Y-34573559D01*
X134987048Y-34668797D01*
X134891810Y-34716416D01*
X136479429Y-36700701D02*
X136479429Y-35700701D01*
X136717525Y-35700701D01*
X136860382Y-35748321D01*
X136955620Y-35843559D01*
X137003239Y-35938797D01*
X137050858Y-36129273D01*
X137050858Y-36272130D01*
X137003239Y-36462606D01*
X136955620Y-36557844D01*
X136860382Y-36653082D01*
X136717525Y-36700701D01*
X136479429Y-36700701D01*
X137669905Y-35700701D02*
X137765144Y-35700701D01*
X137860382Y-35748321D01*
X137908001Y-35795940D01*
X137955620Y-35891178D01*
X138003239Y-36081654D01*
X138003239Y-36319749D01*
X137955620Y-36510225D01*
X137908001Y-36605463D01*
X137860382Y-36653082D01*
X137765144Y-36700701D01*
X137669905Y-36700701D01*
X137574667Y-36653082D01*
X137527048Y-36605463D01*
X137479429Y-36510225D01*
X137431810Y-36319749D01*
X137431810Y-36081654D01*
X137479429Y-35891178D01*
X137527048Y-35795940D01*
X137574667Y-35748321D01*
X137669905Y-35700701D01*
X138424191Y-34430701D02*
X138757525Y-35430701D01*
X139090858Y-34430701D01*
X139995620Y-35335463D02*
X139948001Y-35383082D01*
X139805144Y-35430701D01*
X139709905Y-35430701D01*
X139567048Y-35383082D01*
X139471810Y-35287844D01*
X139424191Y-35192606D01*
X139376572Y-35002130D01*
X139376572Y-34859273D01*
X139424191Y-34668797D01*
X139471810Y-34573559D01*
X139567048Y-34478321D01*
X139709905Y-34430701D01*
X139805144Y-34430701D01*
X139948001Y-34478321D01*
X139995620Y-34525940D01*
X140995620Y-35335463D02*
X140948001Y-35383082D01*
X140805144Y-35430701D01*
X140709905Y-35430701D01*
X140567048Y-35383082D01*
X140471810Y-35287844D01*
X140424191Y-35192606D01*
X140376572Y-35002130D01*
X140376572Y-34859273D01*
X140424191Y-34668797D01*
X140471810Y-34573559D01*
X140567048Y-34478321D01*
X140709905Y-34430701D01*
X140805144Y-34430701D01*
X140948001Y-34478321D01*
X140995620Y-34525940D01*
X141535620Y-35748321D02*
X141440382Y-35700701D01*
X141297525Y-35700701D01*
X141154667Y-35748321D01*
X141059429Y-35843559D01*
X141011810Y-35938797D01*
X140964191Y-36129273D01*
X140964191Y-36272130D01*
X141011810Y-36462606D01*
X141059429Y-36557844D01*
X141154667Y-36653082D01*
X141297525Y-36700701D01*
X141392763Y-36700701D01*
X141535620Y-36653082D01*
X141583239Y-36605463D01*
X141583239Y-36272130D01*
X141392763Y-36272130D01*
X142011810Y-36700701D02*
X142011810Y-35700701D01*
X142583239Y-36700701D01*
X142583239Y-35700701D01*
X143059429Y-36700701D02*
X143059429Y-35700701D01*
X143297525Y-35700701D01*
X143440382Y-35748321D01*
X143535620Y-35843559D01*
X143583239Y-35938797D01*
X143630858Y-36129273D01*
X143630858Y-36272130D01*
X143583239Y-36462606D01*
X143535620Y-36557844D01*
X143440382Y-36653082D01*
X143297525Y-36700701D01*
X143059429Y-36700701D01*
M02*
