G04 #@! TF.GenerationSoftware,KiCad,Pcbnew,(5.1.4-0-10_14)*
G04 #@! TF.CreationDate,2020-04-04T17:45:35+02:00*
G04 #@! TF.ProjectId,Untitled,556e7469-746c-4656-942e-6b696361645f,rev?*
G04 #@! TF.SameCoordinates,Original*
G04 #@! TF.FileFunction,Copper,L1,Top*
G04 #@! TF.FilePolarity,Positive*
%FSLAX46Y46*%
G04 Gerber Fmt 4.6, Leading zero omitted, Abs format (unit mm)*
G04 Created by KiCad (PCBNEW (5.1.4-0-10_14)) date 2020-04-04 17:45:35*
%MOMM*%
%LPD*%
G04 APERTURE LIST*
%ADD10O,1.300000X3.000000*%
%ADD11O,1.700000X1.700000*%
%ADD12R,1.700000X1.700000*%
%ADD13C,0.800000*%
%ADD14C,0.250000*%
G04 APERTURE END LIST*
D10*
X110680500Y-32075120D03*
X110680500Y-16827500D03*
X113220500Y-32075120D03*
X113220500Y-16827500D03*
X115760500Y-32067500D03*
X115760500Y-16835120D03*
X118300500Y-32067500D03*
X118300500Y-16827500D03*
X120840500Y-32067500D03*
X120840500Y-16827500D03*
X123380500Y-32067500D03*
X123380500Y-16827500D03*
X125920500Y-32067500D03*
X125920500Y-16827500D03*
X128460500Y-32067500D03*
X128460500Y-16827500D03*
X131000500Y-32075120D03*
X131000500Y-16827500D03*
X133540500Y-32067500D03*
X133540500Y-16827500D03*
X136080500Y-32067500D03*
X136080500Y-16827500D03*
X138620500Y-32067500D03*
X138620500Y-16827500D03*
X141160500Y-32067500D03*
X141160500Y-16835120D03*
X143700500Y-32067500D03*
X143700500Y-16827500D03*
X146240500Y-32067500D03*
X146240500Y-16827500D03*
X148780500Y-32067500D03*
X148780500Y-16827500D03*
X151320500Y-32067500D03*
X151320500Y-16827500D03*
X153860500Y-32075120D03*
X153860500Y-16827500D03*
X156400500Y-32067500D03*
X156400500Y-16827500D03*
X158940500Y-32067500D03*
X158940500Y-16827500D03*
D11*
X19057525Y-38788321D03*
X21597525Y-38788321D03*
X24137525Y-38788321D03*
X26677525Y-38788321D03*
X29217525Y-38788321D03*
X31757525Y-38788321D03*
D12*
X34297525Y-38788321D03*
D11*
X55057525Y-38788321D03*
X57597525Y-38788321D03*
X60137525Y-38788321D03*
X62677525Y-38788321D03*
X65217525Y-38788321D03*
X67757525Y-38788321D03*
D12*
X70297525Y-38788321D03*
D11*
X91057525Y-38788321D03*
X93597525Y-38788321D03*
X96137525Y-38788321D03*
X98677525Y-38788321D03*
X101217525Y-38788321D03*
X103757525Y-38788321D03*
D12*
X106297525Y-38788321D03*
D11*
X271057525Y-38788321D03*
X273597525Y-38788321D03*
X276137525Y-38788321D03*
X278677525Y-38788321D03*
X281217525Y-38788321D03*
X283757525Y-38788321D03*
D12*
X286297525Y-38788321D03*
D11*
X235057525Y-38788321D03*
X237597525Y-38788321D03*
X240137525Y-38788321D03*
X242677525Y-38788321D03*
X245217525Y-38788321D03*
X247757525Y-38788321D03*
D12*
X250297525Y-38788321D03*
D11*
X199057525Y-38788321D03*
X201597525Y-38788321D03*
X204137525Y-38788321D03*
X206677525Y-38788321D03*
X209217525Y-38788321D03*
X211757525Y-38788321D03*
D12*
X214297525Y-38788321D03*
D11*
X161861500Y-38925500D03*
X164401500Y-38925500D03*
X166941500Y-38925500D03*
X169481500Y-38925500D03*
X172021500Y-38925500D03*
X174561500Y-38925500D03*
D12*
X177101500Y-38925500D03*
D11*
X127057525Y-38788321D03*
X129597525Y-38788321D03*
X132137525Y-38788321D03*
X134677525Y-38788321D03*
X137217525Y-38788321D03*
X139757525Y-38788321D03*
D12*
X142297525Y-38788321D03*
D13*
X34297525Y-29583475D03*
X70358000Y-29527500D03*
X106235500Y-29527500D03*
X142557500Y-29527500D03*
X177101500Y-29554000D03*
X214312500Y-29718000D03*
X250444000Y-29591000D03*
X286258000Y-30035500D03*
X31813500Y-28511500D03*
X67754500Y-28575000D03*
X103695500Y-28638500D03*
X139827000Y-28638500D03*
X174625000Y-28829000D03*
X211772500Y-28765500D03*
X247650000Y-28765500D03*
X283781500Y-28892500D03*
X21590000Y-24257000D03*
X57594500Y-24193500D03*
X93609163Y-24521163D03*
X123444000Y-24701500D03*
X164528500Y-24828500D03*
X201612500Y-24955500D03*
X237617000Y-25019000D03*
X273558000Y-24955500D03*
X24130000Y-25400000D03*
X60198000Y-25400000D03*
X96139000Y-25400000D03*
X125901501Y-25799999D03*
X166941500Y-25717500D03*
X204044499Y-26117499D03*
X240157000Y-26098500D03*
X276161500Y-26162000D03*
X26733500Y-26416000D03*
X62674500Y-26479500D03*
X98679000Y-26524999D03*
X128460500Y-26543000D03*
X169481500Y-26842499D03*
X206629000Y-26860500D03*
X242697000Y-26924000D03*
X278638000Y-26987500D03*
X29344525Y-27551475D03*
X65214500Y-27495500D03*
X101219000Y-27495500D03*
X133540500Y-27667999D03*
X172021500Y-27567499D03*
X209232500Y-27585500D03*
X245110000Y-28003500D03*
X281051000Y-28067000D03*
D14*
X34297525Y-38788321D02*
X34297525Y-29583475D01*
X70358000Y-38727846D02*
X70297525Y-38788321D01*
X70358000Y-29527500D02*
X70358000Y-38727846D01*
X106235500Y-38726296D02*
X106297525Y-38788321D01*
X106235500Y-29527500D02*
X106235500Y-38726296D01*
X142557500Y-38528346D02*
X142297525Y-38788321D01*
X142557500Y-29527500D02*
X142557500Y-38528346D01*
X177101500Y-29554000D02*
X177101500Y-38925500D01*
X214312500Y-38773346D02*
X214297525Y-38788321D01*
X214312500Y-29718000D02*
X214312500Y-38773346D01*
X250444000Y-38641846D02*
X250297525Y-38788321D01*
X250444000Y-29591000D02*
X250444000Y-38641846D01*
X286258000Y-38748796D02*
X286297525Y-38788321D01*
X286258000Y-30035500D02*
X286258000Y-38748796D01*
X106235500Y-29527500D02*
X112649000Y-29527500D01*
X113220500Y-30099000D02*
X113220500Y-32075120D01*
X112649000Y-29527500D02*
X113220500Y-30099000D01*
X31757525Y-28567475D02*
X31813500Y-28511500D01*
X31757525Y-38788321D02*
X31757525Y-28567475D01*
X67754500Y-38785296D02*
X67757525Y-38788321D01*
X67754500Y-28575000D02*
X67754500Y-38785296D01*
X103695500Y-38726296D02*
X103757525Y-38788321D01*
X103695500Y-28638500D02*
X103695500Y-38726296D01*
X139827000Y-38718846D02*
X139757525Y-38788321D01*
X139827000Y-28638500D02*
X139827000Y-38718846D01*
X174625000Y-38862000D02*
X174561500Y-38925500D01*
X174625000Y-28829000D02*
X174625000Y-38862000D01*
X211772500Y-38773346D02*
X211757525Y-38788321D01*
X211772500Y-28765500D02*
X211772500Y-38773346D01*
X247650000Y-38680796D02*
X247757525Y-38788321D01*
X247650000Y-28765500D02*
X247650000Y-38680796D01*
X283781500Y-38764346D02*
X283757525Y-38788321D01*
X283781500Y-28892500D02*
X283781500Y-38764346D01*
X115760500Y-31217500D02*
X115760500Y-32067500D01*
X113181500Y-28638500D02*
X115760500Y-31217500D01*
X103695500Y-28638500D02*
X113181500Y-28638500D01*
X21597525Y-24264525D02*
X21590000Y-24257000D01*
X21597525Y-38788321D02*
X21597525Y-24264525D01*
X57594500Y-38785296D02*
X57597525Y-38788321D01*
X57594500Y-24193500D02*
X57594500Y-38785296D01*
X93609163Y-38776683D02*
X93597525Y-38788321D01*
X93609163Y-24521163D02*
X93609163Y-38776683D01*
X123444000Y-32004000D02*
X123380500Y-32067500D01*
X123444000Y-24701500D02*
X123444000Y-32004000D01*
X164528500Y-38798500D02*
X164401500Y-38925500D01*
X164528500Y-24828500D02*
X164528500Y-38798500D01*
X201612500Y-38773346D02*
X201597525Y-38788321D01*
X201612500Y-24955500D02*
X201612500Y-38773346D01*
X237617000Y-25019000D02*
X237617000Y-39433500D01*
X273558000Y-38748796D02*
X273597525Y-38788321D01*
X273558000Y-24955500D02*
X273558000Y-38748796D01*
X129251321Y-38788321D02*
X129597525Y-38788321D01*
X123380500Y-32917500D02*
X129251321Y-38788321D01*
X123380500Y-32067500D02*
X123380500Y-32917500D01*
X24137525Y-25407525D02*
X24130000Y-25400000D01*
X24137525Y-38788321D02*
X24137525Y-25407525D01*
X60198000Y-38727846D02*
X60137525Y-38788321D01*
X60198000Y-25400000D02*
X60198000Y-38727846D01*
X96139000Y-38786846D02*
X96137525Y-38788321D01*
X96139000Y-25400000D02*
X96139000Y-38786846D01*
X125901501Y-32048501D02*
X125920500Y-32067500D01*
X125901501Y-25799999D02*
X125901501Y-32048501D01*
X166941500Y-25717500D02*
X166941500Y-38925500D01*
X204044499Y-38695295D02*
X204137525Y-38788321D01*
X204044499Y-26117499D02*
X204044499Y-38695295D01*
X240157000Y-38768846D02*
X240137525Y-38788321D01*
X240157000Y-26098500D02*
X240157000Y-38768846D01*
X276161500Y-38764346D02*
X276137525Y-38788321D01*
X276161500Y-26162000D02*
X276161500Y-38764346D01*
X125920500Y-32917500D02*
X131791321Y-38788321D01*
X131791321Y-38788321D02*
X132137525Y-38788321D01*
X125920500Y-32067500D02*
X125920500Y-32917500D01*
X26677525Y-26471975D02*
X26733500Y-26416000D01*
X26677525Y-38788321D02*
X26677525Y-26471975D01*
X62674500Y-38785296D02*
X62677525Y-38788321D01*
X62674500Y-26479500D02*
X62674500Y-38785296D01*
X98679000Y-38786846D02*
X98677525Y-38788321D01*
X98679000Y-26524999D02*
X98679000Y-38786846D01*
X128460500Y-26543000D02*
X128460500Y-32067500D01*
X128460500Y-32917500D02*
X134331321Y-38788321D01*
X134331321Y-38788321D02*
X134677525Y-38788321D01*
X128460500Y-32067500D02*
X128460500Y-32917500D01*
X169481500Y-26842499D02*
X169481500Y-38925500D01*
X206629000Y-38739796D02*
X206677525Y-38788321D01*
X206629000Y-26860500D02*
X206629000Y-38739796D01*
X242697000Y-38768846D02*
X242677525Y-38788321D01*
X242697000Y-26924000D02*
X242697000Y-38768846D01*
X278638000Y-38748796D02*
X278677525Y-38788321D01*
X278638000Y-27495500D02*
X278638000Y-26987500D01*
X278638000Y-27305000D02*
X278638000Y-27495500D01*
X278638000Y-27495500D02*
X278638000Y-38748796D01*
X29217525Y-27678475D02*
X29344525Y-27551475D01*
X29217525Y-38788321D02*
X29217525Y-27678475D01*
X65214500Y-38785296D02*
X65217525Y-38788321D01*
X65214500Y-27495500D02*
X65214500Y-38785296D01*
X101219000Y-38786846D02*
X101217525Y-38788321D01*
X101219000Y-27495500D02*
X101219000Y-38786846D01*
X133540500Y-27667999D02*
X133540500Y-32067500D01*
X133540500Y-35111296D02*
X137217525Y-38788321D01*
X133540500Y-32067500D02*
X133540500Y-35111296D01*
X172021500Y-27567499D02*
X172021500Y-38925500D01*
X209232500Y-38773346D02*
X209217525Y-38788321D01*
X209232500Y-27585500D02*
X209232500Y-38773346D01*
X245110000Y-38680796D02*
X245217525Y-38788321D01*
X245110000Y-28003500D02*
X245110000Y-38680796D01*
X281051000Y-38621796D02*
X281217525Y-38788321D01*
X281051000Y-27813000D02*
X281051000Y-38621796D01*
X133540500Y-17677500D02*
X133540500Y-16827500D01*
X131977500Y-19240500D02*
X133540500Y-17677500D01*
X19621500Y-19240500D02*
X131977500Y-19240500D01*
X19057525Y-19804475D02*
X19621500Y-19240500D01*
X19057525Y-38788321D02*
X19057525Y-19804475D01*
X55057525Y-38788321D02*
X55057525Y-21020985D01*
X136080500Y-17677500D02*
X136080500Y-16827500D01*
X134067490Y-19690510D02*
X136080500Y-17677500D01*
X56388000Y-19690510D02*
X134067490Y-19690510D01*
X55057525Y-21020985D02*
X56388000Y-19690510D01*
X91057525Y-38788321D02*
X91057525Y-26047495D01*
X136157480Y-20140520D02*
X138620500Y-17677500D01*
X96964500Y-20140520D02*
X136157480Y-20140520D01*
X138620500Y-17677500D02*
X138620500Y-16827500D01*
X91057525Y-26047495D02*
X96964500Y-20140520D01*
X138255090Y-20590530D02*
X141160500Y-17685120D01*
X121186822Y-37938322D02*
X119865490Y-36616990D01*
X126207526Y-37938322D02*
X121186822Y-37938322D01*
X141160500Y-17685120D02*
X141160500Y-16835120D01*
X125078470Y-20590530D02*
X138255090Y-20590530D01*
X119865490Y-25803510D02*
X125078470Y-20590530D01*
X119865490Y-36616990D02*
X119865490Y-25803510D01*
X127057525Y-38788321D02*
X126207526Y-37938322D01*
X161861500Y-21780500D02*
X161861500Y-38925500D01*
X160671530Y-20590530D02*
X161861500Y-21780500D01*
X145713530Y-20590530D02*
X160671530Y-20590530D01*
X143700500Y-18577500D02*
X145713530Y-20590530D01*
X143700500Y-16827500D02*
X143700500Y-18577500D01*
X199057525Y-24877025D02*
X199057525Y-38788321D01*
X194321020Y-20140520D02*
X199057525Y-24877025D01*
X148703520Y-20140520D02*
X194321020Y-20140520D01*
X146240500Y-17677500D02*
X148703520Y-20140520D01*
X146240500Y-16827500D02*
X146240500Y-17677500D01*
X235057525Y-27666525D02*
X235057525Y-38788321D01*
X227081510Y-19690510D02*
X235057525Y-27666525D01*
X150793510Y-19690510D02*
X227081510Y-19690510D01*
X148780500Y-17677500D02*
X150793510Y-19690510D01*
X148780500Y-16827500D02*
X148780500Y-17677500D01*
X271057525Y-38788321D02*
X271057525Y-21502525D01*
X151320500Y-17677500D02*
X151320500Y-16827500D01*
X152883500Y-19240500D02*
X151320500Y-17677500D01*
X268795500Y-19240500D02*
X152883500Y-19240500D01*
X271057525Y-21502525D02*
X268795500Y-19240500D01*
M02*
